<svg xmlns="http://www.w3.org/2000/svg" xmlns:xlink="http://www.w3.org/1999/xlink" width="250" zoomAndPan="magnify" viewBox="0 0 375 374.999991" height="250" preserveAspectRatio="xMidYMid meet" version="1.0"><defs><g/><clipPath id="532358f21d"><path d="M 142.324219 91.894531 L 232.324219 91.894531 L 232.324219 181.894531 L 142.324219 181.894531 Z M 142.324219 91.894531 " clip-rule="nonzero"/></clipPath></defs><g clip-path="url(#532358f21d)"><path fill="#000000" d="M 167.671875 126.433594 C 168.847656 128.203125 169.457031 130.273438 169.488281 132.601562 C 167.355469 131.667969 165.679688 130.308594 164.503906 128.542969 C 163.332031 126.773438 162.71875 124.707031 162.6875 122.375 C 164.820312 123.304688 166.496094 124.667969 167.671875 126.433594 Z M 169.941406 134.324219 C 170.019531 134.351562 170.101562 134.363281 170.183594 134.363281 C 170.324219 134.363281 170.460938 134.324219 170.582031 134.246094 C 170.769531 134.117188 170.890625 133.910156 170.902344 133.6875 C 171.070312 130.628906 170.382812 127.921875 168.867188 125.640625 C 167.347656 123.359375 165.117188 121.679688 162.234375 120.652344 C 162.019531 120.578125 161.78125 120.605469 161.59375 120.734375 C 161.40625 120.855469 161.285156 121.066406 161.273438 121.289062 C 161.105469 124.347656 161.792969 127.054688 163.308594 129.335938 C 164.828125 131.617188 167.058594 133.296875 169.941406 134.324219 Z M 207.324219 126.433594 C 208.5 124.667969 210.175781 123.304688 212.308594 122.375 C 212.277344 124.707031 211.667969 126.773438 210.492188 128.542969 C 209.316406 130.308594 207.644531 131.667969 205.507812 132.601562 C 205.542969 130.273438 206.152344 128.203125 207.324219 126.433594 Z M 204.414062 134.246094 C 204.535156 134.324219 204.671875 134.363281 204.8125 134.363281 C 204.894531 134.363281 204.976562 134.351562 205.054688 134.324219 C 207.9375 133.296875 210.171875 131.617188 211.6875 129.335938 C 213.203125 127.054688 213.890625 124.347656 213.722656 121.289062 C 213.710938 121.066406 213.589844 120.855469 213.402344 120.734375 C 213.214844 120.605469 212.976562 120.578125 212.765625 120.652344 C 209.878906 121.679688 207.648438 123.359375 206.128906 125.640625 C 204.613281 127.921875 203.925781 130.628906 204.09375 133.6875 C 204.105469 133.910156 204.226562 134.117188 204.414062 134.246094 Z M 181.734375 170.628906 C 181.734375 170.613281 181.734375 170.601562 181.734375 170.585938 C 181.753906 170.367188 181.773438 170.148438 181.792969 169.929688 C 181.890625 168.839844 182.011719 167.785156 182.148438 166.757812 C 182.21875 166.246094 182.292969 165.738281 182.371094 165.242188 C 182.410156 164.992188 182.453125 164.746094 182.496094 164.503906 C 182.628906 163.714844 182.78125 162.945312 182.941406 162.195312 C 183.585938 159.222656 184.4375 156.558594 185.507812 154.175781 C 185.515625 154.15625 185.527344 154.132812 185.535156 154.113281 C 185.996094 153.09375 186.496094 152.125 187.035156 151.210938 C 187.371094 150.640625 187.722656 150.085938 188.089844 149.554688 C 188.285156 149.269531 188.484375 148.996094 188.6875 148.722656 C 191.734375 144.652344 195.699219 141.878906 201.09375 140.039062 C 201.226562 139.992188 201.355469 139.949219 201.484375 139.90625 C 205.175781 138.6875 208.953125 138.074219 212.605469 137.480469 C 216.496094 136.84375 220.027344 136.269531 222.902344 135.070312 C 221.320312 137.753906 220.265625 141.171875 219.101562 144.9375 C 215.789062 155.667969 212.039062 167.828125 193.921875 170.535156 C 193.863281 170.542969 193.804688 170.554688 193.726562 170.5625 C 193.503906 170.597656 193.277344 170.628906 193.050781 170.65625 C 191.3125 170.882812 189.445312 171.019531 187.5 171.0625 C 185.738281 171.023438 184.03125 170.910156 182.429688 170.71875 C 182.199219 170.691406 181.96875 170.660156 181.734375 170.628906 Z M 155.894531 144.9375 C 154.730469 141.171875 153.675781 137.753906 152.097656 135.070312 C 154.96875 136.269531 158.5 136.84375 162.390625 137.476562 C 166.011719 138.066406 169.753906 138.679688 173.421875 139.875 C 173.582031 139.925781 173.742188 139.980469 173.90625 140.039062 C 174.261719 140.160156 174.609375 140.285156 174.949219 140.414062 C 175.066406 140.457031 175.175781 140.503906 175.289062 140.546875 C 175.511719 140.632812 175.738281 140.722656 175.957031 140.8125 C 176.089844 140.867188 176.214844 140.925781 176.34375 140.980469 C 176.542969 141.066406 176.738281 141.152344 176.933594 141.238281 C 177.066406 141.300781 177.195312 141.367188 177.328125 141.429688 C 177.511719 141.515625 177.691406 141.601562 177.871094 141.691406 C 178.003906 141.757812 178.132812 141.828125 178.265625 141.898438 C 178.4375 141.988281 178.609375 142.078125 178.777344 142.167969 C 178.90625 142.242188 179.035156 142.320312 179.167969 142.394531 C 179.328125 142.488281 179.488281 142.578125 179.648438 142.675781 C 179.777344 142.753906 179.902344 142.835938 180.03125 142.914062 C 180.183594 143.011719 180.339844 143.109375 180.488281 143.207031 C 180.613281 143.292969 180.738281 143.378906 180.863281 143.464844 C 181.007812 143.566406 181.15625 143.664062 181.300781 143.769531 C 181.421875 143.859375 181.539062 143.949219 181.660156 144.039062 C 181.800781 144.144531 181.941406 144.25 182.078125 144.359375 C 182.199219 144.453125 182.3125 144.550781 182.429688 144.648438 C 182.5625 144.757812 182.699219 144.867188 182.828125 144.980469 C 182.945312 145.082031 183.058594 145.183594 183.171875 145.285156 C 183.296875 145.398438 183.425781 145.515625 183.550781 145.632812 C 183.664062 145.734375 183.773438 145.84375 183.882812 145.949219 C 184.003906 146.070312 184.125 146.191406 184.246094 146.3125 C 184.355469 146.425781 184.460938 146.535156 184.566406 146.648438 C 184.683594 146.773438 184.800781 146.898438 184.914062 147.027344 C 185.019531 147.140625 185.121094 147.257812 185.222656 147.378906 C 185.335938 147.507812 185.445312 147.640625 185.558594 147.773438 C 185.65625 147.894531 185.757812 148.015625 185.855469 148.140625 C 185.960938 148.273438 186.070312 148.410156 186.175781 148.550781 C 186.273438 148.675781 186.367188 148.804688 186.460938 148.9375 C 186.515625 149.007812 186.570312 149.085938 186.621094 149.160156 C 186.617188 149.164062 186.613281 149.171875 186.609375 149.179688 C 186.414062 149.472656 186.226562 149.773438 186.039062 150.078125 C 186.019531 150.109375 186 150.140625 185.980469 150.175781 C 185.796875 150.476562 185.621094 150.78125 185.445312 151.09375 C 185.425781 151.132812 185.402344 151.167969 185.382812 151.207031 C 185.210938 151.515625 185.046875 151.832031 184.882812 152.148438 C 184.863281 152.191406 184.839844 152.234375 184.816406 152.28125 C 184.660156 152.597656 184.503906 152.921875 184.351562 153.246094 C 184.332031 153.296875 184.308594 153.34375 184.285156 153.390625 C 184.136719 153.71875 183.992188 154.050781 183.851562 154.386719 C 183.828125 154.4375 183.808594 154.488281 183.785156 154.542969 C 183.648438 154.878906 183.511719 155.21875 183.378906 155.566406 C 183.359375 155.621094 183.339844 155.675781 183.320312 155.730469 C 183.1875 156.078125 183.0625 156.433594 182.941406 156.789062 C 182.921875 156.847656 182.902344 156.90625 182.882812 156.960938 C 182.761719 157.320312 182.644531 157.6875 182.53125 158.058594 C 182.515625 158.117188 182.496094 158.175781 182.480469 158.234375 C 182.367188 158.605469 182.257812 158.984375 182.152344 159.367188 C 182.136719 159.425781 182.121094 159.484375 182.105469 159.542969 C 182.003906 159.929688 181.902344 160.324219 181.804688 160.722656 C 181.792969 160.777344 181.777344 160.835938 181.765625 160.894531 C 181.667969 161.296875 181.578125 161.707031 181.488281 162.121094 C 181.476562 162.175781 181.46875 162.230469 181.457031 162.285156 C 181.367188 162.707031 181.28125 163.132812 181.203125 163.566406 C 181.195312 163.613281 181.183594 163.664062 181.175781 163.710938 C 181.097656 164.15625 181.019531 164.601562 180.945312 165.054688 C 180.941406 165.097656 180.933594 165.136719 180.929688 165.179688 C 180.855469 165.644531 180.785156 166.113281 180.722656 166.589844 C 180.71875 166.621094 180.714844 166.65625 180.710938 166.6875 C 180.644531 167.175781 180.582031 167.667969 180.527344 168.171875 C 180.523438 168.1875 180.523438 168.207031 180.519531 168.226562 C 180.464844 168.742188 180.410156 169.269531 180.363281 169.796875 C 180.34375 170 180.324219 170.203125 180.308594 170.402344 C 180.308594 170.40625 180.308594 170.410156 180.308594 170.414062 C 162.851562 167.480469 159.160156 155.515625 155.894531 144.9375 Z M 187.5 121.5 C 193.367188 125.265625 197.882812 131.558594 199.984375 138.90625 C 199.902344 138.9375 199.820312 138.96875 199.734375 139 C 199.585938 139.054688 199.4375 139.113281 199.292969 139.167969 C 199.09375 139.246094 198.894531 139.324219 198.699219 139.40625 C 198.558594 139.464844 198.414062 139.523438 198.273438 139.582031 C 198.078125 139.667969 197.882812 139.753906 197.691406 139.839844 C 197.554688 139.902344 197.421875 139.960938 197.285156 140.023438 C 197.089844 140.117188 196.894531 140.214844 196.703125 140.308594 C 196.578125 140.371094 196.453125 140.429688 196.332031 140.492188 C 196.121094 140.601562 195.914062 140.714844 195.707031 140.828125 C 195.609375 140.882812 195.507812 140.933594 195.410156 140.988281 C 195.113281 141.15625 194.816406 141.328125 194.527344 141.507812 C 194.523438 141.507812 194.523438 141.507812 194.519531 141.511719 C 194.226562 141.691406 193.9375 141.878906 193.65625 142.066406 C 193.566406 142.125 193.480469 142.1875 193.394531 142.246094 C 193.203125 142.378906 193.011719 142.511719 192.824219 142.648438 C 192.71875 142.722656 192.617188 142.800781 192.515625 142.878906 C 192.347656 143.003906 192.179688 143.128906 192.019531 143.257812 C 191.910156 143.34375 191.804688 143.433594 191.699219 143.519531 C 191.542969 143.644531 191.390625 143.769531 191.242188 143.898438 C 191.136719 143.992188 191.03125 144.085938 190.925781 144.179688 C 190.777344 144.308594 190.636719 144.441406 190.492188 144.570312 C 190.390625 144.667969 190.285156 144.765625 190.183594 144.867188 C 190.042969 145 189.90625 145.136719 189.769531 145.273438 C 189.671875 145.375 189.570312 145.476562 189.472656 145.578125 C 189.335938 145.722656 189.203125 145.867188 189.070312 146.015625 C 188.976562 146.117188 188.882812 146.21875 188.792969 146.320312 C 188.65625 146.476562 188.519531 146.636719 188.386719 146.800781 C 188.304688 146.894531 188.222656 146.992188 188.140625 147.089844 C 187.984375 147.28125 187.835938 147.476562 187.6875 147.671875 C 187.628906 147.746094 187.570312 147.816406 187.515625 147.890625 C 187.511719 147.898438 187.503906 147.90625 187.5 147.914062 C 187.492188 147.90625 187.484375 147.898438 187.480469 147.890625 C 187.425781 147.820312 187.371094 147.753906 187.320312 147.683594 C 187.167969 147.484375 187.011719 147.285156 186.855469 147.089844 C 186.777344 146.996094 186.695312 146.898438 186.613281 146.804688 C 186.480469 146.640625 186.34375 146.480469 186.203125 146.320312 C 186.113281 146.21875 186.019531 146.117188 185.929688 146.015625 C 185.792969 145.871094 185.660156 145.722656 185.523438 145.582031 C 185.425781 145.476562 185.324219 145.375 185.226562 145.273438 C 185.089844 145.136719 184.953125 145.003906 184.816406 144.867188 C 184.710938 144.769531 184.605469 144.667969 184.5 144.570312 C 184.363281 144.441406 184.21875 144.3125 184.078125 144.183594 C 183.96875 144.089844 183.859375 143.992188 183.75 143.898438 C 183.605469 143.773438 183.457031 143.648438 183.304688 143.527344 C 183.195312 143.4375 183.085938 143.347656 182.976562 143.257812 C 182.816406 143.132812 182.65625 143.011719 182.496094 142.890625 C 182.390625 142.808594 182.28125 142.726562 182.171875 142.644531 C 181.992188 142.515625 181.8125 142.394531 181.628906 142.265625 C 181.53125 142.199219 181.4375 142.128906 181.339844 142.0625 C 181.066406 141.882812 180.792969 141.707031 180.511719 141.535156 C 180.472656 141.507812 180.429688 141.484375 180.386719 141.460938 C 180.125 141.300781 179.863281 141.144531 179.59375 140.992188 C 179.480469 140.929688 179.367188 140.871094 179.257812 140.8125 C 179.0625 140.703125 178.867188 140.597656 178.671875 140.496094 C 178.542969 140.429688 178.410156 140.367188 178.277344 140.300781 C 178.09375 140.210938 177.90625 140.117188 177.71875 140.027344 C 177.578125 139.964844 177.4375 139.898438 177.296875 139.835938 C 177.109375 139.75 176.921875 139.667969 176.730469 139.585938 C 176.585938 139.523438 176.4375 139.460938 176.292969 139.402344 C 176.097656 139.324219 175.90625 139.246094 175.710938 139.167969 C 175.5625 139.113281 175.410156 139.054688 175.261719 139 C 175.175781 138.96875 175.09375 138.933594 175.011719 138.902344 C 177.117188 131.554688 181.628906 125.261719 187.5 121.5 Z M 219.441406 105.125 C 210.910156 96.59375 199.566406 91.894531 187.5 91.894531 C 175.429688 91.894531 164.085938 96.59375 155.554688 105.125 C 147.019531 113.65625 142.324219 125 142.324219 137.070312 C 142.324219 147.785156 146.140625 158.175781 153.074219 166.328125 C 159.929688 174.382812 169.417969 179.804688 179.785156 181.589844 C 180.175781 181.65625 180.546875 181.394531 180.613281 181.003906 C 180.679688 180.609375 180.417969 180.238281 180.027344 180.171875 C 159.011719 176.558594 143.757812 158.429688 143.757812 137.070312 C 143.757812 112.953125 163.378906 93.328125 187.5 93.328125 C 211.617188 93.328125 231.238281 112.953125 231.238281 137.070312 C 231.238281 160.945312 212.003906 180.414062 188.214844 180.800781 L 188.214844 172.480469 C 189.964844 172.421875 191.652344 172.289062 193.238281 172.082031 C 193.476562 172.050781 193.710938 172.019531 193.925781 171.984375 C 193.996094 171.976562 194.070312 171.964844 194.136719 171.957031 C 213.144531 169.113281 217.207031 155.945312 220.476562 145.363281 C 222.109375 140.058594 223.523438 135.480469 226.441406 132.941406 C 226.742188 132.679688 226.773438 132.226562 226.511719 131.929688 C 226.25 131.628906 225.796875 131.597656 225.496094 131.859375 C 222.578125 134.398438 217.847656 135.167969 212.375 136.0625 C 208.769531 136.648438 205.042969 137.257812 201.347656 138.441406 C 199.089844 130.625 194.214844 123.949219 187.875 120.039062 C 187.644531 119.898438 187.351562 119.898438 187.121094 120.039062 C 180.785156 123.945312 175.90625 130.625 173.648438 138.441406 C 169.953125 137.257812 166.226562 136.648438 162.621094 136.0625 C 157.144531 135.167969 152.417969 134.398438 149.5 131.859375 C 149.199219 131.597656 148.746094 131.628906 148.484375 131.929688 C 148.222656 132.226562 148.253906 132.679688 148.554688 132.941406 C 151.472656 135.480469 152.886719 140.058594 154.523438 145.363281 C 157.789062 155.941406 161.851562 169.109375 180.851562 171.953125 L 181.054688 171.984375 C 181.476562 172.046875 181.871094 172.097656 182.261719 172.144531 C 183.699219 172.316406 185.21875 172.425781 186.78125 172.476562 L 186.78125 181.527344 C 186.78125 181.875 187.027344 182.164062 187.351562 182.230469 C 187.398438 182.238281 187.449219 182.246094 187.5 182.246094 C 199.566406 182.246094 210.910156 177.546875 219.441406 169.011719 C 227.972656 160.480469 232.675781 149.136719 232.675781 137.070312 C 232.675781 125 227.972656 113.65625 219.441406 105.125 " fill-opacity="1" fill-rule="nonzero"/></g><g fill="#000000" fill-opacity="1"><g transform="translate(44.552682, 239.803415)"><g><path d="M 1.078125 0 L 1.078125 -7.90625 L 7 -7.90625 L 7 0 L 6.015625 0 L 6.015625 -7.03125 L 2.0625 -7.03125 L 2.0625 0 Z M 1.078125 0 "/></g></g></g><g fill="#000000" fill-opacity="1"><g transform="translate(54.959244, 239.803415)"><g><path d="M 3.15625 -7.90625 C 4.195312 -7.90625 4.953125 -7.703125 5.421875 -7.296875 C 5.890625 -6.890625 6.125 -6.316406 6.125 -5.578125 C 6.125 -5.140625 6.023438 -4.726562 5.828125 -4.34375 C 5.640625 -3.96875 5.3125 -3.660156 4.84375 -3.421875 C 4.382812 -3.191406 3.757812 -3.078125 2.96875 -3.078125 L 2.0625 -3.078125 L 2.0625 0 L 1.078125 0 L 1.078125 -7.90625 Z M 3.078125 -7.046875 L 2.0625 -7.046875 L 2.0625 -3.921875 L 2.859375 -3.921875 C 3.617188 -3.921875 4.179688 -4.039062 4.546875 -4.28125 C 4.910156 -4.53125 5.09375 -4.945312 5.09375 -5.53125 C 5.09375 -6.039062 4.925781 -6.421875 4.59375 -6.671875 C 4.269531 -6.921875 3.765625 -7.046875 3.078125 -7.046875 Z M 3.078125 -7.046875 "/></g></g></g><g fill="#000000" fill-opacity="1"><g transform="translate(63.972459, 239.803415)"><g><path d="M 7.96875 -3.953125 C 7.96875 -3.140625 7.828125 -2.425781 7.546875 -1.8125 C 7.273438 -1.207031 6.867188 -0.734375 6.328125 -0.390625 C 5.785156 -0.0546875 5.117188 0.109375 4.328125 0.109375 C 3.503906 0.109375 2.820312 -0.0546875 2.28125 -0.390625 C 1.738281 -0.734375 1.332031 -1.210938 1.0625 -1.828125 C 0.800781 -2.441406 0.671875 -3.15625 0.671875 -3.96875 C 0.671875 -4.769531 0.800781 -5.472656 1.0625 -6.078125 C 1.332031 -6.691406 1.738281 -7.164062 2.28125 -7.5 C 2.820312 -7.84375 3.507812 -8.015625 4.34375 -8.015625 C 5.125 -8.015625 5.785156 -7.847656 6.328125 -7.515625 C 6.867188 -7.179688 7.273438 -6.707031 7.546875 -6.09375 C 7.828125 -5.488281 7.96875 -4.773438 7.96875 -3.953125 Z M 1.71875 -3.953125 C 1.71875 -2.960938 1.925781 -2.179688 2.34375 -1.609375 C 2.769531 -1.035156 3.429688 -0.75 4.328125 -0.75 C 5.210938 -0.75 5.863281 -1.035156 6.28125 -1.609375 C 6.695312 -2.179688 6.90625 -2.960938 6.90625 -3.953125 C 6.90625 -4.953125 6.695312 -5.734375 6.28125 -6.296875 C 5.875 -6.859375 5.226562 -7.140625 4.34375 -7.140625 C 3.4375 -7.140625 2.769531 -6.859375 2.34375 -6.296875 C 1.925781 -5.734375 1.71875 -4.953125 1.71875 -3.953125 Z M 1.71875 -3.953125 "/></g></g></g><g fill="#000000" fill-opacity="1"><g transform="translate(74.931933, 239.803415)"><g><path d="M 4.9375 -8.015625 L 4.9375 -7.03125 C 5.789062 -7.019531 6.460938 -6.878906 6.953125 -6.609375 C 7.453125 -6.347656 7.800781 -5.992188 8 -5.546875 C 8.207031 -5.109375 8.3125 -4.625 8.3125 -4.09375 C 8.3125 -3.738281 8.257812 -3.382812 8.15625 -3.03125 C 8.050781 -2.6875 7.867188 -2.367188 7.609375 -2.078125 C 7.347656 -1.796875 7 -1.566406 6.5625 -1.390625 C 6.132812 -1.210938 5.59375 -1.117188 4.9375 -1.109375 L 4.9375 0.109375 L 3.953125 0.109375 L 3.953125 -1.109375 C 3.273438 -1.117188 2.71875 -1.210938 2.28125 -1.390625 C 1.84375 -1.578125 1.5 -1.816406 1.25 -2.109375 C 1 -2.398438 0.820312 -2.71875 0.71875 -3.0625 C 0.613281 -3.40625 0.5625 -3.75 0.5625 -4.09375 C 0.5625 -4.613281 0.664062 -5.09375 0.875 -5.53125 C 1.082031 -5.96875 1.429688 -6.320312 1.921875 -6.59375 C 2.421875 -6.875 3.097656 -7.019531 3.953125 -7.03125 L 3.953125 -8.015625 Z M 3.953125 -6.1875 C 3.347656 -6.175781 2.875 -6.082031 2.53125 -5.90625 C 2.1875 -5.726562 1.941406 -5.484375 1.796875 -5.171875 C 1.648438 -4.867188 1.578125 -4.515625 1.578125 -4.109375 C 1.578125 -3.453125 1.765625 -2.929688 2.140625 -2.546875 C 2.515625 -2.160156 3.117188 -1.953125 3.953125 -1.921875 Z M 4.9375 -6.1875 L 4.9375 -1.921875 C 5.789062 -1.953125 6.398438 -2.164062 6.765625 -2.5625 C 7.128906 -2.957031 7.3125 -3.472656 7.3125 -4.109375 C 7.3125 -4.523438 7.238281 -4.882812 7.09375 -5.1875 C 6.945312 -5.5 6.695312 -5.738281 6.34375 -5.90625 C 5.988281 -6.082031 5.519531 -6.175781 4.9375 -6.1875 Z M 4.9375 -6.1875 "/></g></g></g><g fill="#000000" fill-opacity="1"><g transform="translate(86.145751, 239.803415)"><g><path d="M 5.484375 0 L 1.078125 0 L 1.078125 -7.90625 L 5.484375 -7.90625 L 5.484375 -7.03125 L 2.0625 -7.03125 L 2.0625 -4.5625 L 5.28125 -4.5625 L 5.28125 -3.6875 L 2.0625 -3.6875 L 2.0625 -0.875 L 5.484375 -0.875 Z M 5.484375 0 "/></g></g></g><g fill="#000000" fill-opacity="1"><g transform="translate(94.61711, 239.803415)"><g><path d="M 4.453125 -7.140625 C 3.609375 -7.140625 2.941406 -6.851562 2.453125 -6.28125 C 1.960938 -5.71875 1.71875 -4.941406 1.71875 -3.953125 C 1.71875 -2.972656 1.945312 -2.195312 2.40625 -1.625 C 2.863281 -1.050781 3.546875 -0.765625 4.453125 -0.765625 C 4.785156 -0.765625 5.109375 -0.789062 5.421875 -0.84375 C 5.734375 -0.90625 6.039062 -0.984375 6.34375 -1.078125 L 6.34375 -0.203125 C 6.039062 -0.0976562 5.734375 -0.0195312 5.421875 0.03125 C 5.109375 0.0820312 4.734375 0.109375 4.296875 0.109375 C 3.492188 0.109375 2.820312 -0.0546875 2.28125 -0.390625 C 1.75 -0.722656 1.347656 -1.191406 1.078125 -1.796875 C 0.804688 -2.410156 0.671875 -3.128906 0.671875 -3.953125 C 0.671875 -4.753906 0.816406 -5.457031 1.109375 -6.0625 C 1.398438 -6.675781 1.828125 -7.15625 2.390625 -7.5 C 2.960938 -7.84375 3.65625 -8.015625 4.46875 -8.015625 C 5.300781 -8.015625 6.03125 -7.859375 6.65625 -7.546875 L 6.25 -6.703125 C 6.007812 -6.816406 5.738281 -6.914062 5.4375 -7 C 5.132812 -7.09375 4.804688 -7.140625 4.453125 -7.140625 Z M 4.453125 -7.140625 "/></g></g></g><g fill="#000000" fill-opacity="1"><g transform="translate(103.928901, 239.803415)"><g><path d="M 3.296875 0 L 0.4375 0 L 0.4375 -0.578125 L 1.375 -0.78125 L 1.375 -7.109375 L 0.4375 -7.328125 L 0.4375 -7.90625 L 3.296875 -7.90625 L 3.296875 -7.328125 L 2.375 -7.109375 L 2.375 -0.78125 L 3.296875 -0.578125 Z M 3.296875 0 "/></g></g></g><g fill="#000000" fill-opacity="1"><g transform="translate(110.000603, 239.803415)"><g><path d="M 1.078125 -7.90625 L 2.015625 -7.90625 L 2.015625 -3.5625 C 2.015625 -3.3125 2.007812 -3.035156 2 -2.734375 C 1.988281 -2.441406 1.976562 -2.164062 1.96875 -1.90625 C 1.957031 -1.65625 1.945312 -1.472656 1.9375 -1.359375 L 1.984375 -1.359375 L 6.328125 -7.90625 L 7.4375 -7.90625 L 7.4375 0 L 6.5 0 L 6.5 -4.296875 C 6.5 -4.554688 6.503906 -4.84375 6.515625 -5.15625 C 6.523438 -5.46875 6.535156 -5.753906 6.546875 -6.015625 C 6.566406 -6.273438 6.582031 -6.460938 6.59375 -6.578125 L 6.546875 -6.578125 L 2.1875 0 L 1.078125 0 Z M 6.46875 -10.359375 C 6.414062 -9.804688 6.226562 -9.382812 5.90625 -9.09375 C 5.582031 -8.8125 5.070312 -8.671875 4.375 -8.671875 C 3.644531 -8.671875 3.128906 -8.8125 2.828125 -9.09375 C 2.535156 -9.375 2.375 -9.796875 2.34375 -10.359375 L 3.25 -10.359375 C 3.28125 -9.953125 3.378906 -9.679688 3.546875 -9.546875 C 3.722656 -9.410156 4.003906 -9.34375 4.390625 -9.34375 C 4.734375 -9.34375 5 -9.414062 5.1875 -9.5625 C 5.382812 -9.707031 5.503906 -9.972656 5.546875 -10.359375 Z M 6.46875 -10.359375 "/></g></g></g><g fill="#000000" fill-opacity="1"><g transform="translate(120.816318, 239.803415)"><g><path d="M 7.109375 0 L 6.125 0 L 6.125 -3.6875 L 2.0625 -3.6875 L 2.0625 0 L 1.078125 0 L 1.078125 -7.90625 L 2.0625 -7.90625 L 2.0625 -4.5625 L 6.125 -4.5625 L 6.125 -7.90625 L 7.109375 -7.90625 Z M 7.109375 0 "/></g></g></g><g fill="#000000" fill-opacity="1"><g transform="translate(131.333458, 239.803415)"><g><path d="M 1.078125 -7.90625 L 2.015625 -7.90625 L 2.015625 -3.5625 C 2.015625 -3.3125 2.007812 -3.035156 2 -2.734375 C 1.988281 -2.441406 1.976562 -2.164062 1.96875 -1.90625 C 1.957031 -1.65625 1.945312 -1.472656 1.9375 -1.359375 L 1.984375 -1.359375 L 6.328125 -7.90625 L 7.4375 -7.90625 L 7.4375 0 L 6.5 0 L 6.5 -4.296875 C 6.5 -4.554688 6.503906 -4.84375 6.515625 -5.15625 C 6.523438 -5.46875 6.535156 -5.753906 6.546875 -6.015625 C 6.566406 -6.273438 6.582031 -6.460938 6.59375 -6.578125 L 6.546875 -6.578125 L 2.1875 0 L 1.078125 0 Z M 1.078125 -7.90625 "/></g></g></g><g fill="#000000" fill-opacity="1"><g transform="translate(142.149179, 239.803415)"><g><path d="M 1.078125 -7.90625 L 2.015625 -7.90625 L 2.015625 -3.5625 C 2.015625 -3.3125 2.007812 -3.035156 2 -2.734375 C 1.988281 -2.441406 1.976562 -2.164062 1.96875 -1.90625 C 1.957031 -1.65625 1.945312 -1.472656 1.9375 -1.359375 L 1.984375 -1.359375 L 6.328125 -7.90625 L 7.4375 -7.90625 L 7.4375 0 L 6.5 0 L 6.5 -4.296875 C 6.5 -4.554688 6.503906 -4.84375 6.515625 -5.15625 C 6.523438 -5.46875 6.535156 -5.753906 6.546875 -6.015625 C 6.566406 -6.273438 6.582031 -6.460938 6.59375 -6.578125 L 6.546875 -6.578125 L 2.1875 0 L 1.078125 0 Z M 6.46875 -10.359375 C 6.414062 -9.804688 6.226562 -9.382812 5.90625 -9.09375 C 5.582031 -8.8125 5.070312 -8.671875 4.375 -8.671875 C 3.644531 -8.671875 3.128906 -8.8125 2.828125 -9.09375 C 2.535156 -9.375 2.375 -9.796875 2.34375 -10.359375 L 3.25 -10.359375 C 3.28125 -9.953125 3.378906 -9.679688 3.546875 -9.546875 C 3.722656 -9.410156 4.003906 -9.34375 4.390625 -9.34375 C 4.734375 -9.34375 5 -9.414062 5.1875 -9.5625 C 5.382812 -9.707031 5.503906 -9.972656 5.546875 -10.359375 Z M 6.46875 -10.359375 "/></g></g></g><g fill="#000000" fill-opacity="1"><g transform="translate(152.9649, 239.803415)"><g/></g></g><g fill="#000000" fill-opacity="1"><g transform="translate(158.122615, 239.803415)"><g><path d="M 6.390625 -7.90625 L 6.390625 -0.890625 L 7.40625 -0.890625 L 7.40625 2.078125 L 6.453125 2.078125 L 6.453125 0 L 1.015625 0 L 1.015625 2.078125 L 0.0625 2.078125 L 0.0625 -0.890625 L 0.671875 -0.890625 C 0.941406 -1.347656 1.195312 -1.859375 1.4375 -2.421875 C 1.675781 -2.992188 1.882812 -3.585938 2.0625 -4.203125 C 2.25 -4.828125 2.398438 -5.453125 2.515625 -6.078125 C 2.640625 -6.710938 2.71875 -7.320312 2.75 -7.90625 Z M 5.40625 -7 L 3.625 -7 C 3.59375 -6.570312 3.519531 -6.085938 3.40625 -5.546875 C 3.289062 -5.015625 3.144531 -4.460938 2.96875 -3.890625 C 2.789062 -3.328125 2.597656 -2.785156 2.390625 -2.265625 C 2.179688 -1.742188 1.957031 -1.285156 1.71875 -0.890625 L 5.40625 -0.890625 Z M 5.40625 -7 "/></g></g></g><g fill="#000000" fill-opacity="1"><g transform="translate(168.086848, 239.803415)"><g><path d="M 7.96875 -3.953125 C 7.96875 -3.140625 7.828125 -2.425781 7.546875 -1.8125 C 7.273438 -1.207031 6.867188 -0.734375 6.328125 -0.390625 C 5.785156 -0.0546875 5.117188 0.109375 4.328125 0.109375 C 3.503906 0.109375 2.820312 -0.0546875 2.28125 -0.390625 C 1.738281 -0.734375 1.332031 -1.210938 1.0625 -1.828125 C 0.800781 -2.441406 0.671875 -3.15625 0.671875 -3.96875 C 0.671875 -4.769531 0.800781 -5.472656 1.0625 -6.078125 C 1.332031 -6.691406 1.738281 -7.164062 2.28125 -7.5 C 2.820312 -7.84375 3.507812 -8.015625 4.34375 -8.015625 C 5.125 -8.015625 5.785156 -7.847656 6.328125 -7.515625 C 6.867188 -7.179688 7.273438 -6.707031 7.546875 -6.09375 C 7.828125 -5.488281 7.96875 -4.773438 7.96875 -3.953125 Z M 1.71875 -3.953125 C 1.71875 -2.960938 1.925781 -2.179688 2.34375 -1.609375 C 2.769531 -1.035156 3.429688 -0.75 4.328125 -0.75 C 5.210938 -0.75 5.863281 -1.035156 6.28125 -1.609375 C 6.695312 -2.179688 6.90625 -2.960938 6.90625 -3.953125 C 6.90625 -4.953125 6.695312 -5.734375 6.28125 -6.296875 C 5.875 -6.859375 5.226562 -7.140625 4.34375 -7.140625 C 3.4375 -7.140625 2.769531 -6.859375 2.34375 -6.296875 C 1.925781 -5.734375 1.71875 -4.953125 1.71875 -3.953125 Z M 1.71875 -3.953125 "/></g></g></g><g fill="#000000" fill-opacity="1"><g transform="translate(179.046326, 239.803415)"><g><path d="M 5.53125 -7.90625 L 5.53125 -7.015625 L 2.0625 -7.015625 L 2.0625 0 L 1.078125 0 L 1.078125 -7.90625 Z M 5.53125 -7.90625 "/></g></g></g><g fill="#000000" fill-opacity="1"><g transform="translate(187.163828, 239.803415)"><g><path d="M 6.765625 0 L 5.765625 0 L 5.765625 -7.03125 L 3.265625 -7.03125 C 3.191406 -6.476562 3.113281 -5.898438 3.03125 -5.296875 C 2.957031 -4.703125 2.878906 -4.128906 2.796875 -3.578125 C 2.710938 -3.035156 2.632812 -2.570312 2.5625 -2.1875 C 2.457031 -1.6875 2.332031 -1.265625 2.1875 -0.921875 C 2.050781 -0.578125 1.867188 -0.316406 1.640625 -0.140625 C 1.410156 0.0351562 1.109375 0.125 0.734375 0.125 C 0.609375 0.125 0.476562 0.109375 0.34375 0.078125 C 0.21875 0.0546875 0.109375 0.0234375 0.015625 -0.015625 L 0.015625 -0.84375 C 0.0859375 -0.800781 0.175781 -0.765625 0.28125 -0.734375 C 0.382812 -0.710938 0.5 -0.703125 0.625 -0.703125 C 0.84375 -0.703125 1.015625 -0.789062 1.140625 -0.96875 C 1.273438 -1.15625 1.375 -1.382812 1.4375 -1.65625 C 1.507812 -1.925781 1.578125 -2.191406 1.640625 -2.453125 C 1.691406 -2.734375 1.757812 -3.144531 1.84375 -3.6875 C 1.9375 -4.226562 2.03125 -4.859375 2.125 -5.578125 C 2.226562 -6.304688 2.332031 -7.082031 2.4375 -7.90625 L 6.765625 -7.90625 Z M 6.765625 0 "/></g></g></g><g fill="#000000" fill-opacity="1"><g transform="translate(197.316049, 239.803415)"><g><path d="M 3.453125 -3.28125 L 1.40625 0 L 0.25 0 L 2.453125 -3.453125 C 2.171875 -3.535156 1.90625 -3.660156 1.65625 -3.828125 C 1.414062 -4.003906 1.21875 -4.238281 1.0625 -4.53125 C 0.90625 -4.832031 0.828125 -5.21875 0.828125 -5.6875 C 0.828125 -6.40625 1.070312 -6.953125 1.5625 -7.328125 C 2.050781 -7.710938 2.789062 -7.90625 3.78125 -7.90625 L 6 -7.90625 L 6 0 L 5 0 L 5 -3.28125 Z M 5 -7.046875 L 3.8125 -7.046875 C 3.175781 -7.046875 2.691406 -6.9375 2.359375 -6.71875 C 2.023438 -6.5 1.859375 -6.140625 1.859375 -5.640625 C 1.859375 -5.148438 2.019531 -4.769531 2.34375 -4.5 C 2.664062 -4.238281 3.164062 -4.109375 3.84375 -4.109375 L 5 -4.109375 Z M 5 -7.046875 "/></g></g></g><g fill="#000000" fill-opacity="1"><g transform="translate(206.705245, 239.803415)"><g><path d="M 6.390625 -7.90625 L 6.390625 -0.890625 L 7.40625 -0.890625 L 7.40625 2.078125 L 6.453125 2.078125 L 6.453125 0 L 1.015625 0 L 1.015625 2.078125 L 0.0625 2.078125 L 0.0625 -0.890625 L 0.671875 -0.890625 C 0.941406 -1.347656 1.195312 -1.859375 1.4375 -2.421875 C 1.675781 -2.992188 1.882812 -3.585938 2.0625 -4.203125 C 2.25 -4.828125 2.398438 -5.453125 2.515625 -6.078125 C 2.640625 -6.710938 2.71875 -7.320312 2.75 -7.90625 Z M 5.40625 -7 L 3.625 -7 C 3.59375 -6.570312 3.519531 -6.085938 3.40625 -5.546875 C 3.289062 -5.015625 3.144531 -4.460938 2.96875 -3.890625 C 2.789062 -3.328125 2.597656 -2.785156 2.390625 -2.265625 C 2.179688 -1.742188 1.957031 -1.285156 1.71875 -0.890625 L 5.40625 -0.890625 Z M 5.40625 -7 "/></g></g></g><g fill="#000000" fill-opacity="1"><g transform="translate(216.669478, 239.803415)"><g/></g></g><g fill="#000000" fill-opacity="1"><g transform="translate(221.827192, 239.803415)"><g><path d="M 5.734375 -6.046875 C 5.734375 -5.515625 5.5625 -5.085938 5.21875 -4.765625 C 4.882812 -4.453125 4.4375 -4.253906 3.875 -4.171875 L 3.875 -4.125 C 4.539062 -4.039062 5.046875 -3.832031 5.390625 -3.5 C 5.734375 -3.175781 5.90625 -2.753906 5.90625 -2.234375 C 5.90625 -1.535156 5.640625 -0.96875 5.109375 -0.53125 C 4.578125 -0.101562 3.78125 0.109375 2.71875 0.109375 C 2.289062 0.109375 1.882812 0.078125 1.5 0.015625 C 1.113281 -0.046875 0.753906 -0.160156 0.421875 -0.328125 L 0.421875 -1.234375 C 0.753906 -1.054688 1.128906 -0.921875 1.546875 -0.828125 C 1.960938 -0.742188 2.347656 -0.703125 2.703125 -0.703125 C 3.410156 -0.703125 3.945312 -0.832031 4.3125 -1.09375 C 4.6875 -1.363281 4.875 -1.742188 4.875 -2.234375 C 4.875 -2.734375 4.65625 -3.097656 4.21875 -3.328125 C 3.789062 -3.554688 3.195312 -3.671875 2.4375 -3.671875 L 1.3125 -3.671875 L 1.3125 -4.5 L 2.375 -4.5 C 3.15625 -4.5 3.738281 -4.628906 4.125 -4.890625 C 4.519531 -5.148438 4.71875 -5.503906 4.71875 -5.953125 C 4.71875 -6.347656 4.566406 -6.648438 4.265625 -6.859375 C 3.972656 -7.078125 3.59375 -7.1875 3.125 -7.1875 C 2.625 -7.1875 2.207031 -7.125 1.875 -7 C 1.550781 -6.875 1.234375 -6.710938 0.921875 -6.515625 L 0.453125 -7.1875 C 0.765625 -7.414062 1.144531 -7.609375 1.59375 -7.765625 C 2.050781 -7.929688 2.5625 -8.015625 3.125 -8.015625 C 3.976562 -8.015625 4.625 -7.828125 5.0625 -7.453125 C 5.507812 -7.085938 5.734375 -6.617188 5.734375 -6.046875 Z M 5.734375 -6.046875 "/></g></g></g><g fill="#000000" fill-opacity="1"><g transform="translate(230.652425, 239.803415)"><g><path d="M 6.03125 0 L 5.078125 -2.4375 L 1.953125 -2.4375 L 1 0 L 0 0 L 3.09375 -7.9375 L 3.984375 -7.9375 L 7.0625 0 Z M 4.78125 -3.328125 L 3.890625 -5.71875 C 3.867188 -5.78125 3.832031 -5.882812 3.78125 -6.03125 C 3.726562 -6.1875 3.675781 -6.347656 3.625 -6.515625 C 3.582031 -6.679688 3.546875 -6.8125 3.515625 -6.90625 C 3.453125 -6.675781 3.390625 -6.453125 3.328125 -6.234375 C 3.265625 -6.015625 3.210938 -5.84375 3.171875 -5.71875 L 2.28125 -3.328125 Z M 4.78125 -3.328125 "/></g></g></g><g fill="#000000" fill-opacity="1"><g transform="translate(240.041619, 239.803415)"><g/></g></g><g fill="#000000" fill-opacity="1"><g transform="translate(245.199333, 239.803415)"><g><path d="M 1.078125 -7.90625 L 3.328125 -7.90625 C 4.304688 -7.90625 5.050781 -7.753906 5.5625 -7.453125 C 6.070312 -7.160156 6.328125 -6.65625 6.328125 -5.9375 C 6.328125 -5.476562 6.195312 -5.09375 5.9375 -4.78125 C 5.675781 -4.476562 5.304688 -4.28125 4.828125 -4.1875 L 4.828125 -4.140625 C 5.160156 -4.078125 5.457031 -3.972656 5.71875 -3.828125 C 5.988281 -3.691406 6.203125 -3.492188 6.359375 -3.234375 C 6.515625 -2.984375 6.59375 -2.65625 6.59375 -2.25 C 6.59375 -1.53125 6.347656 -0.972656 5.859375 -0.578125 C 5.367188 -0.191406 4.695312 0 3.84375 0 L 1.078125 0 Z M 2.0625 -4.53125 L 3.53125 -4.53125 C 4.195312 -4.53125 4.65625 -4.640625 4.90625 -4.859375 C 5.164062 -5.078125 5.296875 -5.398438 5.296875 -5.828125 C 5.296875 -6.265625 5.140625 -6.578125 4.828125 -6.765625 C 4.523438 -6.953125 4.039062 -7.046875 3.375 -7.046875 L 2.0625 -7.046875 Z M 2.0625 -3.703125 L 2.0625 -0.84375 L 3.65625 -0.84375 C 4.363281 -0.84375 4.851562 -0.976562 5.125 -1.25 C 5.394531 -1.519531 5.53125 -1.878906 5.53125 -2.328125 C 5.53125 -2.734375 5.382812 -3.0625 5.09375 -3.3125 C 4.8125 -3.570312 4.304688 -3.703125 3.578125 -3.703125 Z M 2.0625 -3.703125 "/></g></g></g><g fill="#000000" fill-opacity="1"><g transform="translate(254.71017, 239.803415)"><g><path d="M 7.96875 -3.953125 C 7.96875 -3.140625 7.828125 -2.425781 7.546875 -1.8125 C 7.273438 -1.207031 6.867188 -0.734375 6.328125 -0.390625 C 5.785156 -0.0546875 5.117188 0.109375 4.328125 0.109375 C 3.503906 0.109375 2.820312 -0.0546875 2.28125 -0.390625 C 1.738281 -0.734375 1.332031 -1.210938 1.0625 -1.828125 C 0.800781 -2.441406 0.671875 -3.15625 0.671875 -3.96875 C 0.671875 -4.769531 0.800781 -5.472656 1.0625 -6.078125 C 1.332031 -6.691406 1.738281 -7.164062 2.28125 -7.5 C 2.820312 -7.84375 3.507812 -8.015625 4.34375 -8.015625 C 5.125 -8.015625 5.785156 -7.847656 6.328125 -7.515625 C 6.867188 -7.179688 7.273438 -6.707031 7.546875 -6.09375 C 7.828125 -5.488281 7.96875 -4.773438 7.96875 -3.953125 Z M 1.71875 -3.953125 C 1.71875 -2.960938 1.925781 -2.179688 2.34375 -1.609375 C 2.769531 -1.035156 3.429688 -0.75 4.328125 -0.75 C 5.210938 -0.75 5.863281 -1.035156 6.28125 -1.609375 C 6.695312 -2.179688 6.90625 -2.960938 6.90625 -3.953125 C 6.90625 -4.953125 6.695312 -5.734375 6.28125 -6.296875 C 5.875 -6.859375 5.226562 -7.140625 4.34375 -7.140625 C 3.4375 -7.140625 2.769531 -6.859375 2.34375 -6.296875 C 1.925781 -5.734375 1.71875 -4.953125 1.71875 -3.953125 Z M 1.71875 -3.953125 "/></g></g></g><g fill="#000000" fill-opacity="1"><g transform="translate(265.669648, 239.803415)"><g><path d="M 6.765625 0 L 5.765625 0 L 5.765625 -7.03125 L 3.265625 -7.03125 C 3.191406 -6.476562 3.113281 -5.898438 3.03125 -5.296875 C 2.957031 -4.703125 2.878906 -4.128906 2.796875 -3.578125 C 2.710938 -3.035156 2.632812 -2.570312 2.5625 -2.1875 C 2.457031 -1.6875 2.332031 -1.265625 2.1875 -0.921875 C 2.050781 -0.578125 1.867188 -0.316406 1.640625 -0.140625 C 1.410156 0.0351562 1.109375 0.125 0.734375 0.125 C 0.609375 0.125 0.476562 0.109375 0.34375 0.078125 C 0.21875 0.0546875 0.109375 0.0234375 0.015625 -0.015625 L 0.015625 -0.84375 C 0.0859375 -0.800781 0.175781 -0.765625 0.28125 -0.734375 C 0.382812 -0.710938 0.5 -0.703125 0.625 -0.703125 C 0.84375 -0.703125 1.015625 -0.789062 1.140625 -0.96875 C 1.273438 -1.15625 1.375 -1.382812 1.4375 -1.65625 C 1.507812 -1.925781 1.578125 -2.191406 1.640625 -2.453125 C 1.691406 -2.734375 1.757812 -3.144531 1.84375 -3.6875 C 1.9375 -4.226562 2.03125 -4.859375 2.125 -5.578125 C 2.226562 -6.304688 2.332031 -7.082031 2.4375 -7.90625 L 6.765625 -7.90625 Z M 6.765625 0 "/></g></g></g><g fill="#000000" fill-opacity="1"><g transform="translate(275.821869, 239.803415)"><g><path d="M 7.96875 -3.953125 C 7.96875 -3.140625 7.828125 -2.425781 7.546875 -1.8125 C 7.273438 -1.207031 6.867188 -0.734375 6.328125 -0.390625 C 5.785156 -0.0546875 5.117188 0.109375 4.328125 0.109375 C 3.503906 0.109375 2.820312 -0.0546875 2.28125 -0.390625 C 1.738281 -0.734375 1.332031 -1.210938 1.0625 -1.828125 C 0.800781 -2.441406 0.671875 -3.15625 0.671875 -3.96875 C 0.671875 -4.769531 0.800781 -5.472656 1.0625 -6.078125 C 1.332031 -6.691406 1.738281 -7.164062 2.28125 -7.5 C 2.820312 -7.84375 3.507812 -8.015625 4.34375 -8.015625 C 5.125 -8.015625 5.785156 -7.847656 6.328125 -7.515625 C 6.867188 -7.179688 7.273438 -6.707031 7.546875 -6.09375 C 7.828125 -5.488281 7.96875 -4.773438 7.96875 -3.953125 Z M 1.71875 -3.953125 C 1.71875 -2.960938 1.925781 -2.179688 2.34375 -1.609375 C 2.769531 -1.035156 3.429688 -0.75 4.328125 -0.75 C 5.210938 -0.75 5.863281 -1.035156 6.28125 -1.609375 C 6.695312 -2.179688 6.90625 -2.960938 6.90625 -3.953125 C 6.90625 -4.953125 6.695312 -5.734375 6.28125 -6.296875 C 5.875 -6.859375 5.226562 -7.140625 4.34375 -7.140625 C 3.4375 -7.140625 2.769531 -6.859375 2.34375 -6.296875 C 1.925781 -5.734375 1.71875 -4.953125 1.71875 -3.953125 Z M 1.71875 -3.953125 "/></g></g></g><g fill="#000000" fill-opacity="1"><g transform="translate(286.781347, 239.803415)"><g><path d="M 4.453125 -7.140625 C 3.609375 -7.140625 2.941406 -6.851562 2.453125 -6.28125 C 1.960938 -5.71875 1.71875 -4.941406 1.71875 -3.953125 C 1.71875 -2.972656 1.945312 -2.195312 2.40625 -1.625 C 2.863281 -1.050781 3.546875 -0.765625 4.453125 -0.765625 C 4.785156 -0.765625 5.109375 -0.789062 5.421875 -0.84375 C 5.734375 -0.90625 6.039062 -0.984375 6.34375 -1.078125 L 6.34375 -0.203125 C 6.039062 -0.0976562 5.734375 -0.0195312 5.421875 0.03125 C 5.109375 0.0820312 4.734375 0.109375 4.296875 0.109375 C 3.492188 0.109375 2.820312 -0.0546875 2.28125 -0.390625 C 1.75 -0.722656 1.347656 -1.191406 1.078125 -1.796875 C 0.804688 -2.410156 0.671875 -3.128906 0.671875 -3.953125 C 0.671875 -4.753906 0.816406 -5.457031 1.109375 -6.0625 C 1.398438 -6.675781 1.828125 -7.15625 2.390625 -7.5 C 2.960938 -7.84375 3.65625 -8.015625 4.46875 -8.015625 C 5.300781 -8.015625 6.03125 -7.859375 6.65625 -7.546875 L 6.25 -6.703125 C 6.007812 -6.816406 5.738281 -6.914062 5.4375 -7 C 5.132812 -7.09375 4.804688 -7.140625 4.453125 -7.140625 Z M 4.453125 -7.140625 "/></g></g></g><g fill="#000000" fill-opacity="1"><g transform="translate(296.093133, 239.803415)"><g><path d="M 4.453125 -7.140625 C 3.609375 -7.140625 2.941406 -6.851562 2.453125 -6.28125 C 1.960938 -5.71875 1.71875 -4.941406 1.71875 -3.953125 C 1.71875 -2.972656 1.945312 -2.195312 2.40625 -1.625 C 2.863281 -1.050781 3.546875 -0.765625 4.453125 -0.765625 C 4.785156 -0.765625 5.109375 -0.789062 5.421875 -0.84375 C 5.734375 -0.90625 6.039062 -0.984375 6.34375 -1.078125 L 6.34375 -0.203125 C 6.039062 -0.0976562 5.734375 -0.0195312 5.421875 0.03125 C 5.109375 0.0820312 4.734375 0.109375 4.296875 0.109375 C 3.492188 0.109375 2.820312 -0.0546875 2.28125 -0.390625 C 1.75 -0.722656 1.347656 -1.191406 1.078125 -1.796875 C 0.804688 -2.410156 0.671875 -3.128906 0.671875 -3.953125 C 0.671875 -4.753906 0.816406 -5.457031 1.109375 -6.0625 C 1.398438 -6.675781 1.828125 -7.15625 2.390625 -7.5 C 2.960938 -7.84375 3.65625 -8.015625 4.46875 -8.015625 C 5.300781 -8.015625 6.03125 -7.859375 6.65625 -7.546875 L 6.25 -6.703125 C 6.007812 -6.816406 5.738281 -6.914062 5.4375 -7 C 5.132812 -7.09375 4.804688 -7.140625 4.453125 -7.140625 Z M 4.453125 -7.140625 "/></g></g></g><g fill="#000000" fill-opacity="1"><g transform="translate(305.404919, 239.803415)"><g><path d="M 3.453125 -3.28125 L 1.40625 0 L 0.25 0 L 2.453125 -3.453125 C 2.171875 -3.535156 1.90625 -3.660156 1.65625 -3.828125 C 1.414062 -4.003906 1.21875 -4.238281 1.0625 -4.53125 C 0.90625 -4.832031 0.828125 -5.21875 0.828125 -5.6875 C 0.828125 -6.40625 1.070312 -6.953125 1.5625 -7.328125 C 2.050781 -7.710938 2.789062 -7.90625 3.78125 -7.90625 L 6 -7.90625 L 6 0 L 5 0 L 5 -3.28125 Z M 5 -7.046875 L 3.8125 -7.046875 C 3.175781 -7.046875 2.691406 -6.9375 2.359375 -6.71875 C 2.023438 -6.5 1.859375 -6.140625 1.859375 -5.640625 C 1.859375 -5.148438 2.019531 -4.769531 2.34375 -4.5 C 2.664062 -4.238281 3.164062 -4.109375 3.84375 -4.109375 L 5 -4.109375 Z M 5 -7.046875 "/></g></g></g><g fill="#000000" fill-opacity="1"><g transform="translate(314.794115, 239.803415)"><g><path d="M 4.5625 0 L 1.953125 -6.921875 L 1.90625 -6.921875 C 1.9375 -6.691406 1.957031 -6.382812 1.96875 -6 C 1.976562 -5.613281 1.984375 -5.210938 1.984375 -4.796875 L 1.984375 0 L 1.078125 0 L 1.078125 -7.90625 L 2.546875 -7.90625 L 4.984375 -1.421875 L 5.015625 -1.421875 L 7.5 -7.90625 L 8.953125 -7.90625 L 8.953125 0 L 7.96875 0 L 7.96875 -4.859375 C 7.96875 -5.242188 7.976562 -5.625 8 -6 C 8.019531 -6.375 8.035156 -6.675781 8.046875 -6.90625 L 8.015625 -6.90625 L 5.375 0 Z M 4.5625 0 "/></g></g></g><g fill="#000000" fill-opacity="1"><g transform="translate(25.892462, 221.169201)"><g><path d="M 2.167969 0 L 9.664062 0 C 19.09375 0 22.167969 -4.65625 22.089844 -8.875 C 22.050781 -12.664062 19.722656 -16.054688 13.371094 -16.488281 C 17.355469 -17.277344 19.132812 -19.722656 19.132812 -22.40625 C 19.132812 -25.601562 16.488281 -27.613281 10.847656 -27.613281 L 2.167969 -27.613281 L 2.167969 -27.179688 C 3.273438 -26.902344 3.746094 -26.234375 3.746094 -22.601562 L 3.746094 -5.011719 C 3.746094 -1.378906 3.273438 -0.710938 2.167969 -0.433594 Z M 5.957031 -3.984375 L 5.957031 -15.976562 L 11.28125 -15.976562 C 17.238281 -15.976562 19.644531 -12.703125 19.644531 -8.363281 C 19.644531 -3.785156 17.277344 -0.550781 10.019531 -0.550781 L 8.007812 -0.550781 C 6.3125 -0.550781 5.957031 -1.144531 5.957031 -3.984375 Z M 5.957031 -16.488281 L 5.957031 -27.101562 L 10.453125 -27.101562 C 14.59375 -27.101562 16.6875 -25.007812 16.6875 -21.894531 C 16.6875 -18.894531 14.832031 -16.488281 9.824219 -16.488281 Z M 5.957031 -16.488281 "/></g></g></g><g fill="#000000" fill-opacity="1"><g transform="translate(49.676833, 221.169201)"><g><path d="M 11.007812 0.394531 C 14.832031 0.394531 17.871094 -2.011719 20.078125 -4.773438 L 19.761719 -5.089844 C 17.75 -2.800781 15.660156 -1.339844 12.464844 -1.339844 C 7.257812 -1.339844 3.628906 -5.050781 3.628906 -10.769531 C 3.628906 -11.597656 3.707031 -12.386719 3.867188 -13.136719 L 19.722656 -13.136719 C 19.527344 -17.199219 16.566406 -20 12.03125 -20 C 6.074219 -20 1.617188 -15.542969 1.617188 -9.429688 C 1.617188 -2.800781 6.667969 0.394531 11.007812 0.394531 Z M 3.945312 -13.609375 C 4.8125 -17.121094 7.257812 -19.328125 10.652344 -19.328125 C 15.1875 -19.328125 17.199219 -15.582031 17.515625 -13.609375 Z M 3.945312 -13.609375 "/></g></g></g><g fill="#000000" fill-opacity="1"><g transform="translate(71.489045, 221.169201)"><g><path d="M 16.921875 0 L 19.761719 0 L 19.761719 -0.433594 C 18.660156 -0.710938 18.183594 -1.378906 18.183594 -5.011719 L 18.183594 -13.214844 C 18.183594 -17.277344 16.054688 -20 11.28125 -20 C 8.007812 -20 5.285156 -18.460938 2.996094 -15.542969 L 3.351562 -15.265625 C 5.246094 -17.710938 7.691406 -18.972656 10.21875 -18.972656 C 14.003906 -18.972656 15.859375 -16.960938 16.09375 -13.136719 L 10.257812 -11.597656 C 5.71875 -10.414062 1.578125 -8.914062 1.578125 -4.773438 C 1.578125 -1.300781 4.339844 0.394531 7.296875 0.394531 C 11.007812 0.394531 14.792969 -3.195312 16.132812 -8.324219 L 16.132812 -0.789062 C 16.132812 -0.277344 16.410156 0 16.921875 0 Z M 3.746094 -5.5625 C 3.707031 -8.757812 6.273438 -10.058594 10.414062 -11.164062 L 16.132812 -12.664062 L 16.132812 -11.28125 C 16.09375 -6.546875 12.820312 -1.339844 8.207031 -1.339844 C 5.484375 -1.339844 3.785156 -3.039062 3.746094 -5.5625 Z M 3.746094 -5.5625 "/></g></g></g><g fill="#000000" fill-opacity="1"><g transform="translate(92.827935, 221.169201)"><g><path d="M 8.953125 0.355469 C 12.347656 0.355469 15.109375 -1.933594 16.882812 -3.867188 L 16.882812 -1.578125 C 16.882812 -0.277344 17.160156 0 17.871094 0 L 20.511719 0 L 20.511719 -0.433594 C 19.40625 -0.710938 18.933594 -1.378906 18.933594 -5.011719 L 18.933594 -19.761719 L 18.660156 -20 L 15.304688 -18.539062 L 15.304688 -18.183594 C 16.488281 -17.671875 16.882812 -17.316406 16.882812 -14.082031 L 16.882812 -4.574219 C 15.304688 -2.722656 12.976562 -0.789062 10.019531 -0.789062 C 6.707031 -0.789062 4.8125 -2.683594 4.8125 -7.496094 L 4.8125 -19.761719 L 4.535156 -20 L 1.183594 -18.539062 L 1.183594 -18.183594 C 2.367188 -17.671875 2.761719 -17.316406 2.761719 -14.082031 L 2.761719 -6.585938 C 2.761719 -2.367188 4.851562 0.355469 8.953125 0.355469 Z M 8.953125 0.355469 "/></g></g></g><g fill="#000000" fill-opacity="1"><g transform="translate(115.389567, 221.169201)"><g><path d="M 7.535156 0.394531 C 9.742188 0.394531 11.835938 -1.421875 13.058594 -2.878906 L 12.742188 -3.195312 C 11.441406 -1.695312 10.019531 -1.027344 8.640625 -1.027344 C 6.980469 -1.027344 5.679688 -2.011719 5.679688 -4.96875 L 5.679688 -19.25 L 11.359375 -19.25 L 11.597656 -19.722656 L 5.679688 -19.722656 L 5.679688 -24.179688 L 5.246094 -24.179688 L 1.105469 -19.722656 L 1.105469 -19.25 L 3.628906 -19.25 L 3.628906 -4.890625 C 3.628906 -0.945312 5.246094 0.394531 7.535156 0.394531 Z M 7.535156 0.394531 "/></g></g></g><g fill="#000000" fill-opacity="1"><g transform="translate(128.879264, 221.169201)"><g><path d="M 0.90625 7.613281 C 2.289062 7.613281 6.46875 7.851562 10.21875 -0.789062 L 16.449219 -15.109375 C 17.871094 -18.460938 18.855469 -19.015625 19.84375 -19.289062 L 19.84375 -19.722656 L 15.621094 -19.722656 L 15.621094 -19.289062 C 17 -19.015625 16.960938 -17.59375 15.898438 -15.109375 L 10.53125 -2.722656 L 5.363281 -15.109375 C 3.945312 -18.460938 3.90625 -19.015625 5.011719 -19.289062 L 5.011719 -19.722656 L 0.117188 -19.722656 L 0.117188 -19.289062 C 0.90625 -19.015625 1.734375 -18.460938 3.15625 -15.109375 L 9.386719 -0.078125 C 8.285156 2.25 6.746094 4.65625 4.929688 5.957031 C 3.390625 5.679688 1.300781 4.890625 0.355469 4.890625 C -0.632812 4.890625 -1.539062 5.957031 -1.539062 6.667969 C -1.539062 7.140625 -0.511719 7.613281 0.90625 7.613281 Z M 0.90625 7.613281 "/></g></g></g><g fill="#000000" fill-opacity="1"><g transform="translate(149.192629, 221.169201)"><g/></g></g><g fill="#000000" fill-opacity="1"><g transform="translate(158.343575, 221.169201)"><g><path d="M 16.449219 0.394531 C 20.433594 0.394531 24.96875 -0.867188 26.628906 -1.972656 L 27.257812 -6.546875 L 26.863281 -6.585938 C 25.207031 -2.167969 21.617188 -0.316406 17.515625 -0.316406 C 8.71875 -0.316406 4.261719 -7.535156 4.300781 -14.675781 C 4.378906 -22.957031 9.625 -27.101562 15.859375 -27.101562 C 21.261719 -27.101562 24.617188 -24.8125 26.074219 -21.695312 L 26.390625 -21.773438 L 26.234375 -25.878906 C 25.246094 -26.429688 21.421875 -27.890625 17.554688 -27.890625 C 8.679688 -27.890625 1.972656 -22.050781 1.972656 -13.175781 C 1.972656 -4.851562 7.769531 0.394531 16.449219 0.394531 Z M 16.449219 0.394531 "/></g></g></g><g fill="#000000" fill-opacity="1"><g transform="translate(187.649983, 221.169201)"><g><path d="M 11.753906 0.394531 C 16.410156 0.394531 21.855469 -3.039062 21.855469 -9.78125 C 21.855469 -16.84375 16.648438 -20 11.753906 -20 C 6.351562 -20 1.617188 -15.777344 1.617188 -9.824219 C 1.617188 -2.800781 6.863281 0.394531 11.753906 0.394531 Z M 3.667969 -11.320312 C 3.667969 -15.898438 6.234375 -19.328125 10.886719 -19.328125 C 16.171875 -19.328125 19.921875 -13.371094 19.921875 -8.207031 C 19.921875 -3.785156 17.316406 -0.355469 12.742188 -0.355469 C 7.457031 -0.355469 3.667969 -5.917969 3.667969 -11.320312 Z M 3.667969 -11.320312 "/></g></g></g><g fill="#000000" fill-opacity="1"><g transform="translate(211.749893, 221.169201)"><g><path d="M 9.113281 0.394531 C 12.820312 0.355469 15.9375 -1.816406 15.9375 -5.523438 C 15.9375 -9.347656 12.109375 -10.21875 9.269531 -11.125 C 6.667969 -11.953125 3.550781 -13.058594 3.550781 -15.898438 C 3.550781 -18.226562 5.40625 -19.527344 8.285156 -19.527344 C 11.007812 -19.527344 13.609375 -17.988281 14.792969 -15.070312 L 15.109375 -15.148438 L 14.949219 -18.855469 C 13.847656 -19.328125 11.675781 -20 8.757812 -20 C 5.050781 -20 2.089844 -17.988281 2.089844 -14.753906 C 2.089844 -11.085938 4.929688 -10.21875 8.207031 -9.113281 C 10.847656 -8.207031 14.4375 -7.417969 14.4375 -4.222656 C 14.4375 -1.539062 12.386719 -0.238281 9.902344 -0.238281 C 6.273438 -0.238281 3.472656 -2.128906 1.894531 -5.839844 L 1.578125 -5.757812 L 1.855469 -1.339844 C 2.957031 -0.632812 5.640625 0.433594 9.113281 0.394531 Z M 9.113281 0.394531 "/></g></g></g><g fill="#000000" fill-opacity="1"><g transform="translate(229.617799, 221.169201)"><g><path d="M 1.460938 0 L 6.667969 0 L 6.667969 -0.433594 C 5.5625 -0.710938 5.089844 -1.378906 5.089844 -5.011719 L 5.089844 -15.859375 C 7.21875 -17.476562 9.703125 -18.972656 12.269531 -18.972656 C 15.464844 -18.972656 17.238281 -17 17.238281 -12.703125 L 17.238281 -5.011719 C 17.238281 -1.378906 16.765625 -0.710938 15.660156 -0.433594 L 15.660156 0 L 20.867188 0 L 20.867188 -0.433594 C 19.761719 -0.710938 19.289062 -1.378906 19.289062 -5.011719 L 19.289062 -13.414062 C 19.289062 -14.242188 19.210938 -14.988281 19.054688 -15.699219 C 21.261719 -17.394531 23.785156 -18.972656 26.46875 -18.972656 C 29.664062 -18.972656 31.441406 -17 31.441406 -12.703125 L 31.441406 -5.011719 C 31.441406 -1.378906 30.964844 -0.710938 29.863281 -0.433594 L 29.863281 0 L 35.070312 0 L 35.070312 -0.433594 C 33.964844 -0.710938 33.492188 -1.378906 33.492188 -5.011719 L 33.492188 -13.414062 C 33.492188 -17.671875 31.597656 -20 27.535156 -20 C 24.8125 -20 21.578125 -18.226562 18.972656 -16.132812 C 18.265625 -18.660156 16.410156 -20 13.332031 -20 C 10.730469 -20 7.652344 -18.34375 5.089844 -16.410156 L 5.089844 -19.761719 L 4.8125 -20 L 1.460938 -18.539062 L 1.460938 -18.183594 C 2.644531 -17.671875 3.039062 -17.316406 3.039062 -14.082031 L 3.039062 -5.011719 C 3.039062 -1.378906 2.5625 -0.710938 1.460938 -0.433594 Z M 1.460938 0 "/></g></g></g><g fill="#000000" fill-opacity="1"><g transform="translate(266.260646, 221.169201)"><g><path d="M 11.007812 0.394531 C 14.832031 0.394531 17.871094 -2.011719 20.078125 -4.773438 L 19.761719 -5.089844 C 17.75 -2.800781 15.660156 -1.339844 12.464844 -1.339844 C 7.257812 -1.339844 3.628906 -5.050781 3.628906 -10.769531 C 3.628906 -11.597656 3.707031 -12.386719 3.867188 -13.136719 L 19.722656 -13.136719 C 19.527344 -17.199219 16.566406 -20 12.03125 -20 C 6.074219 -20 1.617188 -15.542969 1.617188 -9.429688 C 1.617188 -2.800781 6.667969 0.394531 11.007812 0.394531 Z M 3.945312 -13.609375 C 4.8125 -17.121094 7.257812 -19.328125 10.652344 -19.328125 C 15.1875 -19.328125 17.199219 -15.582031 17.515625 -13.609375 Z M 3.945312 -13.609375 "/></g></g></g><g fill="#000000" fill-opacity="1"><g transform="translate(288.072855, 221.169201)"><g><path d="M 7.535156 0.394531 C 9.742188 0.394531 11.835938 -1.421875 13.058594 -2.878906 L 12.742188 -3.195312 C 11.441406 -1.695312 10.019531 -1.027344 8.640625 -1.027344 C 6.980469 -1.027344 5.679688 -2.011719 5.679688 -4.96875 L 5.679688 -19.25 L 11.359375 -19.25 L 11.597656 -19.722656 L 5.679688 -19.722656 L 5.679688 -24.179688 L 5.246094 -24.179688 L 1.105469 -19.722656 L 1.105469 -19.25 L 3.628906 -19.25 L 3.628906 -4.890625 C 3.628906 -0.945312 5.246094 0.394531 7.535156 0.394531 Z M 7.535156 0.394531 "/></g></g></g><g fill="#000000" fill-opacity="1"><g transform="translate(301.562552, 221.169201)"><g><path d="M 1.460938 0 L 6.667969 0 L 6.667969 -0.433594 C 5.5625 -0.710938 5.089844 -1.378906 5.089844 -5.011719 L 5.089844 -19.761719 L 4.8125 -20 L 1.460938 -18.539062 L 1.460938 -18.183594 C 2.644531 -17.671875 3.039062 -17.316406 3.039062 -14.082031 L 3.039062 -5.011719 C 3.039062 -1.378906 2.5625 -0.710938 1.460938 -0.433594 Z M 2.210938 -25.207031 C 2.210938 -24.300781 2.917969 -23.589844 3.828125 -23.589844 C 4.734375 -23.589844 5.445312 -24.300781 5.445312 -25.207031 C 5.445312 -26.113281 4.773438 -26.824219 3.828125 -26.824219 C 2.917969 -26.824219 2.210938 -26.113281 2.210938 -25.207031 Z M 2.210938 -25.207031 "/></g></g></g><g fill="#000000" fill-opacity="1"><g transform="translate(310.279619, 221.169201)"><g><path d="M 11.007812 0.394531 C 14.832031 0.394531 17.871094 -2.011719 20.078125 -4.773438 L 19.761719 -5.089844 C 17.75 -2.800781 15.660156 -1.339844 12.464844 -1.339844 C 7.257812 -1.339844 3.628906 -5.050781 3.628906 -10.769531 C 3.628906 -15.542969 6.46875 -18.621094 10.335938 -19.40625 C 13.6875 -17.394531 15.582031 -16.332031 16.449219 -16.332031 C 17.789062 -16.332031 18.699219 -17.394531 18.699219 -17.988281 C 18.699219 -19.054688 15.738281 -20 12.464844 -20 C 6.46875 -20 1.617188 -15.226562 1.617188 -9.429688 C 1.617188 -2.800781 6.667969 0.394531 11.007812 0.394531 Z M 11.007812 0.394531 "/></g></g></g><g fill="#000000" fill-opacity="1"><g transform="translate(331.697395, 221.169201)"><g><path d="M 9.113281 0.394531 C 12.820312 0.355469 15.9375 -1.816406 15.9375 -5.523438 C 15.9375 -9.347656 12.109375 -10.21875 9.269531 -11.125 C 6.667969 -11.953125 3.550781 -13.058594 3.550781 -15.898438 C 3.550781 -18.226562 5.40625 -19.527344 8.285156 -19.527344 C 11.007812 -19.527344 13.609375 -17.988281 14.792969 -15.070312 L 15.109375 -15.148438 L 14.949219 -18.855469 C 13.847656 -19.328125 11.675781 -20 8.757812 -20 C 5.050781 -20 2.089844 -17.988281 2.089844 -14.753906 C 2.089844 -11.085938 4.929688 -10.21875 8.207031 -9.113281 C 10.847656 -8.207031 14.4375 -7.417969 14.4375 -4.222656 C 14.4375 -1.539062 12.386719 -0.238281 9.902344 -0.238281 C 6.273438 -0.238281 3.472656 -2.128906 1.894531 -5.839844 L 1.578125 -5.757812 L 1.855469 -1.339844 C 2.957031 -0.632812 5.640625 0.433594 9.113281 0.394531 Z M 9.113281 0.394531 "/></g></g></g></svg>