<svg xmlns="http://www.w3.org/2000/svg" xmlns:xlink="http://www.w3.org/1999/xlink" width="500" zoomAndPan="magnify" viewBox="0 0 375 374.999991" height="500" preserveAspectRatio="xMidYMid meet" version="1.0"><defs><g/><clipPath id="06f5bdf579"><path d="M 29.734375 145.597656 L 90.484375 145.597656 L 90.484375 206.347656 L 29.734375 206.347656 Z M 29.734375 145.597656 " clip-rule="nonzero"/></clipPath></defs><g clip-path="url(#06f5bdf579)"><path fill="#000000" d="M 46.714844 168.738281 C 47.5 169.921875 47.910156 171.308594 47.933594 172.867188 C 46.503906 172.242188 45.382812 171.332031 44.59375 170.148438 C 43.808594 168.964844 43.398438 167.578125 43.375 166.019531 C 44.804688 166.640625 45.925781 167.554688 46.714844 168.738281 Z M 48.238281 174.023438 C 48.289062 174.039062 48.34375 174.050781 48.398438 174.050781 C 48.492188 174.050781 48.585938 174.023438 48.664062 173.96875 C 48.792969 173.886719 48.871094 173.746094 48.878906 173.59375 C 48.992188 171.546875 48.53125 169.734375 47.515625 168.203125 C 46.5 166.675781 45.003906 165.550781 43.070312 164.863281 C 42.929688 164.8125 42.769531 164.832031 42.644531 164.917969 C 42.515625 165 42.4375 165.140625 42.429688 165.292969 C 42.316406 167.339844 42.777344 169.152344 43.792969 170.679688 C 44.808594 172.210938 46.304688 173.332031 48.238281 174.023438 Z M 73.28125 168.738281 C 74.066406 167.554688 75.1875 166.640625 76.617188 166.019531 C 76.597656 167.578125 76.1875 168.964844 75.398438 170.148438 C 74.613281 171.332031 73.492188 172.242188 72.0625 172.867188 C 72.085938 171.308594 72.492188 169.921875 73.28125 168.738281 Z M 71.328125 173.96875 C 71.410156 174.023438 71.503906 174.050781 71.597656 174.050781 C 71.652344 174.050781 71.703125 174.039062 71.757812 174.023438 C 73.691406 173.332031 75.183594 172.210938 76.203125 170.679688 C 77.21875 169.152344 77.675781 167.339844 77.566406 165.292969 C 77.558594 165.140625 77.476562 165 77.351562 164.917969 C 77.222656 164.832031 77.066406 164.8125 76.921875 164.863281 C 74.992188 165.550781 73.496094 166.675781 72.480469 168.203125 C 71.460938 169.734375 71.003906 171.546875 71.117188 173.59375 C 71.125 173.746094 71.203125 173.886719 71.328125 173.96875 Z M 56.132812 198.34375 C 56.136719 198.332031 56.136719 198.324219 56.136719 198.3125 C 56.148438 198.167969 56.160156 198.019531 56.175781 197.875 C 56.242188 197.144531 56.320312 196.4375 56.414062 195.75 C 56.460938 195.40625 56.507812 195.066406 56.5625 194.734375 C 56.589844 194.566406 56.617188 194.402344 56.644531 194.238281 C 56.734375 193.710938 56.835938 193.195312 56.945312 192.695312 C 57.375 190.703125 57.945312 188.917969 58.664062 187.320312 C 58.667969 187.308594 58.675781 187.292969 58.683594 187.28125 C 58.992188 186.597656 59.324219 185.949219 59.6875 185.335938 C 59.914062 184.953125 60.148438 184.582031 60.394531 184.226562 C 60.523438 184.035156 60.65625 183.851562 60.792969 183.667969 C 62.835938 180.941406 65.492188 179.082031 69.105469 177.851562 C 69.191406 177.820312 69.28125 177.789062 69.367188 177.761719 C 71.839844 176.945312 74.371094 176.535156 76.816406 176.136719 C 79.421875 175.710938 81.789062 175.324219 83.714844 174.523438 C 82.652344 176.320312 81.949219 178.609375 81.167969 181.132812 C 78.949219 188.320312 76.4375 196.464844 64.300781 198.28125 C 64.261719 198.285156 64.222656 198.292969 64.167969 198.300781 C 64.019531 198.320312 63.867188 198.34375 63.71875 198.363281 C 62.550781 198.515625 61.300781 198.605469 59.996094 198.632812 C 58.816406 198.609375 57.675781 198.53125 56.601562 198.402344 C 56.449219 198.386719 56.292969 198.363281 56.132812 198.34375 Z M 38.824219 181.132812 C 38.046875 178.609375 37.339844 176.320312 36.28125 174.523438 C 38.207031 175.324219 40.570312 175.710938 43.175781 176.136719 C 45.601562 176.53125 48.109375 176.9375 50.566406 177.742188 C 50.675781 177.777344 50.78125 177.8125 50.894531 177.851562 C 51.128906 177.929688 51.363281 178.015625 51.589844 178.101562 C 51.667969 178.128906 51.742188 178.160156 51.816406 178.191406 C 51.96875 178.25 52.121094 178.308594 52.265625 178.371094 C 52.355469 178.40625 52.4375 178.445312 52.523438 178.480469 C 52.65625 178.539062 52.789062 178.59375 52.917969 178.65625 C 53.007812 178.695312 53.097656 178.738281 53.183594 178.78125 C 53.304688 178.839844 53.429688 178.898438 53.546875 178.957031 C 53.636719 179.003906 53.722656 179.050781 53.8125 179.097656 C 53.925781 179.15625 54.042969 179.214844 54.152344 179.277344 C 54.242188 179.328125 54.328125 179.378906 54.414062 179.429688 C 54.523438 179.492188 54.632812 179.550781 54.738281 179.617188 C 54.824219 179.667969 54.910156 179.722656 54.996094 179.777344 C 55.097656 179.84375 55.199219 179.90625 55.300781 179.972656 C 55.386719 180.03125 55.46875 180.085938 55.550781 180.144531 C 55.648438 180.210938 55.75 180.28125 55.84375 180.351562 C 55.925781 180.410156 56.007812 180.472656 56.085938 180.53125 C 56.179688 180.601562 56.273438 180.671875 56.367188 180.746094 C 56.445312 180.808594 56.523438 180.875 56.601562 180.9375 C 56.691406 181.011719 56.78125 181.085938 56.871094 181.160156 C 56.945312 181.226562 57.023438 181.296875 57.097656 181.363281 C 57.183594 181.441406 57.269531 181.519531 57.355469 181.597656 C 57.429688 181.667969 57.5 181.738281 57.574219 181.8125 C 57.65625 181.890625 57.738281 181.972656 57.820312 182.054688 C 57.890625 182.128906 57.960938 182.203125 58.03125 182.277344 C 58.113281 182.363281 58.191406 182.445312 58.265625 182.53125 C 58.335938 182.609375 58.40625 182.6875 58.472656 182.765625 C 58.546875 182.855469 58.625 182.941406 58.695312 183.03125 C 58.765625 183.113281 58.832031 183.195312 58.898438 183.277344 C 58.96875 183.367188 59.039062 183.460938 59.109375 183.550781 C 59.175781 183.636719 59.238281 183.722656 59.304688 183.8125 C 59.339844 183.859375 59.375 183.910156 59.410156 183.960938 C 59.40625 183.964844 59.40625 183.96875 59.402344 183.972656 C 59.269531 184.171875 59.144531 184.371094 59.019531 184.578125 C 59.007812 184.597656 58.992188 184.617188 58.980469 184.640625 C 58.859375 184.84375 58.738281 185.046875 58.621094 185.257812 C 58.609375 185.28125 58.59375 185.308594 58.578125 185.332031 C 58.464844 185.539062 58.355469 185.75 58.246094 185.964844 C 58.230469 185.992188 58.214844 186.023438 58.203125 186.050781 C 58.09375 186.265625 57.992188 186.480469 57.890625 186.699219 C 57.875 186.730469 57.859375 186.761719 57.84375 186.796875 C 57.746094 187.015625 57.648438 187.238281 57.554688 187.460938 C 57.539062 187.496094 57.523438 187.53125 57.511719 187.566406 C 57.417969 187.792969 57.328125 188.019531 57.238281 188.253906 C 57.226562 188.289062 57.210938 188.328125 57.199219 188.363281 C 57.109375 188.597656 57.027344 188.832031 56.945312 189.074219 C 56.929688 189.109375 56.917969 189.148438 56.90625 189.1875 C 56.824219 189.429688 56.746094 189.671875 56.671875 189.921875 C 56.660156 189.960938 56.648438 190 56.636719 190.039062 C 56.558594 190.289062 56.488281 190.542969 56.417969 190.800781 C 56.40625 190.839844 56.394531 190.878906 56.386719 190.917969 C 56.316406 191.175781 56.25 191.4375 56.183594 191.707031 C 56.175781 191.746094 56.164062 191.785156 56.15625 191.820312 C 56.09375 192.09375 56.03125 192.367188 55.972656 192.644531 C 55.964844 192.679688 55.957031 192.714844 55.949219 192.753906 C 55.890625 193.035156 55.832031 193.320312 55.78125 193.609375 C 55.773438 193.644531 55.769531 193.675781 55.761719 193.710938 C 55.707031 194.007812 55.65625 194.304688 55.609375 194.609375 C 55.605469 194.636719 55.601562 194.664062 55.59375 194.691406 C 55.546875 195.003906 55.5 195.316406 55.457031 195.636719 C 55.453125 195.65625 55.453125 195.679688 55.449219 195.703125 C 55.40625 196.03125 55.363281 196.359375 55.328125 196.695312 C 55.324219 196.707031 55.324219 196.722656 55.324219 196.734375 C 55.285156 197.078125 55.25 197.429688 55.214844 197.785156 C 55.203125 197.921875 55.191406 198.058594 55.179688 198.191406 C 55.179688 198.195312 55.179688 198.195312 55.179688 198.199219 C 43.488281 196.234375 41.011719 188.21875 38.824219 181.132812 Z M 59.996094 165.429688 C 63.929688 167.953125 66.953125 172.167969 68.363281 177.089844 C 68.304688 177.113281 68.25 177.132812 68.195312 177.15625 C 68.09375 177.191406 67.996094 177.230469 67.898438 177.265625 C 67.765625 177.320312 67.632812 177.371094 67.5 177.425781 C 67.40625 177.464844 67.308594 177.503906 67.214844 177.546875 C 67.085938 177.601562 66.953125 177.660156 66.824219 177.71875 C 66.734375 177.757812 66.644531 177.800781 66.554688 177.839844 C 66.421875 177.902344 66.292969 177.96875 66.164062 178.03125 C 66.082031 178.074219 65.996094 178.113281 65.917969 178.15625 C 65.773438 178.226562 65.636719 178.304688 65.496094 178.378906 C 65.429688 178.414062 65.363281 178.449219 65.296875 178.488281 C 65.097656 178.601562 64.902344 178.714844 64.707031 178.832031 C 64.703125 178.835938 64.703125 178.835938 64.699219 178.835938 C 64.503906 178.957031 64.3125 179.082031 64.121094 179.207031 C 64.0625 179.25 64.007812 179.289062 63.949219 179.328125 C 63.820312 179.417969 63.691406 179.507812 63.5625 179.597656 C 63.496094 179.648438 63.425781 179.703125 63.355469 179.753906 C 63.246094 179.835938 63.132812 179.921875 63.027344 180.007812 C 62.953125 180.066406 62.882812 180.125 62.8125 180.183594 C 62.707031 180.265625 62.605469 180.351562 62.503906 180.4375 C 62.433594 180.5 62.363281 180.5625 62.292969 180.625 C 62.195312 180.710938 62.097656 180.796875 62.003906 180.886719 C 61.933594 180.953125 61.863281 181.019531 61.796875 181.082031 C 61.703125 181.175781 61.609375 181.265625 61.519531 181.359375 C 61.453125 181.425781 61.386719 181.492188 61.320312 181.5625 C 61.230469 181.65625 61.140625 181.753906 61.050781 181.855469 C 60.988281 181.921875 60.925781 181.988281 60.863281 182.058594 C 60.773438 182.164062 60.679688 182.269531 60.59375 182.378906 C 60.539062 182.445312 60.480469 182.507812 60.425781 182.574219 C 60.324219 182.703125 60.222656 182.832031 60.125 182.964844 C 60.085938 183.011719 60.046875 183.0625 60.007812 183.113281 C 60.003906 183.117188 60 183.121094 59.996094 183.125 C 59.992188 183.121094 59.988281 183.117188 59.984375 183.109375 C 59.949219 183.0625 59.914062 183.019531 59.878906 182.972656 C 59.773438 182.839844 59.671875 182.703125 59.566406 182.574219 C 59.511719 182.511719 59.460938 182.445312 59.40625 182.382812 C 59.3125 182.273438 59.222656 182.164062 59.128906 182.058594 C 59.070312 181.992188 59.007812 181.921875 58.945312 181.855469 C 58.855469 181.757812 58.765625 181.660156 58.675781 181.5625 C 58.609375 181.496094 58.542969 181.425781 58.476562 181.359375 C 58.382812 181.265625 58.292969 181.175781 58.199219 181.085938 C 58.128906 181.019531 58.058594 180.953125 57.988281 180.886719 C 57.894531 180.800781 57.800781 180.710938 57.707031 180.628906 C 57.632812 180.5625 57.5625 180.5 57.488281 180.4375 C 57.390625 180.351562 57.289062 180.269531 57.1875 180.1875 C 57.117188 180.128906 57.042969 180.066406 56.96875 180.007812 C 56.863281 179.921875 56.753906 179.84375 56.648438 179.761719 C 56.574219 179.707031 56.503906 179.652344 56.429688 179.597656 C 56.308594 179.511719 56.1875 179.425781 56.066406 179.34375 C 56 179.296875 55.9375 179.25 55.871094 179.207031 C 55.6875 179.085938 55.503906 178.96875 55.316406 178.851562 C 55.289062 178.835938 55.261719 178.820312 55.234375 178.800781 C 55.058594 178.695312 54.882812 178.589844 54.703125 178.488281 C 54.628906 178.449219 54.550781 178.410156 54.476562 178.367188 C 54.347656 178.296875 54.214844 178.226562 54.082031 178.15625 C 53.996094 178.113281 53.910156 178.070312 53.820312 178.027344 C 53.695312 177.964844 53.570312 177.902344 53.445312 177.84375 C 53.351562 177.800781 53.257812 177.757812 53.164062 177.714844 C 53.039062 177.65625 52.910156 177.601562 52.785156 177.546875 C 52.6875 177.503906 52.589844 177.464844 52.488281 177.421875 C 52.359375 177.371094 52.230469 177.320312 52.101562 177.269531 C 52 177.230469 51.898438 177.191406 51.800781 177.152344 C 51.742188 177.132812 51.6875 177.109375 51.632812 177.089844 C 53.042969 172.167969 56.066406 167.953125 59.996094 165.429688 Z M 81.398438 154.460938 C 75.679688 148.746094 68.082031 145.597656 59.996094 145.597656 C 51.914062 145.597656 44.3125 148.746094 38.597656 154.460938 C 32.882812 160.175781 29.734375 167.777344 29.734375 175.859375 C 29.734375 183.039062 32.292969 190 36.9375 195.460938 C 41.53125 200.859375 47.882812 204.488281 54.828125 205.683594 C 55.09375 205.730469 55.339844 205.554688 55.386719 205.292969 C 55.429688 205.03125 55.253906 204.78125 54.992188 204.738281 C 40.914062 202.316406 30.695312 190.171875 30.695312 175.859375 C 30.695312 159.703125 43.839844 146.558594 59.996094 146.558594 C 76.152344 146.558594 89.296875 159.703125 89.296875 175.859375 C 89.296875 191.855469 76.414062 204.898438 60.476562 205.15625 L 60.476562 199.582031 C 61.652344 199.542969 62.78125 199.453125 63.84375 199.316406 C 64 199.296875 64.160156 199.273438 64.300781 199.253906 C 64.351562 199.246094 64.398438 199.238281 64.445312 199.230469 C 77.175781 197.328125 79.898438 188.503906 82.089844 181.417969 C 83.183594 177.863281 84.132812 174.796875 86.085938 173.097656 C 86.285156 172.921875 86.308594 172.617188 86.132812 172.417969 C 85.957031 172.214844 85.652344 172.195312 85.453125 172.371094 C 83.496094 174.070312 80.328125 174.589844 76.660156 175.183594 C 74.246094 175.578125 71.75 175.988281 69.273438 176.78125 C 67.761719 171.546875 64.496094 167.070312 60.25 164.453125 C 60.09375 164.355469 59.898438 164.355469 59.746094 164.453125 C 55.5 167.070312 52.230469 171.542969 50.71875 176.78125 C 48.242188 175.984375 45.746094 175.578125 43.332031 175.183594 C 39.664062 174.589844 36.496094 174.070312 34.542969 172.371094 C 34.542969 172.371094 34.542969 172.371094 34.539062 172.371094 C 34.339844 172.195312 34.035156 172.214844 33.863281 172.417969 C 33.6875 172.617188 33.707031 172.921875 33.910156 173.097656 C 35.863281 174.796875 36.808594 177.863281 37.90625 181.417969 C 40.09375 188.503906 42.816406 197.324219 55.542969 199.230469 L 55.679688 199.25 C 55.964844 199.292969 56.226562 199.328125 56.488281 199.359375 C 57.453125 199.472656 58.46875 199.546875 59.515625 199.582031 L 59.515625 205.644531 C 59.515625 205.875 59.679688 206.070312 59.898438 206.113281 C 59.929688 206.121094 59.964844 206.125 59.996094 206.125 C 68.082031 206.125 75.679688 202.976562 81.398438 197.261719 C 87.113281 191.542969 90.261719 183.945312 90.261719 175.859375 C 90.261719 167.777344 87.113281 160.175781 81.398438 154.460938 " fill-opacity="1" fill-rule="nonzero"/></g><g fill="#000000" fill-opacity="1"><g transform="translate(99.590432, 203.203131)"><g><path d="M 0.96875 0 L 0.96875 -7.1875 L 6.375 -7.1875 L 6.375 0 L 5.46875 0 L 5.46875 -6.390625 L 1.875 -6.390625 L 1.875 0 Z M 0.96875 0 "/></g></g></g><g fill="#000000" fill-opacity="1"><g transform="translate(109.06184, 203.203131)"><g><path d="M 2.875 -7.1875 C 3.8125 -7.1875 4.492188 -7 4.921875 -6.625 C 5.359375 -6.257812 5.578125 -5.742188 5.578125 -5.078125 C 5.578125 -4.679688 5.488281 -4.304688 5.3125 -3.953125 C 5.132812 -3.609375 4.832031 -3.328125 4.40625 -3.109375 C 3.988281 -2.898438 3.421875 -2.796875 2.703125 -2.796875 L 1.875 -2.796875 L 1.875 0 L 0.96875 0 L 0.96875 -7.1875 Z M 2.796875 -6.40625 L 1.875 -6.40625 L 1.875 -3.578125 L 2.609375 -3.578125 C 3.285156 -3.578125 3.789062 -3.6875 4.125 -3.90625 C 4.46875 -4.125 4.640625 -4.5 4.640625 -5.03125 C 4.640625 -5.488281 4.488281 -5.832031 4.1875 -6.0625 C 3.894531 -6.289062 3.429688 -6.40625 2.796875 -6.40625 Z M 2.796875 -6.40625 "/></g></g></g><g fill="#000000" fill-opacity="1"><g transform="translate(117.26511, 203.203131)"><g><path d="M 7.25 -3.609375 C 7.25 -2.859375 7.117188 -2.207031 6.859375 -1.65625 C 6.609375 -1.101562 6.238281 -0.671875 5.75 -0.359375 C 5.257812 -0.0546875 4.65625 0.09375 3.9375 0.09375 C 3.1875 0.09375 2.566406 -0.0546875 2.078125 -0.359375 C 1.585938 -0.671875 1.21875 -1.101562 0.96875 -1.65625 C 0.726562 -2.21875 0.609375 -2.867188 0.609375 -3.609375 C 0.609375 -4.335938 0.726562 -4.976562 0.96875 -5.53125 C 1.21875 -6.09375 1.585938 -6.523438 2.078125 -6.828125 C 2.566406 -7.140625 3.1875 -7.296875 3.9375 -7.296875 C 4.65625 -7.296875 5.257812 -7.140625 5.75 -6.828125 C 6.238281 -6.523438 6.609375 -6.097656 6.859375 -5.546875 C 7.117188 -4.992188 7.25 -4.347656 7.25 -3.609375 Z M 1.5625 -3.609375 C 1.5625 -2.703125 1.753906 -1.988281 2.140625 -1.46875 C 2.523438 -0.945312 3.125 -0.6875 3.9375 -0.6875 C 4.75 -0.6875 5.34375 -0.945312 5.71875 -1.46875 C 6.09375 -1.988281 6.28125 -2.703125 6.28125 -3.609375 C 6.28125 -4.503906 6.09375 -5.207031 5.71875 -5.71875 C 5.34375 -6.238281 4.75 -6.5 3.9375 -6.5 C 3.125 -6.5 2.523438 -6.238281 2.140625 -5.71875 C 1.753906 -5.207031 1.5625 -4.503906 1.5625 -3.609375 Z M 1.5625 -3.609375 "/></g></g></g><g fill="#000000" fill-opacity="1"><g transform="translate(127.239744, 203.203131)"><g><path d="M 4.484375 -7.28125 L 4.484375 -6.40625 C 5.265625 -6.382812 5.878906 -6.253906 6.328125 -6.015625 C 6.773438 -5.773438 7.09375 -5.453125 7.28125 -5.046875 C 7.46875 -4.648438 7.5625 -4.207031 7.5625 -3.71875 C 7.5625 -3.394531 7.515625 -3.070312 7.421875 -2.75 C 7.328125 -2.4375 7.160156 -2.148438 6.921875 -1.890625 C 6.691406 -1.640625 6.378906 -1.429688 5.984375 -1.265625 C 5.585938 -1.109375 5.085938 -1.019531 4.484375 -1 L 4.484375 0.09375 L 3.59375 0.09375 L 3.59375 -1 C 2.976562 -1.019531 2.472656 -1.109375 2.078125 -1.265625 C 1.679688 -1.429688 1.367188 -1.644531 1.140625 -1.90625 C 0.910156 -2.175781 0.75 -2.46875 0.65625 -2.78125 C 0.5625 -3.101562 0.515625 -3.414062 0.515625 -3.71875 C 0.515625 -4.1875 0.609375 -4.625 0.796875 -5.03125 C 0.992188 -5.4375 1.316406 -5.757812 1.765625 -6 C 2.210938 -6.25 2.820312 -6.382812 3.59375 -6.40625 L 3.59375 -7.28125 Z M 3.59375 -5.640625 C 3.050781 -5.617188 2.617188 -5.523438 2.296875 -5.359375 C 1.984375 -5.203125 1.757812 -4.984375 1.625 -4.703125 C 1.488281 -4.421875 1.421875 -4.097656 1.421875 -3.734375 C 1.421875 -3.140625 1.59375 -2.664062 1.9375 -2.3125 C 2.28125 -1.96875 2.832031 -1.78125 3.59375 -1.75 Z M 4.484375 -5.640625 L 4.484375 -1.75 C 5.265625 -1.78125 5.820312 -1.972656 6.15625 -2.328125 C 6.488281 -2.691406 6.65625 -3.160156 6.65625 -3.734375 C 6.65625 -4.117188 6.585938 -4.445312 6.453125 -4.71875 C 6.316406 -5 6.085938 -5.21875 5.765625 -5.375 C 5.453125 -5.53125 5.023438 -5.617188 4.484375 -5.640625 Z M 4.484375 -5.640625 "/></g></g></g><g fill="#000000" fill-opacity="1"><g transform="translate(137.445866, 203.203131)"><g><path d="M 4.984375 0 L 0.96875 0 L 0.96875 -7.1875 L 4.984375 -7.1875 L 4.984375 -6.390625 L 1.875 -6.390625 L 1.875 -4.140625 L 4.8125 -4.140625 L 4.8125 -3.359375 L 1.875 -3.359375 L 1.875 -0.796875 L 4.984375 -0.796875 Z M 4.984375 0 "/></g></g></g><g fill="#000000" fill-opacity="1"><g transform="translate(145.155972, 203.203131)"><g><path d="M 4.0625 -6.484375 C 3.28125 -6.484375 2.664062 -6.222656 2.21875 -5.703125 C 1.78125 -5.191406 1.5625 -4.488281 1.5625 -3.59375 C 1.5625 -2.695312 1.769531 -1.988281 2.1875 -1.46875 C 2.601562 -0.945312 3.222656 -0.6875 4.046875 -0.6875 C 4.359375 -0.6875 4.65625 -0.710938 4.9375 -0.765625 C 5.21875 -0.828125 5.492188 -0.894531 5.765625 -0.96875 L 5.765625 -0.1875 C 5.492188 -0.09375 5.21875 -0.0234375 4.9375 0.015625 C 4.65625 0.0664062 4.316406 0.09375 3.921875 0.09375 C 3.179688 0.09375 2.566406 -0.0546875 2.078125 -0.359375 C 1.585938 -0.660156 1.21875 -1.085938 0.96875 -1.640625 C 0.726562 -2.191406 0.609375 -2.847656 0.609375 -3.609375 C 0.609375 -4.328125 0.738281 -4.960938 1 -5.515625 C 1.269531 -6.066406 1.660156 -6.5 2.171875 -6.8125 C 2.691406 -7.125 3.320312 -7.28125 4.0625 -7.28125 C 4.820312 -7.28125 5.484375 -7.140625 6.046875 -6.859375 L 5.6875 -6.09375 C 5.46875 -6.195312 5.21875 -6.285156 4.9375 -6.359375 C 4.664062 -6.441406 4.375 -6.484375 4.0625 -6.484375 Z M 4.0625 -6.484375 "/></g></g></g><g fill="#000000" fill-opacity="1"><g transform="translate(153.630988, 203.203131)"><g><path d="M 3 0 L 0.40625 0 L 0.40625 -0.515625 L 1.25 -0.71875 L 1.25 -6.453125 L 0.40625 -6.65625 L 0.40625 -7.1875 L 3 -7.1875 L 3 -6.65625 L 2.15625 -6.453125 L 2.15625 -0.71875 L 3 -0.515625 Z M 3 0 "/></g></g></g><g fill="#000000" fill-opacity="1"><g transform="translate(159.157074, 203.203131)"><g><path d="M 0.984375 -7.1875 L 1.828125 -7.1875 L 1.828125 -3.234375 C 1.828125 -3.003906 1.820312 -2.753906 1.8125 -2.484375 C 1.8125 -2.210938 1.800781 -1.960938 1.78125 -1.734375 C 1.769531 -1.503906 1.765625 -1.335938 1.765625 -1.234375 L 1.796875 -1.234375 L 5.75 -7.1875 L 6.765625 -7.1875 L 6.765625 0 L 5.921875 0 L 5.921875 -3.90625 C 5.921875 -4.144531 5.925781 -4.40625 5.9375 -4.6875 C 5.945312 -4.976562 5.957031 -5.238281 5.96875 -5.46875 C 5.976562 -5.707031 5.988281 -5.878906 6 -5.984375 L 5.953125 -5.984375 L 2 0 L 0.984375 0 Z M 5.875 -9.421875 C 5.832031 -8.921875 5.664062 -8.539062 5.375 -8.28125 C 5.082031 -8.019531 4.617188 -7.890625 3.984375 -7.890625 C 3.316406 -7.890625 2.847656 -8.015625 2.578125 -8.265625 C 2.304688 -8.523438 2.15625 -8.910156 2.125 -9.421875 L 2.953125 -9.421875 C 2.984375 -9.054688 3.078125 -8.8125 3.234375 -8.6875 C 3.390625 -8.570312 3.644531 -8.515625 4 -8.515625 C 4.300781 -8.515625 4.539062 -8.578125 4.71875 -8.703125 C 4.90625 -8.835938 5.015625 -9.078125 5.046875 -9.421875 Z M 5.875 -9.421875 "/></g></g></g><g fill="#000000" fill-opacity="1"><g transform="translate(169.000869, 203.203131)"><g><path d="M 6.46875 0 L 5.5625 0 L 5.5625 -3.34375 L 1.875 -3.34375 L 1.875 0 L 0.96875 0 L 0.96875 -7.1875 L 1.875 -7.1875 L 1.875 -4.140625 L 5.5625 -4.140625 L 5.5625 -7.1875 L 6.46875 -7.1875 Z M 6.46875 0 "/></g></g></g><g fill="#000000" fill-opacity="1"><g transform="translate(178.572917, 203.203131)"><g><path d="M 0.984375 -7.1875 L 1.828125 -7.1875 L 1.828125 -3.234375 C 1.828125 -3.003906 1.820312 -2.753906 1.8125 -2.484375 C 1.8125 -2.210938 1.800781 -1.960938 1.78125 -1.734375 C 1.769531 -1.503906 1.765625 -1.335938 1.765625 -1.234375 L 1.796875 -1.234375 L 5.75 -7.1875 L 6.765625 -7.1875 L 6.765625 0 L 5.921875 0 L 5.921875 -3.90625 C 5.921875 -4.144531 5.925781 -4.40625 5.9375 -4.6875 C 5.945312 -4.976562 5.957031 -5.238281 5.96875 -5.46875 C 5.976562 -5.707031 5.988281 -5.878906 6 -5.984375 L 5.953125 -5.984375 L 2 0 L 0.984375 0 Z M 0.984375 -7.1875 "/></g></g></g><g fill="#000000" fill-opacity="1"><g transform="translate(188.416716, 203.203131)"><g><path d="M 0.984375 -7.1875 L 1.828125 -7.1875 L 1.828125 -3.234375 C 1.828125 -3.003906 1.820312 -2.753906 1.8125 -2.484375 C 1.8125 -2.210938 1.800781 -1.960938 1.78125 -1.734375 C 1.769531 -1.503906 1.765625 -1.335938 1.765625 -1.234375 L 1.796875 -1.234375 L 5.75 -7.1875 L 6.765625 -7.1875 L 6.765625 0 L 5.921875 0 L 5.921875 -3.90625 C 5.921875 -4.144531 5.925781 -4.40625 5.9375 -4.6875 C 5.945312 -4.976562 5.957031 -5.238281 5.96875 -5.46875 C 5.976562 -5.707031 5.988281 -5.878906 6 -5.984375 L 5.953125 -5.984375 L 2 0 L 0.984375 0 Z M 5.875 -9.421875 C 5.832031 -8.921875 5.664062 -8.539062 5.375 -8.28125 C 5.082031 -8.019531 4.617188 -7.890625 3.984375 -7.890625 C 3.316406 -7.890625 2.847656 -8.015625 2.578125 -8.265625 C 2.304688 -8.523438 2.15625 -8.910156 2.125 -9.421875 L 2.953125 -9.421875 C 2.984375 -9.054688 3.078125 -8.8125 3.234375 -8.6875 C 3.390625 -8.570312 3.644531 -8.515625 4 -8.515625 C 4.300781 -8.515625 4.539062 -8.578125 4.71875 -8.703125 C 4.90625 -8.835938 5.015625 -9.078125 5.046875 -9.421875 Z M 5.875 -9.421875 "/></g></g></g><g fill="#000000" fill-opacity="1"><g transform="translate(198.260515, 203.203131)"><g/></g></g><g fill="#000000" fill-opacity="1"><g transform="translate(202.954748, 203.203131)"><g><path d="M 5.8125 -7.1875 L 5.8125 -0.8125 L 6.734375 -0.8125 L 6.734375 1.890625 L 5.859375 1.890625 L 5.859375 0 L 0.921875 0 L 0.921875 1.890625 L 0.0625 1.890625 L 0.0625 -0.8125 L 0.609375 -0.8125 C 0.847656 -1.21875 1.078125 -1.679688 1.296875 -2.203125 C 1.515625 -2.722656 1.707031 -3.265625 1.875 -3.828125 C 2.050781 -4.390625 2.191406 -4.957031 2.296875 -5.53125 C 2.398438 -6.101562 2.46875 -6.65625 2.5 -7.1875 Z M 4.921875 -6.375 L 3.296875 -6.375 C 3.265625 -5.976562 3.195312 -5.535156 3.09375 -5.046875 C 2.988281 -4.554688 2.859375 -4.054688 2.703125 -3.546875 C 2.546875 -3.035156 2.367188 -2.539062 2.171875 -2.0625 C 1.984375 -1.582031 1.78125 -1.164062 1.5625 -0.8125 L 4.921875 -0.8125 Z M 4.921875 -6.375 "/></g></g></g><g fill="#000000" fill-opacity="1"><g transform="translate(212.023576, 203.203131)"><g><path d="M 7.25 -3.609375 C 7.25 -2.859375 7.117188 -2.207031 6.859375 -1.65625 C 6.609375 -1.101562 6.238281 -0.671875 5.75 -0.359375 C 5.257812 -0.0546875 4.65625 0.09375 3.9375 0.09375 C 3.1875 0.09375 2.566406 -0.0546875 2.078125 -0.359375 C 1.585938 -0.671875 1.21875 -1.101562 0.96875 -1.65625 C 0.726562 -2.21875 0.609375 -2.867188 0.609375 -3.609375 C 0.609375 -4.335938 0.726562 -4.976562 0.96875 -5.53125 C 1.21875 -6.09375 1.585938 -6.523438 2.078125 -6.828125 C 2.566406 -7.140625 3.1875 -7.296875 3.9375 -7.296875 C 4.65625 -7.296875 5.257812 -7.140625 5.75 -6.828125 C 6.238281 -6.523438 6.609375 -6.097656 6.859375 -5.546875 C 7.117188 -4.992188 7.25 -4.347656 7.25 -3.609375 Z M 1.5625 -3.609375 C 1.5625 -2.703125 1.753906 -1.988281 2.140625 -1.46875 C 2.523438 -0.945312 3.125 -0.6875 3.9375 -0.6875 C 4.75 -0.6875 5.34375 -0.945312 5.71875 -1.46875 C 6.09375 -1.988281 6.28125 -2.703125 6.28125 -3.609375 C 6.28125 -4.503906 6.09375 -5.207031 5.71875 -5.71875 C 5.34375 -6.238281 4.75 -6.5 3.9375 -6.5 C 3.125 -6.5 2.523438 -6.238281 2.140625 -5.71875 C 1.753906 -5.207031 1.5625 -4.503906 1.5625 -3.609375 Z M 1.5625 -3.609375 "/></g></g></g><g fill="#000000" fill-opacity="1"><g transform="translate(221.998213, 203.203131)"><g><path d="M 5.03125 -7.1875 L 5.03125 -6.375 L 1.875 -6.375 L 1.875 0 L 0.96875 0 L 0.96875 -7.1875 Z M 5.03125 -7.1875 "/></g></g></g><g fill="#000000" fill-opacity="1"><g transform="translate(229.38626, 203.203131)"><g><path d="M 6.140625 0 L 5.25 0 L 5.25 -6.390625 L 2.96875 -6.390625 C 2.90625 -5.890625 2.835938 -5.363281 2.765625 -4.8125 C 2.691406 -4.269531 2.617188 -3.75 2.546875 -3.25 C 2.472656 -2.757812 2.398438 -2.34375 2.328125 -2 C 2.234375 -1.539062 2.125 -1.15625 2 -0.84375 C 1.875 -0.53125 1.703125 -0.289062 1.484375 -0.125 C 1.273438 0.03125 1.003906 0.109375 0.671875 0.109375 C 0.554688 0.109375 0.4375 0.0976562 0.3125 0.078125 C 0.195312 0.0546875 0.0976562 0.0234375 0.015625 -0.015625 L 0.015625 -0.765625 C 0.0859375 -0.734375 0.171875 -0.703125 0.265625 -0.671875 C 0.359375 -0.648438 0.457031 -0.640625 0.5625 -0.640625 C 0.757812 -0.640625 0.914062 -0.722656 1.03125 -0.890625 C 1.15625 -1.054688 1.25 -1.257812 1.3125 -1.5 C 1.375 -1.75 1.429688 -1.992188 1.484375 -2.234375 C 1.535156 -2.484375 1.597656 -2.851562 1.671875 -3.34375 C 1.753906 -3.84375 1.84375 -4.421875 1.9375 -5.078125 C 2.03125 -5.734375 2.125 -6.4375 2.21875 -7.1875 L 6.140625 -7.1875 Z M 6.140625 0 "/></g></g></g><g fill="#000000" fill-opacity="1"><g transform="translate(238.626183, 203.203131)"><g><path d="M 3.140625 -2.984375 L 1.28125 0 L 0.21875 0 L 2.234375 -3.140625 C 1.972656 -3.222656 1.726562 -3.335938 1.5 -3.484375 C 1.28125 -3.640625 1.097656 -3.851562 0.953125 -4.125 C 0.816406 -4.394531 0.75 -4.742188 0.75 -5.171875 C 0.75 -5.816406 0.972656 -6.3125 1.421875 -6.65625 C 1.867188 -7.007812 2.539062 -7.1875 3.4375 -7.1875 L 5.453125 -7.1875 L 5.453125 0 L 4.546875 0 L 4.546875 -2.984375 Z M 4.546875 -6.40625 L 3.46875 -6.40625 C 2.882812 -6.40625 2.441406 -6.304688 2.140625 -6.109375 C 1.835938 -5.910156 1.6875 -5.582031 1.6875 -5.125 C 1.6875 -4.6875 1.832031 -4.347656 2.125 -4.109375 C 2.425781 -3.867188 2.882812 -3.75 3.5 -3.75 L 4.546875 -3.75 Z M 4.546875 -6.40625 "/></g></g></g><g fill="#000000" fill-opacity="1"><g transform="translate(247.171647, 203.203131)"><g><path d="M 5.8125 -7.1875 L 5.8125 -0.8125 L 6.734375 -0.8125 L 6.734375 1.890625 L 5.859375 1.890625 L 5.859375 0 L 0.921875 0 L 0.921875 1.890625 L 0.0625 1.890625 L 0.0625 -0.8125 L 0.609375 -0.8125 C 0.847656 -1.21875 1.078125 -1.679688 1.296875 -2.203125 C 1.515625 -2.722656 1.707031 -3.265625 1.875 -3.828125 C 2.050781 -4.390625 2.191406 -4.957031 2.296875 -5.53125 C 2.398438 -6.101562 2.46875 -6.65625 2.5 -7.1875 Z M 4.921875 -6.375 L 3.296875 -6.375 C 3.265625 -5.976562 3.195312 -5.535156 3.09375 -5.046875 C 2.988281 -4.554688 2.859375 -4.054688 2.703125 -3.546875 C 2.546875 -3.035156 2.367188 -2.539062 2.171875 -2.0625 C 1.984375 -1.582031 1.78125 -1.164062 1.5625 -0.8125 L 4.921875 -0.8125 Z M 4.921875 -6.375 "/></g></g></g><g fill="#000000" fill-opacity="1"><g transform="translate(256.240475, 203.203131)"><g/></g></g><g fill="#000000" fill-opacity="1"><g transform="translate(260.934707, 203.203131)"><g><path d="M 5.21875 -5.5 C 5.21875 -5.007812 5.0625 -4.625 4.75 -4.34375 C 4.445312 -4.0625 4.035156 -3.878906 3.515625 -3.796875 L 3.515625 -3.75 C 4.117188 -3.664062 4.578125 -3.472656 4.890625 -3.171875 C 5.210938 -2.878906 5.375 -2.5 5.375 -2.03125 C 5.375 -1.40625 5.128906 -0.894531 4.640625 -0.5 C 4.160156 -0.101562 3.4375 0.09375 2.46875 0.09375 C 2.082031 0.09375 1.710938 0.0625 1.359375 0 C 1.003906 -0.0507812 0.675781 -0.148438 0.375 -0.296875 L 0.375 -1.109375 C 0.6875 -0.960938 1.03125 -0.847656 1.40625 -0.765625 C 1.78125 -0.679688 2.132812 -0.640625 2.46875 -0.640625 C 3.113281 -0.640625 3.597656 -0.757812 3.921875 -1 C 4.253906 -1.25 4.421875 -1.59375 4.421875 -2.03125 C 4.421875 -2.488281 4.226562 -2.820312 3.84375 -3.03125 C 3.457031 -3.238281 2.914062 -3.34375 2.21875 -3.34375 L 1.1875 -3.34375 L 1.1875 -4.09375 L 2.15625 -4.09375 C 2.875 -4.09375 3.40625 -4.210938 3.75 -4.453125 C 4.101562 -4.691406 4.28125 -5.007812 4.28125 -5.40625 C 4.28125 -5.769531 4.144531 -6.050781 3.875 -6.25 C 3.613281 -6.445312 3.269531 -6.546875 2.84375 -6.546875 C 2.382812 -6.546875 2.003906 -6.488281 1.703125 -6.375 C 1.410156 -6.257812 1.125 -6.109375 0.84375 -5.921875 L 0.40625 -6.546875 C 0.6875 -6.753906 1.035156 -6.925781 1.453125 -7.0625 C 1.867188 -7.207031 2.332031 -7.28125 2.84375 -7.28125 C 3.613281 -7.28125 4.203125 -7.113281 4.609375 -6.78125 C 5.015625 -6.445312 5.21875 -6.019531 5.21875 -5.5 Z M 5.21875 -5.5 "/></g></g></g><g fill="#000000" fill-opacity="1"><g transform="translate(268.966886, 203.203131)"><g><path d="M 5.484375 0 L 4.625 -2.21875 L 1.765625 -2.21875 L 0.921875 0 L 0 0 L 2.8125 -7.21875 L 3.625 -7.21875 L 6.421875 0 Z M 4.34375 -3.03125 L 3.546875 -5.203125 C 3.523438 -5.253906 3.488281 -5.347656 3.4375 -5.484375 C 3.394531 -5.628906 3.347656 -5.773438 3.296875 -5.921875 C 3.253906 -6.078125 3.222656 -6.195312 3.203125 -6.28125 C 3.148438 -6.070312 3.09375 -5.867188 3.03125 -5.671875 C 2.976562 -5.472656 2.929688 -5.316406 2.890625 -5.203125 L 2.078125 -3.03125 Z M 4.34375 -3.03125 "/></g></g></g><g fill="#000000" fill-opacity="1"><g transform="translate(277.51235, 203.203131)"><g/></g></g><g fill="#000000" fill-opacity="1"><g transform="translate(282.206581, 203.203131)"><g><path d="M 0.96875 -7.1875 L 3.03125 -7.1875 C 3.914062 -7.1875 4.585938 -7.050781 5.046875 -6.78125 C 5.515625 -6.507812 5.75 -6.050781 5.75 -5.40625 C 5.75 -4.976562 5.628906 -4.625 5.390625 -4.34375 C 5.160156 -4.070312 4.828125 -3.894531 4.390625 -3.8125 L 4.390625 -3.765625 C 4.691406 -3.710938 4.960938 -3.617188 5.203125 -3.484375 C 5.453125 -3.359375 5.644531 -3.175781 5.78125 -2.9375 C 5.925781 -2.707031 6 -2.410156 6 -2.046875 C 6 -1.390625 5.773438 -0.882812 5.328125 -0.53125 C 4.878906 -0.175781 4.269531 0 3.5 0 L 0.96875 0 Z M 1.875 -4.125 L 3.203125 -4.125 C 3.816406 -4.125 4.238281 -4.222656 4.46875 -4.421875 C 4.695312 -4.617188 4.8125 -4.910156 4.8125 -5.296875 C 4.8125 -5.691406 4.671875 -5.972656 4.390625 -6.140625 C 4.117188 -6.316406 3.675781 -6.40625 3.0625 -6.40625 L 1.875 -6.40625 Z M 1.875 -3.375 L 1.875 -0.765625 L 3.328125 -0.765625 C 3.960938 -0.765625 4.40625 -0.890625 4.65625 -1.140625 C 4.90625 -1.390625 5.03125 -1.710938 5.03125 -2.109375 C 5.03125 -2.484375 4.898438 -2.785156 4.640625 -3.015625 C 4.378906 -3.253906 3.921875 -3.375 3.265625 -3.375 Z M 1.875 -3.375 "/></g></g></g><g fill="#000000" fill-opacity="1"><g transform="translate(290.862756, 203.203131)"><g><path d="M 7.25 -3.609375 C 7.25 -2.859375 7.117188 -2.207031 6.859375 -1.65625 C 6.609375 -1.101562 6.238281 -0.671875 5.75 -0.359375 C 5.257812 -0.0546875 4.65625 0.09375 3.9375 0.09375 C 3.1875 0.09375 2.566406 -0.0546875 2.078125 -0.359375 C 1.585938 -0.671875 1.21875 -1.101562 0.96875 -1.65625 C 0.726562 -2.21875 0.609375 -2.867188 0.609375 -3.609375 C 0.609375 -4.335938 0.726562 -4.976562 0.96875 -5.53125 C 1.21875 -6.09375 1.585938 -6.523438 2.078125 -6.828125 C 2.566406 -7.140625 3.1875 -7.296875 3.9375 -7.296875 C 4.65625 -7.296875 5.257812 -7.140625 5.75 -6.828125 C 6.238281 -6.523438 6.609375 -6.097656 6.859375 -5.546875 C 7.117188 -4.992188 7.25 -4.347656 7.25 -3.609375 Z M 1.5625 -3.609375 C 1.5625 -2.703125 1.753906 -1.988281 2.140625 -1.46875 C 2.523438 -0.945312 3.125 -0.6875 3.9375 -0.6875 C 4.75 -0.6875 5.34375 -0.945312 5.71875 -1.46875 C 6.09375 -1.988281 6.28125 -2.703125 6.28125 -3.609375 C 6.28125 -4.503906 6.09375 -5.207031 5.71875 -5.71875 C 5.34375 -6.238281 4.75 -6.5 3.9375 -6.5 C 3.125 -6.5 2.523438 -6.238281 2.140625 -5.71875 C 1.753906 -5.207031 1.5625 -4.503906 1.5625 -3.609375 Z M 1.5625 -3.609375 "/></g></g></g><g fill="#000000" fill-opacity="1"><g transform="translate(300.837393, 203.203131)"><g><path d="M 6.140625 0 L 5.25 0 L 5.25 -6.390625 L 2.96875 -6.390625 C 2.90625 -5.890625 2.835938 -5.363281 2.765625 -4.8125 C 2.691406 -4.269531 2.617188 -3.75 2.546875 -3.25 C 2.472656 -2.757812 2.398438 -2.34375 2.328125 -2 C 2.234375 -1.539062 2.125 -1.15625 2 -0.84375 C 1.875 -0.53125 1.703125 -0.289062 1.484375 -0.125 C 1.273438 0.03125 1.003906 0.109375 0.671875 0.109375 C 0.554688 0.109375 0.4375 0.0976562 0.3125 0.078125 C 0.195312 0.0546875 0.0976562 0.0234375 0.015625 -0.015625 L 0.015625 -0.765625 C 0.0859375 -0.734375 0.171875 -0.703125 0.265625 -0.671875 C 0.359375 -0.648438 0.457031 -0.640625 0.5625 -0.640625 C 0.757812 -0.640625 0.914062 -0.722656 1.03125 -0.890625 C 1.15625 -1.054688 1.25 -1.257812 1.3125 -1.5 C 1.375 -1.75 1.429688 -1.992188 1.484375 -2.234375 C 1.535156 -2.484375 1.597656 -2.851562 1.671875 -3.34375 C 1.753906 -3.84375 1.84375 -4.421875 1.9375 -5.078125 C 2.03125 -5.734375 2.125 -6.4375 2.21875 -7.1875 L 6.140625 -7.1875 Z M 6.140625 0 "/></g></g></g><g fill="#000000" fill-opacity="1"><g transform="translate(310.077316, 203.203131)"><g><path d="M 7.25 -3.609375 C 7.25 -2.859375 7.117188 -2.207031 6.859375 -1.65625 C 6.609375 -1.101562 6.238281 -0.671875 5.75 -0.359375 C 5.257812 -0.0546875 4.65625 0.09375 3.9375 0.09375 C 3.1875 0.09375 2.566406 -0.0546875 2.078125 -0.359375 C 1.585938 -0.671875 1.21875 -1.101562 0.96875 -1.65625 C 0.726562 -2.21875 0.609375 -2.867188 0.609375 -3.609375 C 0.609375 -4.335938 0.726562 -4.976562 0.96875 -5.53125 C 1.21875 -6.09375 1.585938 -6.523438 2.078125 -6.828125 C 2.566406 -7.140625 3.1875 -7.296875 3.9375 -7.296875 C 4.65625 -7.296875 5.257812 -7.140625 5.75 -6.828125 C 6.238281 -6.523438 6.609375 -6.097656 6.859375 -5.546875 C 7.117188 -4.992188 7.25 -4.347656 7.25 -3.609375 Z M 1.5625 -3.609375 C 1.5625 -2.703125 1.753906 -1.988281 2.140625 -1.46875 C 2.523438 -0.945312 3.125 -0.6875 3.9375 -0.6875 C 4.75 -0.6875 5.34375 -0.945312 5.71875 -1.46875 C 6.09375 -1.988281 6.28125 -2.703125 6.28125 -3.609375 C 6.28125 -4.503906 6.09375 -5.207031 5.71875 -5.71875 C 5.34375 -6.238281 4.75 -6.5 3.9375 -6.5 C 3.125 -6.5 2.523438 -6.238281 2.140625 -5.71875 C 1.753906 -5.207031 1.5625 -4.503906 1.5625 -3.609375 Z M 1.5625 -3.609375 "/></g></g></g><g fill="#000000" fill-opacity="1"><g transform="translate(320.051954, 203.203131)"><g><path d="M 4.0625 -6.484375 C 3.28125 -6.484375 2.664062 -6.222656 2.21875 -5.703125 C 1.78125 -5.191406 1.5625 -4.488281 1.5625 -3.59375 C 1.5625 -2.695312 1.769531 -1.988281 2.1875 -1.46875 C 2.601562 -0.945312 3.222656 -0.6875 4.046875 -0.6875 C 4.359375 -0.6875 4.65625 -0.710938 4.9375 -0.765625 C 5.21875 -0.828125 5.492188 -0.894531 5.765625 -0.96875 L 5.765625 -0.1875 C 5.492188 -0.09375 5.21875 -0.0234375 4.9375 0.015625 C 4.65625 0.0664062 4.316406 0.09375 3.921875 0.09375 C 3.179688 0.09375 2.566406 -0.0546875 2.078125 -0.359375 C 1.585938 -0.660156 1.21875 -1.085938 0.96875 -1.640625 C 0.726562 -2.191406 0.609375 -2.847656 0.609375 -3.609375 C 0.609375 -4.328125 0.738281 -4.960938 1 -5.515625 C 1.269531 -6.066406 1.660156 -6.5 2.171875 -6.8125 C 2.691406 -7.125 3.320312 -7.28125 4.0625 -7.28125 C 4.820312 -7.28125 5.484375 -7.140625 6.046875 -6.859375 L 5.6875 -6.09375 C 5.46875 -6.195312 5.21875 -6.285156 4.9375 -6.359375 C 4.664062 -6.441406 4.375 -6.484375 4.0625 -6.484375 Z M 4.0625 -6.484375 "/></g></g></g><g fill="#000000" fill-opacity="1"><g transform="translate(328.526964, 203.203131)"><g><path d="M 4.0625 -6.484375 C 3.28125 -6.484375 2.664062 -6.222656 2.21875 -5.703125 C 1.78125 -5.191406 1.5625 -4.488281 1.5625 -3.59375 C 1.5625 -2.695312 1.769531 -1.988281 2.1875 -1.46875 C 2.601562 -0.945312 3.222656 -0.6875 4.046875 -0.6875 C 4.359375 -0.6875 4.65625 -0.710938 4.9375 -0.765625 C 5.21875 -0.828125 5.492188 -0.894531 5.765625 -0.96875 L 5.765625 -0.1875 C 5.492188 -0.09375 5.21875 -0.0234375 4.9375 0.015625 C 4.65625 0.0664062 4.316406 0.09375 3.921875 0.09375 C 3.179688 0.09375 2.566406 -0.0546875 2.078125 -0.359375 C 1.585938 -0.660156 1.21875 -1.085938 0.96875 -1.640625 C 0.726562 -2.191406 0.609375 -2.847656 0.609375 -3.609375 C 0.609375 -4.328125 0.738281 -4.960938 1 -5.515625 C 1.269531 -6.066406 1.660156 -6.5 2.171875 -6.8125 C 2.691406 -7.125 3.320312 -7.28125 4.0625 -7.28125 C 4.820312 -7.28125 5.484375 -7.140625 6.046875 -6.859375 L 5.6875 -6.09375 C 5.46875 -6.195312 5.21875 -6.285156 4.9375 -6.359375 C 4.664062 -6.441406 4.375 -6.484375 4.0625 -6.484375 Z M 4.0625 -6.484375 "/></g></g></g><g fill="#000000" fill-opacity="1"><g transform="translate(337.001975, 203.203131)"><g><path d="M 3.140625 -2.984375 L 1.28125 0 L 0.21875 0 L 2.234375 -3.140625 C 1.972656 -3.222656 1.726562 -3.335938 1.5 -3.484375 C 1.28125 -3.640625 1.097656 -3.851562 0.953125 -4.125 C 0.816406 -4.394531 0.75 -4.742188 0.75 -5.171875 C 0.75 -5.816406 0.972656 -6.3125 1.421875 -6.65625 C 1.867188 -7.007812 2.539062 -7.1875 3.4375 -7.1875 L 5.453125 -7.1875 L 5.453125 0 L 4.546875 0 L 4.546875 -2.984375 Z M 4.546875 -6.40625 L 3.46875 -6.40625 C 2.882812 -6.40625 2.441406 -6.304688 2.140625 -6.109375 C 1.835938 -5.910156 1.6875 -5.582031 1.6875 -5.125 C 1.6875 -4.6875 1.832031 -4.347656 2.125 -4.109375 C 2.425781 -3.867188 2.882812 -3.75 3.5 -3.75 L 4.546875 -3.75 Z M 4.546875 -6.40625 "/></g></g></g><g fill="#000000" fill-opacity="1"><g transform="translate(345.547439, 203.203131)"><g><path d="M 4.140625 0 L 1.78125 -6.296875 L 1.734375 -6.296875 C 1.753906 -6.085938 1.769531 -5.804688 1.78125 -5.453125 C 1.800781 -5.109375 1.8125 -4.742188 1.8125 -4.359375 L 1.8125 0 L 0.96875 0 L 0.96875 -7.1875 L 2.3125 -7.1875 L 4.53125 -1.296875 L 4.5625 -1.296875 L 6.828125 -7.1875 L 8.15625 -7.1875 L 8.15625 0 L 7.25 0 L 7.25 -4.421875 C 7.25 -4.765625 7.257812 -5.109375 7.28125 -5.453125 C 7.300781 -5.796875 7.316406 -6.070312 7.328125 -6.28125 L 7.28125 -6.28125 L 4.890625 0 Z M 4.140625 0 "/></g></g></g><g fill="#000000" fill-opacity="1"><g transform="translate(97.529454, 186.702446)"><g><path d="M 1.738281 0 L 7.75 0 C 15.3125 0 17.78125 -3.734375 17.71875 -7.117188 C 17.683594 -10.15625 15.820312 -12.875 10.726562 -13.222656 C 13.921875 -13.855469 15.34375 -15.820312 15.34375 -17.96875 C 15.34375 -20.53125 13.222656 -22.144531 8.699219 -22.144531 L 1.738281 -22.144531 L 1.738281 -21.796875 C 2.625 -21.578125 3.003906 -21.039062 3.003906 -18.128906 L 3.003906 -4.019531 C 3.003906 -1.105469 2.625 -0.570312 1.738281 -0.347656 Z M 4.777344 -3.195312 L 4.777344 -12.8125 L 9.046875 -12.8125 C 13.824219 -12.8125 15.753906 -10.1875 15.753906 -6.707031 C 15.753906 -3.039062 13.855469 -0.441406 8.035156 -0.441406 L 6.421875 -0.441406 C 5.0625 -0.441406 4.777344 -0.917969 4.777344 -3.195312 Z M 4.777344 -13.222656 L 4.777344 -21.734375 L 8.382812 -21.734375 C 11.707031 -21.734375 13.382812 -20.058594 13.382812 -17.558594 C 13.382812 -15.15625 11.894531 -13.222656 7.878906 -13.222656 Z M 4.777344 -13.222656 "/></g></g></g><g fill="#000000" fill-opacity="1"><g transform="translate(116.604788, 186.702446)"><g><path d="M 8.828125 0.316406 C 11.894531 0.316406 14.332031 -1.613281 16.101562 -3.828125 L 15.851562 -4.082031 C 14.238281 -2.246094 12.558594 -1.074219 9.996094 -1.074219 C 5.820312 -1.074219 2.910156 -4.050781 2.910156 -8.636719 C 2.910156 -9.300781 2.972656 -9.933594 3.101562 -10.535156 L 15.820312 -10.535156 C 15.660156 -13.792969 13.289062 -16.039062 9.648438 -16.039062 C 4.871094 -16.039062 1.296875 -12.464844 1.296875 -7.5625 C 1.296875 -2.246094 5.347656 0.316406 8.828125 0.316406 Z M 3.164062 -10.914062 C 3.859375 -13.730469 5.820312 -15.503906 8.542969 -15.503906 C 12.179688 -15.503906 13.792969 -12.496094 14.046875 -10.914062 Z M 3.164062 -10.914062 "/></g></g></g><g fill="#000000" fill-opacity="1"><g transform="translate(134.098429, 186.702446)"><g><path d="M 13.574219 0 L 15.851562 0 L 15.851562 -0.347656 C 14.964844 -0.570312 14.585938 -1.105469 14.585938 -4.019531 L 14.585938 -10.597656 C 14.585938 -13.855469 12.875 -16.039062 9.046875 -16.039062 C 6.421875 -16.039062 4.238281 -14.804688 2.40625 -12.464844 L 2.6875 -12.242188 C 4.207031 -14.207031 6.167969 -15.21875 8.195312 -15.21875 C 11.230469 -15.21875 12.71875 -13.605469 12.90625 -10.535156 L 8.226562 -9.300781 C 4.585938 -8.351562 1.265625 -7.148438 1.265625 -3.828125 C 1.265625 -1.042969 3.480469 0.316406 5.851562 0.316406 C 8.828125 0.316406 11.863281 -2.5625 12.941406 -6.675781 L 12.941406 -0.632812 C 12.941406 -0.222656 13.160156 0 13.574219 0 Z M 3.003906 -4.460938 C 2.972656 -7.023438 5.03125 -8.066406 8.351562 -8.953125 L 12.941406 -10.15625 L 12.941406 -9.046875 C 12.90625 -5.25 10.28125 -1.074219 6.582031 -1.074219 C 4.398438 -1.074219 3.039062 -2.4375 3.003906 -4.460938 Z M 3.003906 -4.460938 "/></g></g></g><g fill="#000000" fill-opacity="1"><g transform="translate(151.21246, 186.702446)"><g><path d="M 7.183594 0.285156 C 9.902344 0.285156 12.117188 -1.550781 13.539062 -3.101562 L 13.539062 -1.265625 C 13.539062 -0.222656 13.761719 0 14.332031 0 L 16.453125 0 L 16.453125 -0.347656 C 15.566406 -0.570312 15.1875 -1.105469 15.1875 -4.019531 L 15.1875 -15.851562 L 14.964844 -16.039062 L 12.273438 -14.871094 L 12.273438 -14.585938 C 13.222656 -14.171875 13.539062 -13.890625 13.539062 -11.292969 L 13.539062 -3.671875 C 12.273438 -2.183594 10.410156 -0.632812 8.035156 -0.632812 C 5.378906 -0.632812 3.859375 -2.152344 3.859375 -6.011719 L 3.859375 -15.851562 L 3.636719 -16.039062 L 0.949219 -14.871094 L 0.949219 -14.585938 C 1.898438 -14.171875 2.214844 -13.890625 2.214844 -11.292969 L 2.214844 -5.285156 C 2.214844 -1.898438 3.890625 0.285156 7.183594 0.285156 Z M 7.183594 0.285156 "/></g></g></g><g fill="#000000" fill-opacity="1"><g transform="translate(169.307144, 186.702446)"><g><path d="M 6.042969 0.316406 C 7.8125 0.316406 9.492188 -1.140625 10.472656 -2.308594 L 10.21875 -2.5625 C 9.175781 -1.359375 8.035156 -0.824219 6.929688 -0.824219 C 5.601562 -0.824219 4.554688 -1.613281 4.554688 -3.984375 L 4.554688 -15.4375 L 9.113281 -15.4375 L 9.300781 -15.820312 L 4.554688 -15.820312 L 4.554688 -19.394531 L 4.207031 -19.394531 L 0.886719 -15.820312 L 0.886719 -15.4375 L 2.910156 -15.4375 L 2.910156 -3.921875 C 2.910156 -0.757812 4.207031 0.316406 6.042969 0.316406 Z M 6.042969 0.316406 "/></g></g></g><g fill="#000000" fill-opacity="1"><g transform="translate(180.126033, 186.702446)"><g><path d="M 0.726562 6.105469 C 1.835938 6.105469 5.1875 6.296875 8.195312 -0.632812 L 13.191406 -12.117188 C 14.332031 -14.804688 15.121094 -15.25 15.914062 -15.46875 L 15.914062 -15.820312 L 12.527344 -15.820312 L 12.527344 -15.46875 C 13.636719 -15.25 13.605469 -14.109375 12.75 -12.117188 L 8.445312 -2.183594 L 4.300781 -12.117188 C 3.164062 -14.804688 3.132812 -15.25 4.019531 -15.46875 L 4.019531 -15.820312 L 0.09375 -15.820312 L 0.09375 -15.46875 C 0.726562 -15.25 1.390625 -14.804688 2.53125 -12.117188 L 7.53125 -0.0625 C 6.644531 1.804688 5.410156 3.734375 3.953125 4.777344 C 2.722656 4.554688 1.042969 3.921875 0.285156 3.921875 C -0.507812 3.921875 -1.234375 4.777344 -1.234375 5.347656 C -1.234375 5.726562 -0.410156 6.105469 0.726562 6.105469 Z M 0.726562 6.105469 "/></g></g></g><g fill="#000000" fill-opacity="1"><g transform="translate(196.417582, 186.702446)"><g/></g></g><g fill="#000000" fill-opacity="1"><g transform="translate(203.756744, 186.702446)"><g><path d="M 13.191406 0.316406 C 16.386719 0.316406 20.027344 -0.695312 21.355469 -1.582031 L 21.863281 -5.25 L 21.546875 -5.285156 C 20.214844 -1.738281 17.335938 -0.253906 14.046875 -0.253906 C 6.992188 -0.253906 3.417969 -6.042969 3.449219 -11.769531 C 3.511719 -18.414062 7.71875 -21.734375 12.71875 -21.734375 C 17.050781 -21.734375 19.742188 -19.898438 20.914062 -17.402344 L 21.164062 -17.464844 L 21.039062 -20.753906 C 20.246094 -21.195312 17.179688 -22.367188 14.078125 -22.367188 C 6.960938 -22.367188 1.582031 -17.683594 1.582031 -10.566406 C 1.582031 -3.890625 6.234375 0.316406 13.191406 0.316406 Z M 13.191406 0.316406 "/></g></g></g><g fill="#000000" fill-opacity="1"><g transform="translate(227.260815, 186.702446)"><g><path d="M 9.429688 0.316406 C 13.160156 0.316406 17.527344 -2.4375 17.527344 -7.847656 C 17.527344 -13.507812 13.351562 -16.039062 9.429688 -16.039062 C 5.09375 -16.039062 1.296875 -12.65625 1.296875 -7.878906 C 1.296875 -2.246094 5.503906 0.316406 9.429688 0.316406 Z M 2.941406 -9.078125 C 2.941406 -12.75 5 -15.503906 8.730469 -15.503906 C 12.972656 -15.503906 15.976562 -10.726562 15.976562 -6.582031 C 15.976562 -3.039062 13.890625 -0.285156 10.21875 -0.285156 C 5.980469 -0.285156 2.941406 -4.746094 2.941406 -9.078125 Z M 2.941406 -9.078125 "/></g></g></g><g fill="#000000" fill-opacity="1"><g transform="translate(246.589215, 186.702446)"><g><path d="M 7.308594 0.316406 C 10.28125 0.285156 12.78125 -1.457031 12.78125 -4.429688 C 12.78125 -7.5 9.710938 -8.195312 7.433594 -8.921875 C 5.347656 -9.585938 2.847656 -10.472656 2.847656 -12.75 C 2.847656 -14.617188 4.335938 -15.660156 6.644531 -15.660156 C 8.828125 -15.660156 10.914062 -14.425781 11.863281 -12.085938 L 12.117188 -12.148438 L 11.992188 -15.121094 C 11.105469 -15.503906 9.363281 -16.039062 7.023438 -16.039062 C 4.050781 -16.039062 1.675781 -14.425781 1.675781 -11.832031 C 1.675781 -8.890625 3.953125 -8.195312 6.582031 -7.308594 C 8.699219 -6.582031 11.578125 -5.949219 11.578125 -3.386719 C 11.578125 -1.234375 9.933594 -0.191406 7.941406 -0.191406 C 5.03125 -0.191406 2.785156 -1.707031 1.519531 -4.683594 L 1.265625 -4.617188 L 1.488281 -1.074219 C 2.371094 -0.507812 4.523438 0.347656 7.308594 0.316406 Z M 7.308594 0.316406 "/></g></g></g><g fill="#000000" fill-opacity="1"><g transform="translate(260.919477, 186.702446)"><g><path d="M 1.171875 0 L 5.347656 0 L 5.347656 -0.347656 C 4.460938 -0.570312 4.082031 -1.105469 4.082031 -4.019531 L 4.082031 -12.71875 C 5.789062 -14.015625 7.78125 -15.21875 9.839844 -15.21875 C 12.402344 -15.21875 13.824219 -13.636719 13.824219 -10.1875 L 13.824219 -4.019531 C 13.824219 -1.105469 13.445312 -0.570312 12.558594 -0.347656 L 12.558594 0 L 16.734375 0 L 16.734375 -0.347656 C 15.851562 -0.570312 15.46875 -1.105469 15.46875 -4.019531 L 15.46875 -10.757812 C 15.46875 -11.421875 15.40625 -12.023438 15.28125 -12.589844 C 17.050781 -13.953125 19.078125 -15.21875 21.230469 -15.21875 C 23.792969 -15.21875 25.214844 -13.636719 25.214844 -10.1875 L 25.214844 -4.019531 C 25.214844 -1.105469 24.835938 -0.570312 23.949219 -0.347656 L 23.949219 0 L 28.125 0 L 28.125 -0.347656 C 27.238281 -0.570312 26.859375 -1.105469 26.859375 -4.019531 L 26.859375 -10.757812 C 26.859375 -14.171875 25.339844 -16.039062 22.082031 -16.039062 C 19.898438 -16.039062 17.304688 -14.617188 15.21875 -12.941406 C 14.648438 -14.964844 13.160156 -16.039062 10.695312 -16.039062 C 8.605469 -16.039062 6.136719 -14.710938 4.082031 -13.160156 L 4.082031 -15.851562 L 3.859375 -16.039062 L 1.171875 -14.871094 L 1.171875 -14.585938 C 2.121094 -14.171875 2.4375 -13.890625 2.4375 -11.292969 L 2.4375 -4.019531 C 2.4375 -1.105469 2.054688 -0.570312 1.171875 -0.347656 Z M 1.171875 0 "/></g></g></g><g fill="#000000" fill-opacity="1"><g transform="translate(290.307455, 186.702446)"><g><path d="M 8.828125 0.316406 C 11.894531 0.316406 14.332031 -1.613281 16.101562 -3.828125 L 15.851562 -4.082031 C 14.238281 -2.246094 12.558594 -1.074219 9.996094 -1.074219 C 5.820312 -1.074219 2.910156 -4.050781 2.910156 -8.636719 C 2.910156 -9.300781 2.972656 -9.933594 3.101562 -10.535156 L 15.820312 -10.535156 C 15.660156 -13.792969 13.289062 -16.039062 9.648438 -16.039062 C 4.871094 -16.039062 1.296875 -12.464844 1.296875 -7.5625 C 1.296875 -2.246094 5.347656 0.316406 8.828125 0.316406 Z M 3.164062 -10.914062 C 3.859375 -13.730469 5.820312 -15.503906 8.542969 -15.503906 C 12.179688 -15.503906 13.792969 -12.496094 14.046875 -10.914062 Z M 3.164062 -10.914062 "/></g></g></g><g fill="#000000" fill-opacity="1"><g transform="translate(307.801093, 186.702446)"><g><path d="M 6.042969 0.316406 C 7.8125 0.316406 9.492188 -1.140625 10.472656 -2.308594 L 10.21875 -2.5625 C 9.175781 -1.359375 8.035156 -0.824219 6.929688 -0.824219 C 5.601562 -0.824219 4.554688 -1.613281 4.554688 -3.984375 L 4.554688 -15.4375 L 9.113281 -15.4375 L 9.300781 -15.820312 L 4.554688 -15.820312 L 4.554688 -19.394531 L 4.207031 -19.394531 L 0.886719 -15.820312 L 0.886719 -15.4375 L 2.910156 -15.4375 L 2.910156 -3.921875 C 2.910156 -0.757812 4.207031 0.316406 6.042969 0.316406 Z M 6.042969 0.316406 "/></g></g></g><g fill="#000000" fill-opacity="1"><g transform="translate(318.619983, 186.702446)"><g><path d="M 1.171875 0 L 5.347656 0 L 5.347656 -0.347656 C 4.460938 -0.570312 4.082031 -1.105469 4.082031 -4.019531 L 4.082031 -15.851562 L 3.859375 -16.039062 L 1.171875 -14.871094 L 1.171875 -14.585938 C 2.121094 -14.171875 2.4375 -13.890625 2.4375 -11.292969 L 2.4375 -4.019531 C 2.4375 -1.105469 2.054688 -0.570312 1.171875 -0.347656 Z M 1.773438 -20.214844 C 1.773438 -19.488281 2.339844 -18.917969 3.070312 -18.917969 C 3.796875 -18.917969 4.367188 -19.488281 4.367188 -20.214844 C 4.367188 -20.945312 3.828125 -21.511719 3.070312 -21.511719 C 2.339844 -21.511719 1.773438 -20.945312 1.773438 -20.214844 Z M 1.773438 -20.214844 "/></g></g></g><g fill="#000000" fill-opacity="1"><g transform="translate(325.611169, 186.702446)"><g><path d="M 8.828125 0.316406 C 11.894531 0.316406 14.332031 -1.613281 16.101562 -3.828125 L 15.851562 -4.082031 C 14.238281 -2.246094 12.558594 -1.074219 9.996094 -1.074219 C 5.820312 -1.074219 2.910156 -4.050781 2.910156 -8.636719 C 2.910156 -12.464844 5.1875 -14.933594 8.289062 -15.566406 C 10.976562 -13.953125 12.496094 -13.097656 13.191406 -13.097656 C 14.269531 -13.097656 14.996094 -13.953125 14.996094 -14.425781 C 14.996094 -15.28125 12.625 -16.039062 9.996094 -16.039062 C 5.1875 -16.039062 1.296875 -12.210938 1.296875 -7.5625 C 1.296875 -2.246094 5.347656 0.316406 8.828125 0.316406 Z M 8.828125 0.316406 "/></g></g></g><g fill="#000000" fill-opacity="1"><g transform="translate(342.788467, 186.702446)"><g><path d="M 7.308594 0.316406 C 10.28125 0.285156 12.78125 -1.457031 12.78125 -4.429688 C 12.78125 -7.5 9.710938 -8.195312 7.433594 -8.921875 C 5.347656 -9.585938 2.847656 -10.472656 2.847656 -12.75 C 2.847656 -14.617188 4.335938 -15.660156 6.644531 -15.660156 C 8.828125 -15.660156 10.914062 -14.425781 11.863281 -12.085938 L 12.117188 -12.148438 L 11.992188 -15.121094 C 11.105469 -15.503906 9.363281 -16.039062 7.023438 -16.039062 C 4.050781 -16.039062 1.675781 -14.425781 1.675781 -11.832031 C 1.675781 -8.890625 3.953125 -8.195312 6.582031 -7.308594 C 8.699219 -6.582031 11.578125 -5.949219 11.578125 -3.386719 C 11.578125 -1.234375 9.933594 -0.191406 7.941406 -0.191406 C 5.03125 -0.191406 2.785156 -1.707031 1.519531 -4.683594 L 1.265625 -4.617188 L 1.488281 -1.074219 C 2.371094 -0.507812 4.523438 0.347656 7.308594 0.316406 Z M 7.308594 0.316406 "/></g></g></g></svg>