<?xml version="1.0" standalone="no"?>
<!DOCTYPE svg PUBLIC "-//W3C//DTD SVG 20010904//EN"
 "http://www.w3.org/TR/2001/REC-SVG-20010904/DTD/svg10.dtd">
<svg version="1.0" xmlns="http://www.w3.org/2000/svg"
 width="213.000000pt" height="213.000000pt" viewBox="0 0 213.000000 213.000000"
 preserveAspectRatio="xMidYMid meet">
<metadata>
Created by potrace 1.14, written by Peter Selinger 2001-2017
</metadata>
<g transform="translate(0.000000,213.000000) scale(0.100000,-0.100000)"
fill="#000000" stroke="none">
<path d="M13 1473 c-10 -3 -13 -53 -13 -198 l0 -193 40 -7 c22 -4 64 -4 93 0
95 13 137 49 137 119 0 31 -7 45 -33 70 l-34 32 23 17 c51 38 37 118 -26 149
-34 17 -155 24 -187 11z m167 -63 c41 -41 10 -89 -63 -97 l-47 -6 0 62 0 61
45 0 c32 0 51 -6 65 -20z m2 -163 c41 -26 34 -88 -12 -112 -16 -8 -45 -15 -65
-15 l-35 0 0 76 0 76 46 -7 c26 -4 55 -12 66 -18z"/>
<path d="M1307 1443 c-4 -3 -7 -21 -7 -40 0 -29 -3 -33 -25 -33 -18 0 -25 -5
-25 -20 0 -15 7 -20 25 -20 25 0 25 0 25 -99 0 -84 3 -102 21 -125 17 -21 29
-26 65 -26 40 0 44 2 44 24 0 21 -6 25 -32 28 l-33 3 -3 98 -3 97 41 0 c33 0
40 3 40 20 0 17 -7 20 -40 20 l-40 0 0 40 c0 35 -3 40 -23 40 -13 0 -27 -3
-30 -7z"/>
<path d="M416 1370 c-62 -19 -96 -73 -96 -154 0 -48 4 -60 31 -91 36 -41 87
-58 151 -49 57 8 73 17 65 38 -6 14 -16 16 -57 10 -75 -10 -130 19 -130 70 0
14 16 16 105 16 l105 0 0 31 c0 40 -27 97 -54 114 -29 19 -85 26 -120 15z m80
-48 c11 -7 34 -45 34 -56 0 -3 -34 -6 -75 -6 -82 0 -89 7 -50 45 24 25 68 33
91 17z"/>
<path d="M702 1370 c-42 -10 -57 -24 -48 -45 4 -12 12 -15 24 -10 56 25 122
12 122 -24 0 -14 -13 -21 -59 -30 -75 -15 -111 -48 -111 -101 0 -53 37 -85 95
-84 25 0 52 7 61 15 13 11 18 11 21 2 3 -7 18 -13 34 -13 l29 0 0 93 c0 150
-20 189 -100 201 -19 2 -50 1 -68 -4z m108 -174 c0 -55 -73 -99 -108 -64 -36
36 5 88 70 88 33 0 38 -3 38 -24z"/>
<path d="M1695 1371 c-14 -6 -30 -38 -55 -109 l-36 -102 -39 105 c-39 104 -40
105 -72 105 -18 0 -33 -3 -33 -6 0 -3 25 -64 56 -136 63 -148 63 -159 -7 -205
-27 -18 -35 -29 -32 -44 3 -10 12 -19 21 -19 26 0 78 41 105 84 25 41 137 305
137 325 0 13 -16 13 -45 2z"/>
<path d="M940 1282 c0 -150 28 -202 110 -202 33 0 56 6 74 21 l26 20 0 -21 c0
-17 5 -21 28 -18 15 2 26 6 25 11 -2 4 -3 68 -3 142 l0 135 -30 0 -30 0 0
-100 c0 -116 -13 -140 -75 -140 -47 0 -55 19 -55 139 l0 101 -35 0 -35 0 0
-88z"/>
<path d="M473 939 c-39 -11 -79 -61 -88 -111 -20 -108 60 -190 171 -173 35 5
44 10 42 23 -3 14 -13 16 -56 14 -46 -3 -55 -1 -82 26 -26 26 -30 38 -30 82 0
44 4 56 30 82 27 27 36 29 82 26 42 -2 53 0 56 13 5 27 -60 37 -125 18z"/>
<path d="M1722 918 c4 -30 43 -33 43 -3 0 13 -8 21 -23 23 -20 3 -23 0 -20
-20z"/>
<path d="M1597 913 c-4 -3 -7 -15 -7 -25 0 -10 -7 -18 -15 -18 -8 0 -15 -9
-15 -20 0 -11 7 -20 15 -20 12 0 15 -14 15 -70 0 -81 21 -114 68 -108 33 4 36
32 5 36 -21 3 -23 8 -23 73 0 67 1 69 25 69 18 0 25 5 25 20 0 15 -7 20 -25
20 -20 0 -25 5 -25 25 0 18 -5 25 -18 25 -10 0 -22 -3 -25 -7z"/>
<path d="M671 856 c-69 -38 -67 -162 4 -194 75 -35 144 14 145 101 0 40 -5 53
-29 78 -33 32 -78 38 -120 15z m84 -41 c46 -45 23 -125 -35 -125 -58 0 -78 99
-27 135 29 20 34 19 62 -10z"/>
<path d="M871 844 c-12 -15 -21 -30 -21 -33 0 -16 34 -52 61 -66 18 -10 29
-23 29 -36 0 -18 -5 -20 -42 -17 -34 2 -44 -1 -46 -14 -2 -12 6 -19 33 -24 45
-8 81 7 97 40 14 32 -10 73 -53 88 -49 17 -32 65 19 51 24 -6 40 16 21 28 -29
18 -77 10 -98 -17z"/>
<path d="M1030 765 c0 -98 1 -105 20 -105 18 0 20 7 20 66 0 77 12 104 44 104
30 0 36 -16 36 -101 0 -67 1 -69 25 -69 24 0 24 2 27 83 3 78 4 82 27 85 37 6
51 -22 51 -100 0 -61 2 -68 20 -68 18 0 20 7 20 85 0 72 -3 88 -20 105 -23 23
-68 26 -95 6 -16 -11 -22 -11 -46 3 -23 13 -34 14 -58 4 -18 -6 -33 -7 -37 -2
-3 5 -12 9 -20 9 -11 0 -14 -20 -14 -105z"/>
<path d="M1404 855 c-31 -21 -47 -69 -41 -118 9 -64 60 -96 132 -83 56 11 46
36 -14 36 -40 0 -53 4 -65 22 -9 12 -16 26 -16 30 0 5 32 8 70 8 l70 0 0 35
c0 69 -80 110 -136 70z m80 -31 c30 -30 20 -44 -34 -44 -43 0 -49 2 -43 18 7
20 32 42 49 42 7 0 20 -7 28 -16z"/>
<path d="M1720 766 l0 -106 25 0 26 0 -3 103 c-3 97 -4 102 -25 105 -23 3 -23
2 -23 -102z"/>
<path d="M1860 858 c-34 -18 -63 -80 -55 -117 14 -66 69 -101 136 -86 21 5 29
12 27 23 -2 13 -13 16 -45 14 -33 -3 -44 1 -57 20 -38 54 -5 123 61 123 27 0
38 4 38 15 0 20 -71 25 -105 8z"/>
<path d="M2020 850 c-33 -33 -23 -70 25 -97 56 -31 55 -58 -2 -57 -46 1 -65
-19 -33 -36 41 -22 107 -2 116 36 9 37 -5 63 -47 84 -21 11 -39 24 -39 28 0
19 25 31 52 25 26 -5 29 -3 26 13 -5 29 -70 32 -98 4z"/>
</g>
</svg>
