<svg xmlns="http://www.w3.org/2000/svg" xmlns:xlink="http://www.w3.org/1999/xlink" width="500" zoomAndPan="magnify" viewBox="0 0 375 374.999991" height="500" preserveAspectRatio="xMidYMid meet" version="1.0"><defs><clipPath id="6d9f516999"><path d="M 28.40625 28.40625 L 346.40625 28.40625 L 346.40625 346.40625 L 28.40625 346.40625 Z M 28.40625 28.40625 " clip-rule="nonzero"/></clipPath></defs><g clip-path="url(#6d9f516999)"><path fill="#000000" d="M 117.671875 150.050781 C 121.8125 156.269531 123.957031 163.558594 124.070312 171.757812 C 116.554688 168.480469 110.664062 163.6875 106.523438 157.464844 C 102.386719 151.242188 100.242188 143.957031 100.125 135.757812 C 107.640625 139.03125 113.535156 143.828125 117.671875 150.050781 Z M 125.675781 177.824219 C 125.949219 177.925781 126.238281 177.972656 126.523438 177.972656 C 127.015625 177.972656 127.503906 177.828125 127.925781 177.550781 C 128.589844 177.109375 129.007812 176.378906 129.050781 175.582031 C 129.640625 164.816406 127.230469 155.28125 121.886719 147.246094 C 116.542969 139.210938 108.679688 133.308594 98.523438 129.691406 C 97.769531 129.417969 96.9375 129.523438 96.273438 129.964844 C 95.609375 130.40625 95.191406 131.136719 95.148438 131.933594 C 94.558594 142.699219 96.96875 152.234375 102.3125 160.265625 C 107.65625 168.300781 115.515625 174.207031 125.675781 177.824219 Z M 257.320312 150.050781 C 261.457031 143.828125 267.351562 139.03125 274.867188 135.757812 C 274.75 143.957031 272.605469 151.242188 268.464844 157.464844 C 264.328125 163.6875 258.4375 168.480469 250.917969 171.757812 C 251.035156 163.558594 253.179688 156.269531 257.320312 150.050781 Z M 247.0625 177.550781 C 247.488281 177.828125 247.972656 177.972656 248.46875 177.972656 C 248.753906 177.972656 249.039062 177.925781 249.316406 177.824219 C 259.472656 174.207031 267.335938 168.300781 272.675781 160.265625 C 278.023438 152.234375 280.433594 142.699219 279.84375 131.933594 C 279.800781 131.136719 279.382812 130.40625 278.71875 129.964844 C 278.054688 129.523438 277.222656 129.417969 276.46875 129.691406 C 266.3125 133.308594 258.449219 139.210938 253.105469 147.246094 C 247.761719 155.28125 245.347656 164.816406 245.941406 175.582031 C 245.984375 176.378906 246.402344 177.109375 247.0625 177.550781 Z M 167.191406 305.679688 C 167.195312 305.628906 167.199219 305.578125 167.203125 305.527344 C 167.269531 304.753906 167.332031 303.988281 167.40625 303.214844 C 167.753906 299.382812 168.171875 295.660156 168.65625 292.046875 C 168.902344 290.242188 169.164062 288.460938 169.441406 286.710938 C 169.582031 285.835938 169.726562 284.964844 169.875 284.101562 C 170.351562 281.324219 170.878906 278.621094 171.453125 275.984375 C 173.71875 265.515625 176.71875 256.125 180.484375 247.734375 C 180.515625 247.664062 180.550781 247.59375 180.582031 247.519531 C 182.203125 243.925781 183.964844 240.523438 185.867188 237.292969 C 187.050781 235.28125 188.285156 233.335938 189.574219 231.464844 C 189.578125 231.464844 189.578125 231.464844 189.578125 231.464844 C 190.265625 230.464844 190.96875 229.492188 191.683594 228.535156 C 202.410156 214.199219 216.378906 204.433594 235.367188 197.953125 C 235.835938 197.789062 236.292969 197.636719 236.75 197.484375 C 249.75 193.199219 263.050781 191.035156 275.90625 188.941406 C 289.613281 186.707031 302.046875 184.683594 312.164062 180.464844 C 306.597656 189.90625 302.886719 201.941406 298.789062 215.210938 C 287.128906 252.988281 273.914062 295.808594 210.109375 305.347656 C 209.910156 305.378906 209.699219 305.410156 209.425781 305.445312 C 208.640625 305.566406 207.847656 305.671875 207.054688 305.78125 C 200.925781 306.578125 194.347656 307.054688 187.496094 307.203125 C 181.296875 307.070312 175.292969 306.664062 169.648438 305.992188 C 168.839844 305.898438 168.027344 305.792969 167.191406 305.679688 Z M 76.203125 215.210938 C 72.105469 201.941406 68.394531 189.910156 62.824219 180.464844 C 72.945312 184.683594 85.371094 186.707031 99.078125 188.9375 C 111.828125 191.015625 125.015625 193.160156 137.925781 197.382812 C 138.492188 197.5625 139.058594 197.75 139.636719 197.949219 C 140.882812 198.375 142.105469 198.816406 143.308594 199.273438 C 143.710938 199.421875 144.097656 199.585938 144.496094 199.742188 C 145.289062 200.050781 146.085938 200.359375 146.859375 200.683594 C 147.320312 200.875 147.765625 201.078125 148.21875 201.273438 C 148.910156 201.574219 149.609375 201.871094 150.285156 202.183594 C 150.761719 202.398438 151.21875 202.628906 151.683594 202.851562 C 152.320312 203.15625 152.964844 203.460938 153.589844 203.773438 C 154.066406 204.011719 154.523438 204.261719 154.988281 204.503906 C 155.589844 204.820312 156.191406 205.132812 156.777344 205.457031 C 157.246094 205.714844 157.699219 205.984375 158.15625 206.25 C 158.722656 206.578125 159.292969 206.902344 159.851562 207.234375 C 160.308594 207.511719 160.75 207.800781 161.199219 208.085938 C 161.742188 208.425781 162.285156 208.761719 162.8125 209.117188 C 163.253906 209.410156 163.6875 209.714844 164.125 210.015625 C 164.640625 210.371094 165.160156 210.726562 165.664062 211.09375 C 166.097656 211.40625 166.515625 211.726562 166.941406 212.046875 C 167.433594 212.417969 167.929688 212.789062 168.410156 213.175781 C 168.832031 213.503906 169.238281 213.84375 169.648438 214.183594 C 170.121094 214.574219 170.59375 214.960938 171.054688 215.359375 C 171.460938 215.707031 171.855469 216.066406 172.253906 216.425781 C 172.707031 216.828125 173.15625 217.234375 173.597656 217.648438 C 173.992188 218.019531 174.375 218.398438 174.761719 218.773438 C 175.191406 219.195312 175.621094 219.617188 176.046875 220.050781 C 176.425781 220.4375 176.796875 220.835938 177.167969 221.230469 C 177.582031 221.671875 177.992188 222.113281 178.398438 222.5625 C 178.765625 222.96875 179.125 223.382812 179.484375 223.800781 C 179.878906 224.257812 180.273438 224.71875 180.660156 225.1875 C 181.015625 225.613281 181.363281 226.050781 181.710938 226.484375 C 182.085938 226.960938 182.464844 227.4375 182.835938 227.925781 C 183.175781 228.375 183.511719 228.824219 183.847656 229.285156 C 184.039062 229.542969 184.222656 229.808594 184.410156 230.070312 C 184.398438 230.09375 184.382812 230.117188 184.367188 230.144531 C 183.679688 231.175781 183.011719 232.234375 182.355469 233.308594 C 182.289062 233.421875 182.21875 233.53125 182.148438 233.648438 C 181.507812 234.707031 180.882812 235.789062 180.273438 236.882812 C 180.195312 237.019531 180.121094 237.148438 180.046875 237.285156 C 179.445312 238.371094 178.863281 239.480469 178.292969 240.601562 C 178.214844 240.753906 178.136719 240.90625 178.058594 241.0625 C 177.496094 242.179688 176.949219 243.316406 176.417969 244.464844 C 176.339844 244.636719 176.261719 244.804688 176.183594 244.976562 C 175.660156 246.125 175.148438 247.292969 174.652344 248.476562 C 174.578125 248.660156 174.5 248.84375 174.425781 249.027344 C 173.933594 250.214844 173.457031 251.417969 172.996094 252.636719 C 172.921875 252.832031 172.851562 253.023438 172.777344 253.21875 C 172.320312 254.441406 171.878906 255.6875 171.449219 256.949219 C 171.378906 257.148438 171.3125 257.351562 171.242188 257.550781 C 170.816406 258.816406 170.40625 260.101562 170.007812 261.40625 C 169.945312 261.613281 169.882812 261.816406 169.820312 262.023438 C 169.425781 263.339844 169.042969 264.671875 168.675781 266.023438 C 168.617188 266.226562 168.5625 266.433594 168.507812 266.640625 C 168.144531 268.007812 167.789062 269.386719 167.449219 270.789062 C 167.402344 270.992188 167.355469 271.195312 167.308594 271.394531 C 166.96875 272.816406 166.644531 274.253906 166.335938 275.714844 C 166.292969 275.90625 166.257812 276.101562 166.214844 276.292969 C 165.90625 277.773438 165.609375 279.277344 165.328125 280.800781 C 165.296875 280.976562 165.265625 281.152344 165.234375 281.324219 C 164.949219 282.878906 164.679688 284.449219 164.425781 286.046875 C 164.402344 286.195312 164.382812 286.34375 164.359375 286.488281 C 164.101562 288.121094 163.859375 289.773438 163.632812 291.449219 C 163.617188 291.5625 163.605469 291.683594 163.589844 291.796875 C 163.359375 293.515625 163.144531 295.253906 162.945312 297.019531 C 162.9375 297.085938 162.933594 297.152344 162.925781 297.21875 C 162.722656 299.039062 162.535156 300.882812 162.367188 302.753906 C 162.300781 303.464844 162.238281 304.175781 162.179688 304.886719 C 162.179688 304.894531 162.175781 304.910156 162.175781 304.917969 C 100.703125 294.59375 87.699219 252.449219 76.203125 215.210938 Z M 187.496094 132.667969 C 208.167969 145.929688 224.0625 168.089844 231.472656 193.960938 C 231.171875 194.070312 230.886719 194.1875 230.589844 194.296875 C 230.0625 194.492188 229.546875 194.6875 229.027344 194.890625 C 228.328125 195.164062 227.632812 195.441406 226.941406 195.722656 C 226.441406 195.929688 225.9375 196.136719 225.4375 196.351562 C 224.75 196.648438 224.070312 196.949219 223.390625 197.257812 C 222.914062 197.472656 222.4375 197.683594 221.964844 197.90625 C 221.269531 198.230469 220.589844 198.570312 219.90625 198.910156 C 219.472656 199.125 219.035156 199.335938 218.609375 199.554688 C 217.863281 199.9375 217.136719 200.335938 216.410156 200.730469 C 216.058594 200.921875 215.707031 201.105469 215.359375 201.296875 C 214.308594 201.894531 213.273438 202.496094 212.253906 203.121094 C 212.238281 203.128906 212.230469 203.132812 212.222656 203.140625 C 211.1875 203.777344 210.175781 204.429688 209.175781 205.09375 C 208.867188 205.300781 208.570312 205.519531 208.261719 205.730469 C 207.585938 206.195312 206.90625 206.660156 206.246094 207.144531 C 205.878906 207.410156 205.519531 207.6875 205.15625 207.960938 C 204.574219 208.398438 203.984375 208.84375 203.414062 209.296875 C 203.035156 209.597656 202.664062 209.90625 202.285156 210.210938 C 201.746094 210.652344 201.210938 211.097656 200.679688 211.550781 C 200.304688 211.878906 199.933594 212.207031 199.5625 212.535156 C 199.046875 212.992188 198.542969 213.453125 198.042969 213.917969 C 197.675781 214.261719 197.3125 214.605469 196.957031 214.949219 C 196.460938 215.425781 195.976562 215.910156 195.496094 216.394531 C 195.148438 216.75 194.796875 217.105469 194.453125 217.464844 C 193.972656 217.96875 193.5 218.484375 193.027344 219 C 192.703125 219.359375 192.375 219.714844 192.054688 220.078125 C 191.570312 220.625 191.09375 221.195312 190.621094 221.761719 C 190.335938 222.101562 190.039062 222.441406 189.757812 222.789062 C 189.214844 223.460938 188.683594 224.144531 188.160156 224.832031 C 187.960938 225.089844 187.753906 225.347656 187.554688 225.609375 C 187.535156 225.636719 187.515625 225.660156 187.496094 225.6875 C 187.472656 225.660156 187.453125 225.636719 187.429688 225.605469 C 187.246094 225.359375 187.050781 225.121094 186.863281 224.875 C 186.324219 224.171875 185.785156 223.472656 185.230469 222.789062 C 184.953125 222.449219 184.667969 222.117188 184.382812 221.777344 C 183.90625 221.207031 183.425781 220.636719 182.9375 220.078125 C 182.617188 219.71875 182.289062 219.359375 181.964844 219.003906 C 181.496094 218.488281 181.023438 217.972656 180.542969 217.472656 C 180.199219 217.109375 179.847656 216.75 179.496094 216.394531 C 179.019531 215.910156 178.535156 215.433594 178.046875 214.960938 C 177.683594 214.609375 177.3125 214.261719 176.945312 213.914062 C 176.449219 213.457031 175.953125 213 175.449219 212.554688 C 175.066406 212.214844 174.6875 211.878906 174.300781 211.546875 C 173.785156 211.105469 173.257812 210.667969 172.734375 210.234375 C 172.347656 209.921875 171.960938 209.601562 171.566406 209.289062 C 171.015625 208.851562 170.449219 208.425781 169.886719 208 C 169.503906 207.710938 169.125 207.421875 168.734375 207.136719 C 168.109375 206.683594 167.46875 206.242188 166.832031 205.800781 C 166.488281 205.566406 166.152344 205.320312 165.804688 205.085938 C 164.847656 204.449219 163.878906 203.828125 162.894531 203.21875 C 162.75 203.132812 162.597656 203.046875 162.453125 202.957031 C 161.535156 202.394531 160.605469 201.847656 159.65625 201.3125 C 159.265625 201.09375 158.867188 200.886719 158.476562 200.675781 C 157.789062 200.296875 157.105469 199.925781 156.410156 199.566406 C 155.953125 199.332031 155.488281 199.109375 155.027344 198.878906 C 154.371094 198.554688 153.71875 198.230469 153.050781 197.914062 C 152.5625 197.6875 152.0625 197.460938 151.566406 197.238281 C 150.910156 196.941406 150.246094 196.648438 149.578125 196.359375 C 149.066406 196.140625 148.546875 195.921875 148.03125 195.710938 C 147.351562 195.433594 146.671875 195.160156 145.984375 194.894531 C 145.460938 194.6875 144.933594 194.488281 144.402344 194.292969 C 144.105469 194.179688 143.820312 194.0625 143.519531 193.953125 C 150.9375 168.078125 166.832031 145.917969 187.496094 132.667969 Z M 299.988281 75.003906 C 269.941406 44.957031 229.992188 28.40625 187.496094 28.40625 C 145 28.40625 105.050781 44.957031 75.003906 75.003906 C 44.957031 105.050781 28.40625 145 28.40625 187.496094 C 28.40625 225.234375 41.855469 261.824219 66.273438 290.527344 C 90.414062 318.902344 123.820312 337.988281 160.332031 344.273438 C 161.710938 344.511719 163.015625 343.585938 163.253906 342.207031 C 163.492188 340.832031 162.566406 339.523438 161.191406 339.289062 C 87.183594 326.554688 33.46875 262.714844 33.46875 187.496094 C 33.46875 102.566406 102.5625 33.464844 187.496094 33.464844 C 272.425781 33.464844 341.523438 102.566406 341.523438 187.496094 C 341.523438 271.578125 273.792969 340.132812 190.023438 341.492188 L 190.023438 312.195312 C 196.1875 311.992188 202.125 311.519531 207.710938 310.792969 C 208.546875 310.683594 209.375 310.574219 210.125 310.457031 C 210.378906 310.425781 210.636719 310.386719 210.878906 310.351562 C 277.804688 300.34375 292.121094 253.964844 303.625 216.699219 C 309.386719 198.03125 314.363281 181.90625 324.636719 172.960938 C 325.6875 172.042969 325.800781 170.445312 324.878906 169.390625 C 323.964844 168.339844 322.367188 168.226562 321.3125 169.144531 C 321.3125 169.148438 321.304688 169.148438 321.300781 169.152344 C 311.027344 178.089844 294.375 180.804688 275.097656 183.945312 C 262.402344 186.011719 249.285156 188.15625 236.265625 192.324219 C 228.320312 164.808594 211.140625 141.292969 188.824219 127.527344 C 188.011719 127.023438 186.980469 127.023438 186.167969 127.527344 C 163.855469 141.285156 146.675781 164.800781 138.726562 192.324219 C 125.703125 188.15625 112.585938 186.011719 99.890625 183.945312 C 80.609375 180.804688 63.957031 178.089844 53.683594 169.148438 C 53.683594 169.148438 53.679688 169.144531 53.679688 169.144531 C 52.625 168.226562 51.027344 168.339844 50.109375 169.390625 C 49.191406 170.445312 49.300781 172.042969 50.355469 172.960938 C 60.628906 181.90625 65.605469 198.03125 71.367188 216.699219 C 82.867188 253.960938 97.179688 300.328125 164.085938 310.347656 C 164.089844 310.347656 164.089844 310.347656 164.089844 310.347656 L 164.796875 310.453125 C 166.289062 310.671875 167.683594 310.855469 169.054688 311.015625 C 174.113281 311.617188 179.464844 312 184.964844 312.183594 L 184.964844 344.054688 C 184.964844 345.277344 185.832031 346.296875 186.984375 346.53125 C 187.148438 346.566406 187.320312 346.582031 187.496094 346.582031 C 229.992188 346.582031 269.941406 330.035156 299.988281 299.988281 C 330.035156 269.941406 346.582031 229.988281 346.582031 187.496094 C 346.582031 145 330.035156 105.050781 299.988281 75.003906 " fill-opacity="1" fill-rule="nonzero"/></g></svg>