<svg xmlns="http://www.w3.org/2000/svg" xmlns:xlink="http://www.w3.org/1999/xlink" width="500" zoomAndPan="magnify" viewBox="0 0 375 374.999991" height="500" preserveAspectRatio="xMidYMid meet" version="1.0"><defs><g/><clipPath id="12620aae08"><path d="M 25.875 138.953125 L 122.625 138.953125 L 122.625 235.703125 L 25.875 235.703125 Z M 25.875 138.953125 " clip-rule="nonzero"/></clipPath></defs><g clip-path="url(#12620aae08)"><path fill="#000000" d="M 53.113281 176.074219 C 54.378906 177.972656 55.03125 180.195312 55.066406 182.695312 C 52.773438 181.695312 50.976562 180.234375 49.714844 178.335938 C 48.449219 176.4375 47.796875 174.214844 47.761719 171.710938 C 50.054688 172.710938 51.851562 174.175781 53.113281 176.074219 Z M 55.554688 184.546875 C 55.640625 184.578125 55.726562 184.59375 55.816406 184.59375 C 55.964844 184.59375 56.113281 184.550781 56.242188 184.464844 C 56.445312 184.328125 56.574219 184.105469 56.585938 183.863281 C 56.765625 180.578125 56.03125 177.667969 54.398438 175.21875 C 52.769531 172.765625 50.371094 170.964844 47.269531 169.859375 C 47.042969 169.777344 46.789062 169.808594 46.585938 169.945312 C 46.382812 170.078125 46.253906 170.300781 46.242188 170.542969 C 46.0625 173.832031 46.796875 176.738281 48.425781 179.191406 C 50.058594 181.640625 52.457031 183.445312 55.554688 184.546875 Z M 95.726562 176.074219 C 96.988281 174.175781 98.789062 172.710938 101.082031 171.710938 C 101.046875 174.214844 100.390625 176.4375 99.128906 178.335938 C 97.867188 180.234375 96.066406 181.695312 93.773438 182.695312 C 93.808594 180.195312 94.464844 177.972656 95.726562 176.074219 Z M 92.597656 184.464844 C 92.726562 184.550781 92.875 184.59375 93.027344 184.59375 C 93.113281 184.59375 93.199219 184.578125 93.285156 184.546875 C 96.382812 183.445312 98.785156 181.640625 100.414062 179.191406 C 102.042969 176.738281 102.78125 173.832031 102.601562 170.542969 C 102.585938 170.300781 102.460938 170.078125 102.257812 169.945312 C 102.054688 169.808594 101.800781 169.777344 101.570312 169.859375 C 98.472656 170.964844 96.070312 172.765625 94.441406 175.21875 C 92.8125 177.667969 92.074219 180.578125 92.253906 183.863281 C 92.269531 184.105469 92.394531 184.328125 92.597656 184.464844 Z M 68.226562 223.5625 C 68.226562 223.546875 68.226562 223.53125 68.230469 223.515625 C 68.25 223.28125 68.269531 223.046875 68.289062 222.8125 C 68.394531 221.640625 68.523438 220.503906 68.671875 219.402344 C 68.746094 218.851562 68.828125 218.308594 68.914062 217.773438 C 68.953125 217.507812 69 217.242188 69.042969 216.980469 C 69.191406 216.132812 69.351562 215.304688 69.523438 214.5 C 70.21875 211.308594 71.132812 208.441406 72.28125 205.882812 C 72.292969 205.859375 72.300781 205.835938 72.3125 205.816406 C 72.804688 204.71875 73.34375 203.679688 73.925781 202.695312 C 74.285156 202.082031 74.660156 201.488281 75.054688 200.917969 C 75.058594 200.917969 75.058594 200.917969 75.058594 200.917969 C 75.265625 200.613281 75.480469 200.3125 75.699219 200.023438 C 78.972656 195.648438 83.234375 192.667969 89.027344 190.691406 C 89.171875 190.640625 89.3125 190.59375 89.453125 190.546875 C 93.417969 189.238281 97.476562 188.578125 101.398438 187.941406 C 105.582031 187.257812 109.375 186.640625 112.464844 185.355469 C 110.765625 188.234375 109.632812 191.90625 108.382812 195.957031 C 104.824219 207.484375 100.789062 220.550781 81.320312 223.460938 C 81.261719 223.472656 81.195312 223.480469 81.113281 223.492188 C 80.875 223.527344 80.628906 223.5625 80.390625 223.59375 C 78.519531 223.835938 76.511719 223.980469 74.421875 224.027344 C 72.527344 223.988281 70.695312 223.863281 68.976562 223.65625 C 68.726562 223.628906 68.480469 223.597656 68.226562 223.5625 Z M 40.460938 195.957031 C 39.210938 191.90625 38.078125 188.234375 36.378906 185.355469 C 39.464844 186.640625 43.257812 187.257812 47.441406 187.9375 C 51.332031 188.574219 55.355469 189.226562 59.292969 190.515625 C 59.46875 190.570312 59.640625 190.628906 59.816406 190.691406 C 60.195312 190.820312 60.570312 190.953125 60.9375 191.09375 C 61.0625 191.140625 61.179688 191.1875 61.300781 191.234375 C 61.542969 191.332031 61.785156 191.425781 62.019531 191.523438 C 62.160156 191.582031 62.296875 191.644531 62.433594 191.703125 C 62.648438 191.796875 62.859375 191.886719 63.066406 191.980469 C 63.210938 192.046875 63.351562 192.117188 63.492188 192.183594 C 63.6875 192.277344 63.882812 192.371094 64.074219 192.464844 C 64.21875 192.539062 64.359375 192.613281 64.5 192.691406 C 64.683594 192.785156 64.867188 192.882812 65.046875 192.980469 C 65.191406 193.058594 65.328125 193.140625 65.46875 193.222656 C 65.640625 193.320312 65.816406 193.421875 65.984375 193.523438 C 66.125 193.605469 66.261719 193.695312 66.398438 193.78125 C 66.5625 193.886719 66.726562 193.988281 66.890625 194.097656 C 67.023438 194.1875 67.15625 194.277344 67.289062 194.371094 C 67.445312 194.480469 67.605469 194.589844 67.757812 194.699219 C 67.890625 194.796875 68.019531 194.894531 68.148438 194.992188 C 68.300781 195.105469 68.449219 195.21875 68.597656 195.335938 C 68.726562 195.433594 68.847656 195.539062 68.976562 195.644531 C 69.117188 195.761719 69.261719 195.878906 69.402344 196 C 69.527344 196.109375 69.648438 196.21875 69.769531 196.328125 C 69.90625 196.449219 70.046875 196.574219 70.179688 196.699219 C 70.300781 196.8125 70.417969 196.929688 70.535156 197.042969 C 70.667969 197.171875 70.796875 197.300781 70.925781 197.433594 C 71.042969 197.550781 71.15625 197.671875 71.269531 197.792969 C 71.394531 197.929688 71.519531 198.0625 71.644531 198.199219 C 71.757812 198.324219 71.867188 198.449219 71.976562 198.578125 C 72.097656 198.71875 72.21875 198.859375 72.335938 199 C 72.441406 199.128906 72.550781 199.265625 72.65625 199.398438 C 72.769531 199.542969 72.886719 199.6875 73 199.835938 C 73.101562 199.972656 73.207031 200.109375 73.308594 200.25 C 73.367188 200.328125 73.421875 200.410156 73.480469 200.492188 C 73.476562 200.496094 73.472656 200.503906 73.464844 200.511719 C 73.257812 200.828125 73.050781 201.152344 72.851562 201.480469 C 72.832031 201.511719 72.808594 201.546875 72.789062 201.582031 C 72.59375 201.90625 72.402344 202.234375 72.214844 202.570312 C 72.195312 202.609375 72.171875 202.652344 72.148438 202.691406 C 71.964844 203.023438 71.785156 203.363281 71.613281 203.703125 C 71.589844 203.75 71.566406 203.796875 71.539062 203.84375 C 71.371094 204.1875 71.203125 204.53125 71.039062 204.882812 C 71.015625 204.9375 70.992188 204.988281 70.96875 205.039062 C 70.808594 205.390625 70.652344 205.746094 70.503906 206.109375 C 70.480469 206.164062 70.457031 206.21875 70.433594 206.277344 C 70.28125 206.636719 70.136719 207.003906 69.996094 207.378906 C 69.972656 207.4375 69.953125 207.496094 69.929688 207.554688 C 69.789062 207.929688 69.65625 208.308594 69.523438 208.691406 C 69.503906 208.753906 69.480469 208.816406 69.460938 208.875 C 69.332031 209.261719 69.207031 209.65625 69.085938 210.054688 C 69.066406 210.117188 69.046875 210.179688 69.027344 210.242188 C 68.90625 210.644531 68.789062 211.050781 68.679688 211.460938 C 68.660156 211.523438 68.644531 211.585938 68.625 211.652344 C 68.515625 212.066406 68.40625 212.488281 68.304688 212.917969 C 68.289062 212.976562 68.273438 213.039062 68.261719 213.101562 C 68.15625 213.535156 68.058594 213.972656 67.964844 214.417969 C 67.953125 214.476562 67.941406 214.535156 67.925781 214.59375 C 67.832031 215.046875 67.742188 215.507812 67.65625 215.972656 C 67.648438 216.023438 67.636719 216.078125 67.628906 216.128906 C 67.542969 216.605469 67.457031 217.085938 67.382812 217.570312 C 67.375 217.617188 67.367188 217.664062 67.359375 217.707031 C 67.28125 218.207031 67.207031 218.707031 67.140625 219.21875 C 67.132812 219.253906 67.128906 219.292969 67.125 219.328125 C 67.054688 219.851562 66.988281 220.382812 66.929688 220.921875 C 66.925781 220.941406 66.925781 220.960938 66.921875 220.980469 C 66.863281 221.535156 66.804688 222.097656 66.753906 222.671875 C 66.734375 222.886719 66.714844 223.105469 66.695312 223.320312 C 66.695312 223.324219 66.695312 223.328125 66.695312 223.332031 C 47.9375 220.179688 43.96875 207.320312 40.460938 195.957031 Z M 74.421875 170.769531 C 80.730469 174.816406 85.578125 181.578125 87.839844 189.472656 C 87.75 189.503906 87.660156 189.542969 87.570312 189.574219 C 87.410156 189.632812 87.253906 189.695312 87.09375 189.753906 C 86.878906 189.839844 86.667969 189.921875 86.457031 190.011719 C 86.304688 190.074219 86.152344 190.136719 86 190.203125 C 85.789062 190.292969 85.582031 190.382812 85.375 190.476562 C 85.230469 190.542969 85.082031 190.609375 84.941406 190.675781 C 84.726562 190.773438 84.519531 190.878906 84.308594 190.980469 C 84.179688 191.046875 84.046875 191.113281 83.914062 191.179688 C 83.6875 191.296875 83.464844 191.417969 83.242188 191.539062 C 83.136719 191.597656 83.027344 191.652344 82.921875 191.710938 C 82.601562 191.894531 82.285156 192.078125 81.976562 192.265625 C 81.972656 192.269531 81.96875 192.269531 81.964844 192.273438 C 81.648438 192.46875 81.339844 192.667969 81.035156 192.871094 C 80.941406 192.933594 80.851562 193 80.757812 193.0625 C 80.550781 193.207031 80.34375 193.347656 80.140625 193.496094 C 80.03125 193.578125 79.921875 193.660156 79.808594 193.746094 C 79.632812 193.878906 79.453125 194.011719 79.277344 194.152344 C 79.164062 194.242188 79.050781 194.335938 78.933594 194.429688 C 78.769531 194.566406 78.605469 194.703125 78.445312 194.839844 C 78.328125 194.9375 78.214844 195.039062 78.101562 195.140625 C 77.945312 195.277344 77.792969 195.417969 77.640625 195.5625 C 77.527344 195.667969 77.417969 195.769531 77.308594 195.878906 C 77.15625 196.023438 77.007812 196.167969 76.863281 196.316406 C 76.757812 196.425781 76.648438 196.535156 76.542969 196.644531 C 76.398438 196.796875 76.253906 196.953125 76.109375 197.113281 C 76.011719 197.222656 75.910156 197.332031 75.8125 197.441406 C 75.664062 197.609375 75.519531 197.78125 75.375 197.957031 C 75.285156 198.058594 75.199219 198.164062 75.109375 198.269531 C 74.945312 198.472656 74.785156 198.683594 74.625 198.890625 C 74.5625 198.972656 74.5 199.050781 74.4375 199.128906 C 74.433594 199.136719 74.425781 199.144531 74.421875 199.152344 C 74.414062 199.144531 74.40625 199.136719 74.402344 199.128906 C 74.34375 199.054688 74.285156 198.980469 74.226562 198.90625 C 74.0625 198.691406 73.898438 198.476562 73.730469 198.269531 C 73.644531 198.164062 73.558594 198.0625 73.472656 197.960938 C 73.324219 197.785156 73.179688 197.613281 73.03125 197.441406 C 72.933594 197.332031 72.832031 197.222656 72.734375 197.113281 C 72.589844 196.957031 72.445312 196.800781 72.300781 196.644531 C 72.195312 196.535156 72.085938 196.425781 71.980469 196.316406 C 71.832031 196.171875 71.6875 196.023438 71.539062 195.878906 C 71.425781 195.773438 71.3125 195.667969 71.199219 195.5625 C 71.050781 195.421875 70.898438 195.28125 70.746094 195.144531 C 70.628906 195.042969 70.511719 194.9375 70.394531 194.839844 C 70.238281 194.703125 70.078125 194.570312 69.914062 194.4375 C 69.796875 194.34375 69.679688 194.246094 69.558594 194.148438 C 69.390625 194.015625 69.21875 193.886719 69.046875 193.757812 C 68.929688 193.667969 68.816406 193.578125 68.695312 193.492188 C 68.503906 193.355469 68.308594 193.21875 68.113281 193.085938 C 68.011719 193.011719 67.90625 192.9375 67.800781 192.867188 C 67.511719 192.671875 67.214844 192.484375 66.914062 192.296875 C 66.871094 192.269531 66.824219 192.246094 66.777344 192.21875 C 66.5 192.046875 66.214844 191.878906 65.925781 191.714844 C 65.808594 191.648438 65.683594 191.585938 65.566406 191.519531 C 65.355469 191.40625 65.148438 191.292969 64.933594 191.183594 C 64.796875 191.109375 64.652344 191.042969 64.511719 190.972656 C 64.3125 190.875 64.113281 190.773438 63.910156 190.679688 C 63.761719 190.609375 63.609375 190.539062 63.457031 190.472656 C 63.257812 190.382812 63.054688 190.292969 62.851562 190.203125 C 62.695312 190.136719 62.535156 190.070312 62.378906 190.007812 C 62.171875 189.921875 61.964844 189.839844 61.753906 189.757812 C 61.59375 189.695312 61.433594 189.632812 61.269531 189.574219 C 61.179688 189.539062 61.09375 189.503906 61.003906 189.46875 C 63.265625 181.574219 68.117188 174.8125 74.421875 170.769531 Z M 108.746094 153.171875 C 99.578125 144.003906 87.386719 138.953125 74.421875 138.953125 C 61.453125 138.953125 49.261719 144.003906 40.09375 153.171875 C 30.925781 162.339844 25.875 174.53125 25.875 187.5 C 25.875 199.015625 29.980469 210.179688 37.429688 218.9375 C 44.796875 227.597656 54.992188 233.421875 66.132812 235.339844 C 66.550781 235.410156 66.953125 235.128906 67.023438 234.710938 C 67.097656 234.289062 66.8125 233.890625 66.394531 233.816406 C 43.8125 229.933594 27.417969 210.453125 27.417969 187.5 C 27.417969 161.582031 48.503906 140.5 74.421875 140.5 C 100.335938 140.5 121.421875 161.582031 121.421875 187.5 C 121.421875 213.15625 100.753906 234.078125 75.191406 234.492188 L 75.191406 225.550781 C 77.074219 225.488281 78.886719 225.34375 80.589844 225.125 C 80.84375 225.089844 81.097656 225.054688 81.324219 225.019531 C 81.402344 225.011719 81.480469 225 81.554688 224.988281 C 101.980469 221.933594 106.347656 207.78125 109.855469 196.410156 C 111.613281 190.714844 113.132812 185.792969 116.269531 183.0625 C 116.589844 182.785156 116.625 182.296875 116.34375 181.976562 C 116.0625 181.652344 115.578125 181.621094 115.253906 181.898438 C 115.253906 181.902344 115.253906 181.902344 115.25 181.902344 C 112.117188 184.628906 107.035156 185.457031 101.152344 186.414062 C 97.277344 187.046875 93.277344 187.699219 89.304688 188.972656 C 86.878906 180.578125 81.636719 173.402344 74.828125 169.199219 C 74.578125 169.046875 74.265625 169.046875 74.015625 169.199219 C 67.207031 173.398438 61.964844 180.574219 59.539062 188.972656 C 55.566406 187.699219 51.5625 187.046875 47.6875 186.414062 C 41.804688 185.457031 36.722656 184.628906 33.589844 181.902344 C 33.589844 181.902344 33.585938 181.898438 33.585938 181.898438 C 33.265625 181.621094 32.777344 181.652344 32.496094 181.976562 C 32.21875 182.296875 32.25 182.785156 32.574219 183.0625 C 35.707031 185.792969 37.226562 190.714844 38.984375 196.410156 C 42.496094 207.78125 46.863281 221.929688 67.277344 224.988281 L 67.496094 225.019531 C 67.949219 225.085938 68.375 225.140625 68.792969 225.191406 C 70.335938 225.375 71.96875 225.492188 73.648438 225.546875 L 73.648438 235.273438 C 73.648438 235.644531 73.914062 235.957031 74.265625 236.027344 C 74.316406 236.039062 74.367188 236.042969 74.421875 236.042969 C 87.386719 236.042969 99.578125 230.996094 108.746094 221.824219 C 117.914062 212.65625 122.964844 200.464844 122.964844 187.5 C 122.964844 174.53125 117.914062 162.339844 108.746094 153.171875 " fill-opacity="1" fill-rule="nonzero"/></g><g fill="#000000" fill-opacity="1"><g transform="translate(127.697967, 234.435573)"><g><path d="M 0.84375 0 L 0.84375 -6.21875 L 5.515625 -6.21875 L 5.515625 0 L 4.734375 0 L 4.734375 -5.53125 L 1.625 -5.53125 L 1.625 0 Z M 0.84375 0 "/></g></g></g><g fill="#000000" fill-opacity="1"><g transform="translate(135.882568, 234.435573)"><g><path d="M 2.484375 -6.21875 C 3.296875 -6.21875 3.890625 -6.054688 4.265625 -5.734375 C 4.640625 -5.410156 4.828125 -4.960938 4.828125 -4.390625 C 4.828125 -4.046875 4.75 -3.722656 4.59375 -3.421875 C 4.4375 -3.117188 4.175781 -2.875 3.8125 -2.6875 C 3.445312 -2.507812 2.957031 -2.421875 2.34375 -2.421875 L 1.625 -2.421875 L 1.625 0 L 0.84375 0 L 0.84375 -6.21875 Z M 2.421875 -5.546875 L 1.625 -5.546875 L 1.625 -3.09375 L 2.25 -3.09375 C 2.84375 -3.09375 3.285156 -3.1875 3.578125 -3.375 C 3.867188 -3.5625 4.015625 -3.890625 4.015625 -4.359375 C 4.015625 -4.753906 3.882812 -5.050781 3.625 -5.25 C 3.363281 -5.445312 2.960938 -5.546875 2.421875 -5.546875 Z M 2.421875 -5.546875 "/></g></g></g><g fill="#000000" fill-opacity="1"><g transform="translate(142.971324, 234.435573)"><g><path d="M 6.265625 -3.109375 C 6.265625 -2.472656 6.15625 -1.914062 5.9375 -1.4375 C 5.71875 -0.957031 5.394531 -0.582031 4.96875 -0.3125 C 4.539062 -0.0390625 4.019531 0.09375 3.40625 0.09375 C 2.757812 0.09375 2.222656 -0.0390625 1.796875 -0.3125 C 1.367188 -0.582031 1.050781 -0.957031 0.84375 -1.4375 C 0.632812 -1.914062 0.53125 -2.476562 0.53125 -3.125 C 0.53125 -3.757812 0.632812 -4.316406 0.84375 -4.796875 C 1.050781 -5.273438 1.367188 -5.644531 1.796875 -5.90625 C 2.222656 -6.175781 2.757812 -6.3125 3.40625 -6.3125 C 4.03125 -6.3125 4.550781 -6.175781 4.96875 -5.90625 C 5.394531 -5.644531 5.71875 -5.273438 5.9375 -4.796875 C 6.15625 -4.316406 6.265625 -3.753906 6.265625 -3.109375 Z M 1.359375 -3.109375 C 1.359375 -2.328125 1.519531 -1.710938 1.84375 -1.265625 C 2.175781 -0.816406 2.695312 -0.59375 3.40625 -0.59375 C 4.101562 -0.59375 4.613281 -0.816406 4.9375 -1.265625 C 5.269531 -1.710938 5.4375 -2.328125 5.4375 -3.109375 C 5.4375 -3.898438 5.273438 -4.515625 4.953125 -4.953125 C 4.628906 -5.398438 4.113281 -5.625 3.40625 -5.625 C 2.695312 -5.625 2.175781 -5.398438 1.84375 -4.953125 C 1.519531 -4.515625 1.359375 -3.898438 1.359375 -3.109375 Z M 1.359375 -3.109375 "/></g></g></g><g fill="#000000" fill-opacity="1"><g transform="translate(151.590781, 234.435573)"><g><path d="M 3.875 -6.296875 L 3.875 -5.53125 C 4.550781 -5.519531 5.082031 -5.410156 5.46875 -5.203125 C 5.863281 -4.992188 6.140625 -4.710938 6.296875 -4.359375 C 6.460938 -4.015625 6.546875 -3.632812 6.546875 -3.21875 C 6.546875 -2.9375 6.503906 -2.65625 6.421875 -2.375 C 6.335938 -2.101562 6.191406 -1.859375 5.984375 -1.640625 C 5.785156 -1.421875 5.515625 -1.238281 5.171875 -1.09375 C 4.828125 -0.957031 4.394531 -0.882812 3.875 -0.875 L 3.875 0.09375 L 3.109375 0.09375 L 3.109375 -0.875 C 2.578125 -0.882812 2.140625 -0.957031 1.796875 -1.09375 C 1.453125 -1.238281 1.179688 -1.425781 0.984375 -1.65625 C 0.785156 -1.882812 0.644531 -2.132812 0.5625 -2.40625 C 0.476562 -2.675781 0.4375 -2.945312 0.4375 -3.21875 C 0.4375 -3.625 0.519531 -4 0.6875 -4.34375 C 0.851562 -4.695312 1.128906 -4.976562 1.515625 -5.1875 C 1.910156 -5.40625 2.441406 -5.519531 3.109375 -5.53125 L 3.109375 -6.296875 Z M 3.109375 -4.875 C 2.640625 -4.863281 2.265625 -4.785156 1.984375 -4.640625 C 1.710938 -4.503906 1.519531 -4.3125 1.40625 -4.0625 C 1.289062 -3.820312 1.234375 -3.546875 1.234375 -3.234375 C 1.234375 -2.710938 1.378906 -2.300781 1.671875 -2 C 1.972656 -1.695312 2.453125 -1.535156 3.109375 -1.515625 Z M 3.875 -4.875 L 3.875 -1.515625 C 4.550781 -1.535156 5.03125 -1.703125 5.3125 -2.015625 C 5.601562 -2.328125 5.75 -2.734375 5.75 -3.234375 C 5.75 -3.554688 5.691406 -3.835938 5.578125 -4.078125 C 5.460938 -4.328125 5.265625 -4.519531 4.984375 -4.65625 C 4.710938 -4.789062 4.34375 -4.863281 3.875 -4.875 Z M 3.875 -4.875 "/></g></g></g><g fill="#000000" fill-opacity="1"><g transform="translate(160.410276, 234.435573)"><g><path d="M 4.3125 0 L 0.84375 0 L 0.84375 -6.21875 L 4.3125 -6.21875 L 4.3125 -5.53125 L 1.625 -5.53125 L 1.625 -3.578125 L 4.15625 -3.578125 L 4.15625 -2.90625 L 1.625 -2.90625 L 1.625 -0.6875 L 4.3125 -0.6875 Z M 4.3125 0 "/></g></g></g><g fill="#000000" fill-opacity="1"><g transform="translate(167.072869, 234.435573)"><g><path d="M 3.5 -5.609375 C 2.832031 -5.609375 2.304688 -5.382812 1.921875 -4.9375 C 1.546875 -4.488281 1.359375 -3.878906 1.359375 -3.109375 C 1.359375 -2.335938 1.535156 -1.722656 1.890625 -1.265625 C 2.242188 -0.816406 2.78125 -0.59375 3.5 -0.59375 C 3.769531 -0.59375 4.023438 -0.613281 4.265625 -0.65625 C 4.503906 -0.707031 4.742188 -0.769531 4.984375 -0.84375 L 4.984375 -0.171875 C 4.753906 -0.078125 4.515625 -0.0078125 4.265625 0.03125 C 4.023438 0.0703125 3.734375 0.09375 3.390625 0.09375 C 2.753906 0.09375 2.222656 -0.0351562 1.796875 -0.296875 C 1.378906 -0.566406 1.0625 -0.941406 0.84375 -1.421875 C 0.632812 -1.898438 0.53125 -2.460938 0.53125 -3.109375 C 0.53125 -3.742188 0.644531 -4.296875 0.875 -4.765625 C 1.101562 -5.242188 1.441406 -5.617188 1.890625 -5.890625 C 2.335938 -6.160156 2.878906 -6.296875 3.515625 -6.296875 C 4.171875 -6.296875 4.742188 -6.175781 5.234375 -5.9375 L 4.921875 -5.28125 C 4.722656 -5.363281 4.503906 -5.4375 4.265625 -5.5 C 4.035156 -5.570312 3.78125 -5.609375 3.5 -5.609375 Z M 3.5 -5.609375 "/></g></g></g><g fill="#000000" fill-opacity="1"><g transform="translate(174.39645, 234.435573)"><g><path d="M 2.59375 0 L 0.34375 0 L 0.34375 -0.453125 L 1.078125 -0.625 L 1.078125 -5.59375 L 0.34375 -5.765625 L 0.34375 -6.21875 L 2.59375 -6.21875 L 2.59375 -5.765625 L 1.859375 -5.59375 L 1.859375 -0.625 L 2.59375 -0.453125 Z M 2.59375 0 "/></g></g></g><g fill="#000000" fill-opacity="1"><g transform="translate(179.17175, 234.435573)"><g><path d="M 0.859375 -6.21875 L 1.578125 -6.21875 L 1.578125 -2.796875 C 1.578125 -2.597656 1.570312 -2.378906 1.5625 -2.140625 C 1.5625 -1.910156 1.554688 -1.695312 1.546875 -1.5 C 1.535156 -1.300781 1.523438 -1.160156 1.515625 -1.078125 L 1.5625 -1.078125 L 4.984375 -6.21875 L 5.84375 -6.21875 L 5.84375 0 L 5.125 0 L 5.125 -3.375 C 5.125 -3.582031 5.125 -3.8125 5.125 -4.0625 C 5.132812 -4.3125 5.144531 -4.535156 5.15625 -4.734375 C 5.164062 -4.941406 5.175781 -5.085938 5.1875 -5.171875 L 5.15625 -5.171875 L 1.71875 0 L 0.859375 0 Z M 5.078125 -8.140625 C 5.035156 -7.703125 4.890625 -7.375 4.640625 -7.15625 C 4.390625 -6.9375 3.988281 -6.828125 3.4375 -6.828125 C 2.863281 -6.828125 2.457031 -6.9375 2.21875 -7.15625 C 1.988281 -7.375 1.859375 -7.703125 1.828125 -8.140625 L 2.546875 -8.140625 C 2.578125 -7.828125 2.65625 -7.617188 2.78125 -7.515625 C 2.914062 -7.410156 3.140625 -7.359375 3.453125 -7.359375 C 3.710938 -7.359375 3.921875 -7.410156 4.078125 -7.515625 C 4.234375 -7.628906 4.328125 -7.835938 4.359375 -8.140625 Z M 5.078125 -8.140625 "/></g></g></g><g fill="#000000" fill-opacity="1"><g transform="translate(187.678144, 234.435573)"><g><path d="M 5.59375 0 L 4.8125 0 L 4.8125 -2.890625 L 1.625 -2.890625 L 1.625 0 L 0.84375 0 L 0.84375 -6.21875 L 1.625 -6.21875 L 1.625 -3.578125 L 4.8125 -3.578125 L 4.8125 -6.21875 L 5.59375 -6.21875 Z M 5.59375 0 "/></g></g></g><g fill="#000000" fill-opacity="1"><g transform="translate(195.949712, 234.435573)"><g><path d="M 0.859375 -6.21875 L 1.578125 -6.21875 L 1.578125 -2.796875 C 1.578125 -2.597656 1.570312 -2.378906 1.5625 -2.140625 C 1.5625 -1.910156 1.554688 -1.695312 1.546875 -1.5 C 1.535156 -1.300781 1.523438 -1.160156 1.515625 -1.078125 L 1.5625 -1.078125 L 4.984375 -6.21875 L 5.84375 -6.21875 L 5.84375 0 L 5.125 0 L 5.125 -3.375 C 5.125 -3.582031 5.125 -3.8125 5.125 -4.0625 C 5.132812 -4.3125 5.144531 -4.535156 5.15625 -4.734375 C 5.164062 -4.941406 5.175781 -5.085938 5.1875 -5.171875 L 5.15625 -5.171875 L 1.71875 0 L 0.859375 0 Z M 0.859375 -6.21875 "/></g></g></g><g fill="#000000" fill-opacity="1"><g transform="translate(204.456111, 234.435573)"><g><path d="M 0.859375 -6.21875 L 1.578125 -6.21875 L 1.578125 -2.796875 C 1.578125 -2.597656 1.570312 -2.378906 1.5625 -2.140625 C 1.5625 -1.910156 1.554688 -1.695312 1.546875 -1.5 C 1.535156 -1.300781 1.523438 -1.160156 1.515625 -1.078125 L 1.5625 -1.078125 L 4.984375 -6.21875 L 5.84375 -6.21875 L 5.84375 0 L 5.125 0 L 5.125 -3.375 C 5.125 -3.582031 5.125 -3.8125 5.125 -4.0625 C 5.132812 -4.3125 5.144531 -4.535156 5.15625 -4.734375 C 5.164062 -4.941406 5.175781 -5.085938 5.1875 -5.171875 L 5.15625 -5.171875 L 1.71875 0 L 0.859375 0 Z M 5.078125 -8.140625 C 5.035156 -7.703125 4.890625 -7.375 4.640625 -7.15625 C 4.390625 -6.9375 3.988281 -6.828125 3.4375 -6.828125 C 2.863281 -6.828125 2.457031 -6.9375 2.21875 -7.15625 C 1.988281 -7.375 1.859375 -7.703125 1.828125 -8.140625 L 2.546875 -8.140625 C 2.578125 -7.828125 2.65625 -7.617188 2.78125 -7.515625 C 2.914062 -7.410156 3.140625 -7.359375 3.453125 -7.359375 C 3.710938 -7.359375 3.921875 -7.410156 4.078125 -7.515625 C 4.234375 -7.628906 4.328125 -7.835938 4.359375 -8.140625 Z M 5.078125 -8.140625 "/></g></g></g><g fill="#000000" fill-opacity="1"><g transform="translate(212.962509, 234.435573)"><g/></g></g><g fill="#000000" fill-opacity="1"><g transform="translate(217.018972, 234.435573)"><g><path d="M 5.03125 -6.21875 L 5.03125 -0.703125 L 5.828125 -0.703125 L 5.828125 1.640625 L 5.078125 1.640625 L 5.078125 0 L 0.796875 0 L 0.796875 1.640625 L 0.046875 1.640625 L 0.046875 -0.703125 L 0.53125 -0.703125 C 0.738281 -1.054688 0.9375 -1.457031 1.125 -1.90625 C 1.3125 -2.351562 1.476562 -2.820312 1.625 -3.3125 C 1.769531 -3.800781 1.890625 -4.289062 1.984375 -4.78125 C 2.078125 -5.28125 2.132812 -5.757812 2.15625 -6.21875 Z M 4.25 -5.515625 L 2.84375 -5.515625 C 2.820312 -5.171875 2.765625 -4.785156 2.671875 -4.359375 C 2.585938 -3.941406 2.472656 -3.507812 2.328125 -3.0625 C 2.191406 -2.625 2.039062 -2.195312 1.875 -1.78125 C 1.71875 -1.375 1.546875 -1.015625 1.359375 -0.703125 L 4.25 -0.703125 Z M 4.25 -5.515625 "/></g></g></g><g fill="#000000" fill-opacity="1"><g transform="translate(224.855689, 234.435573)"><g><path d="M 6.265625 -3.109375 C 6.265625 -2.472656 6.15625 -1.914062 5.9375 -1.4375 C 5.71875 -0.957031 5.394531 -0.582031 4.96875 -0.3125 C 4.539062 -0.0390625 4.019531 0.09375 3.40625 0.09375 C 2.757812 0.09375 2.222656 -0.0390625 1.796875 -0.3125 C 1.367188 -0.582031 1.050781 -0.957031 0.84375 -1.4375 C 0.632812 -1.914062 0.53125 -2.476562 0.53125 -3.125 C 0.53125 -3.757812 0.632812 -4.316406 0.84375 -4.796875 C 1.050781 -5.273438 1.367188 -5.644531 1.796875 -5.90625 C 2.222656 -6.175781 2.757812 -6.3125 3.40625 -6.3125 C 4.03125 -6.3125 4.550781 -6.175781 4.96875 -5.90625 C 5.394531 -5.644531 5.71875 -5.273438 5.9375 -4.796875 C 6.15625 -4.316406 6.265625 -3.753906 6.265625 -3.109375 Z M 1.359375 -3.109375 C 1.359375 -2.328125 1.519531 -1.710938 1.84375 -1.265625 C 2.175781 -0.816406 2.695312 -0.59375 3.40625 -0.59375 C 4.101562 -0.59375 4.613281 -0.816406 4.9375 -1.265625 C 5.269531 -1.710938 5.4375 -2.328125 5.4375 -3.109375 C 5.4375 -3.898438 5.273438 -4.515625 4.953125 -4.953125 C 4.628906 -5.398438 4.113281 -5.625 3.40625 -5.625 C 2.695312 -5.625 2.175781 -5.398438 1.84375 -4.953125 C 1.519531 -4.515625 1.359375 -3.898438 1.359375 -3.109375 Z M 1.359375 -3.109375 "/></g></g></g><g fill="#000000" fill-opacity="1"><g transform="translate(233.47515, 234.435573)"><g><path d="M 4.359375 -6.21875 L 4.359375 -5.515625 L 1.625 -5.515625 L 1.625 0 L 0.84375 0 L 0.84375 -6.21875 Z M 4.359375 -6.21875 "/></g></g></g><g fill="#000000" fill-opacity="1"><g transform="translate(239.85944, 234.435573)"><g><path d="M 5.3125 0 L 4.53125 0 L 4.53125 -5.53125 L 2.5625 -5.53125 C 2.507812 -5.09375 2.453125 -4.640625 2.390625 -4.171875 C 2.328125 -3.703125 2.265625 -3.25 2.203125 -2.8125 C 2.140625 -2.382812 2.078125 -2.019531 2.015625 -1.71875 C 1.929688 -1.320312 1.832031 -0.988281 1.71875 -0.71875 C 1.613281 -0.457031 1.46875 -0.253906 1.28125 -0.109375 C 1.101562 0.0234375 0.867188 0.09375 0.578125 0.09375 C 0.472656 0.09375 0.367188 0.0820312 0.265625 0.0625 C 0.171875 0.0390625 0.0859375 0.015625 0.015625 -0.015625 L 0.015625 -0.65625 C 0.078125 -0.632812 0.144531 -0.613281 0.21875 -0.59375 C 0.300781 -0.570312 0.390625 -0.5625 0.484375 -0.5625 C 0.660156 -0.5625 0.796875 -0.628906 0.890625 -0.765625 C 0.992188 -0.910156 1.070312 -1.085938 1.125 -1.296875 C 1.1875 -1.515625 1.238281 -1.726562 1.28125 -1.9375 C 1.332031 -2.15625 1.390625 -2.476562 1.453125 -2.90625 C 1.523438 -3.332031 1.597656 -3.828125 1.671875 -4.390625 C 1.753906 -4.960938 1.835938 -5.570312 1.921875 -6.21875 L 5.3125 -6.21875 Z M 5.3125 0 "/></g></g></g><g fill="#000000" fill-opacity="1"><g transform="translate(247.844005, 234.435573)"><g><path d="M 2.71875 -2.578125 L 1.109375 0 L 0.1875 0 L 1.9375 -2.71875 C 1.707031 -2.78125 1.492188 -2.878906 1.296875 -3.015625 C 1.109375 -3.148438 0.953125 -3.332031 0.828125 -3.5625 C 0.710938 -3.800781 0.65625 -4.101562 0.65625 -4.46875 C 0.65625 -5.03125 0.847656 -5.460938 1.234375 -5.765625 C 1.617188 -6.066406 2.195312 -6.21875 2.96875 -6.21875 L 4.71875 -6.21875 L 4.71875 0 L 3.9375 0 L 3.9375 -2.578125 Z M 3.9375 -5.546875 L 3 -5.546875 C 2.5 -5.546875 2.117188 -5.457031 1.859375 -5.28125 C 1.597656 -5.113281 1.46875 -4.832031 1.46875 -4.4375 C 1.46875 -4.050781 1.59375 -3.753906 1.84375 -3.546875 C 2.101562 -3.335938 2.5 -3.234375 3.03125 -3.234375 L 3.9375 -3.234375 Z M 3.9375 -5.546875 "/></g></g></g><g fill="#000000" fill-opacity="1"><g transform="translate(255.228463, 234.435573)"><g><path d="M 5.03125 -6.21875 L 5.03125 -0.703125 L 5.828125 -0.703125 L 5.828125 1.640625 L 5.078125 1.640625 L 5.078125 0 L 0.796875 0 L 0.796875 1.640625 L 0.046875 1.640625 L 0.046875 -0.703125 L 0.53125 -0.703125 C 0.738281 -1.054688 0.9375 -1.457031 1.125 -1.90625 C 1.3125 -2.351562 1.476562 -2.820312 1.625 -3.3125 C 1.769531 -3.800781 1.890625 -4.289062 1.984375 -4.78125 C 2.078125 -5.28125 2.132812 -5.757812 2.15625 -6.21875 Z M 4.25 -5.515625 L 2.84375 -5.515625 C 2.820312 -5.171875 2.765625 -4.785156 2.671875 -4.359375 C 2.585938 -3.941406 2.472656 -3.507812 2.328125 -3.0625 C 2.191406 -2.625 2.039062 -2.195312 1.875 -1.78125 C 1.71875 -1.375 1.546875 -1.015625 1.359375 -0.703125 L 4.25 -0.703125 Z M 4.25 -5.515625 "/></g></g></g><g fill="#000000" fill-opacity="1"><g transform="translate(263.06518, 234.435573)"><g/></g></g><g fill="#000000" fill-opacity="1"><g transform="translate(267.121642, 234.435573)"><g><path d="M 4.515625 -4.765625 C 4.515625 -4.335938 4.378906 -4 4.109375 -3.75 C 3.847656 -3.507812 3.492188 -3.351562 3.046875 -3.28125 L 3.046875 -3.25 C 3.566406 -3.175781 3.960938 -3.007812 4.234375 -2.75 C 4.503906 -2.5 4.640625 -2.171875 4.640625 -1.765625 C 4.640625 -1.210938 4.429688 -0.765625 4.015625 -0.421875 C 3.597656 -0.078125 2.972656 0.09375 2.140625 0.09375 C 1.804688 0.09375 1.484375 0.0664062 1.171875 0.015625 C 0.867188 -0.0351562 0.585938 -0.125 0.328125 -0.25 L 0.328125 -0.96875 C 0.597656 -0.832031 0.894531 -0.726562 1.21875 -0.65625 C 1.539062 -0.59375 1.84375 -0.5625 2.125 -0.5625 C 2.6875 -0.5625 3.109375 -0.664062 3.390625 -0.875 C 3.679688 -1.082031 3.828125 -1.378906 3.828125 -1.765625 C 3.828125 -2.148438 3.65625 -2.429688 3.3125 -2.609375 C 2.976562 -2.796875 2.515625 -2.890625 1.921875 -2.890625 L 1.03125 -2.890625 L 1.03125 -3.546875 L 1.875 -3.546875 C 2.488281 -3.546875 2.945312 -3.644531 3.25 -3.84375 C 3.550781 -4.050781 3.703125 -4.332031 3.703125 -4.6875 C 3.703125 -5 3.585938 -5.238281 3.359375 -5.40625 C 3.128906 -5.570312 2.828125 -5.65625 2.453125 -5.65625 C 2.054688 -5.65625 1.726562 -5.601562 1.46875 -5.5 C 1.21875 -5.40625 0.972656 -5.28125 0.734375 -5.125 L 0.359375 -5.65625 C 0.597656 -5.832031 0.894531 -5.984375 1.25 -6.109375 C 1.613281 -6.234375 2.019531 -6.296875 2.46875 -6.296875 C 3.132812 -6.296875 3.640625 -6.148438 3.984375 -5.859375 C 4.335938 -5.578125 4.515625 -5.210938 4.515625 -4.765625 Z M 4.515625 -4.765625 "/></g></g></g><g fill="#000000" fill-opacity="1"><g transform="translate(274.062552, 234.435573)"><g><path d="M 4.75 0 L 4 -1.921875 L 1.53125 -1.921875 L 0.796875 0 L 0 0 L 2.421875 -6.234375 L 3.140625 -6.234375 L 5.546875 0 Z M 3.765625 -2.625 L 3.0625 -4.5 C 3.039062 -4.539062 3.007812 -4.625 2.96875 -4.75 C 2.9375 -4.875 2.898438 -5 2.859375 -5.125 C 2.816406 -5.257812 2.785156 -5.363281 2.765625 -5.4375 C 2.722656 -5.25 2.675781 -5.066406 2.625 -4.890625 C 2.570312 -4.722656 2.53125 -4.59375 2.5 -4.5 L 1.796875 -2.625 Z M 3.765625 -2.625 "/></g></g></g><g fill="#000000" fill-opacity="1"><g transform="translate(281.447009, 234.435573)"><g/></g></g><g fill="#000000" fill-opacity="1"><g transform="translate(285.503472, 234.435573)"><g><path d="M 0.84375 -6.21875 L 2.625 -6.21875 C 3.394531 -6.21875 3.976562 -6.097656 4.375 -5.859375 C 4.78125 -5.628906 4.984375 -5.234375 4.984375 -4.671875 C 4.984375 -4.304688 4.878906 -4.003906 4.671875 -3.765625 C 4.472656 -3.523438 4.179688 -3.367188 3.796875 -3.296875 L 3.796875 -3.25 C 4.054688 -3.207031 4.289062 -3.128906 4.5 -3.015625 C 4.71875 -2.910156 4.882812 -2.753906 5 -2.546875 C 5.125 -2.347656 5.1875 -2.085938 5.1875 -1.765625 C 5.1875 -1.203125 4.992188 -0.765625 4.609375 -0.453125 C 4.222656 -0.148438 3.695312 0 3.03125 0 L 0.84375 0 Z M 1.625 -3.5625 L 2.78125 -3.5625 C 3.300781 -3.5625 3.660156 -3.644531 3.859375 -3.8125 C 4.066406 -3.988281 4.171875 -4.25 4.171875 -4.59375 C 4.171875 -4.925781 4.050781 -5.164062 3.8125 -5.3125 C 3.570312 -5.46875 3.1875 -5.546875 2.65625 -5.546875 L 1.625 -5.546875 Z M 1.625 -2.921875 L 1.625 -0.65625 L 2.875 -0.65625 C 3.425781 -0.65625 3.8125 -0.765625 4.03125 -0.984375 C 4.25 -1.203125 4.359375 -1.484375 4.359375 -1.828125 C 4.359375 -2.148438 4.242188 -2.410156 4.015625 -2.609375 C 3.796875 -2.816406 3.394531 -2.921875 2.8125 -2.921875 Z M 1.625 -2.921875 "/></g></g></g><g fill="#000000" fill-opacity="1"><g transform="translate(292.983599, 234.435573)"><g><path d="M 6.265625 -3.109375 C 6.265625 -2.472656 6.15625 -1.914062 5.9375 -1.4375 C 5.71875 -0.957031 5.394531 -0.582031 4.96875 -0.3125 C 4.539062 -0.0390625 4.019531 0.09375 3.40625 0.09375 C 2.757812 0.09375 2.222656 -0.0390625 1.796875 -0.3125 C 1.367188 -0.582031 1.050781 -0.957031 0.84375 -1.4375 C 0.632812 -1.914062 0.53125 -2.476562 0.53125 -3.125 C 0.53125 -3.757812 0.632812 -4.316406 0.84375 -4.796875 C 1.050781 -5.273438 1.367188 -5.644531 1.796875 -5.90625 C 2.222656 -6.175781 2.757812 -6.3125 3.40625 -6.3125 C 4.03125 -6.3125 4.550781 -6.175781 4.96875 -5.90625 C 5.394531 -5.644531 5.71875 -5.273438 5.9375 -4.796875 C 6.15625 -4.316406 6.265625 -3.753906 6.265625 -3.109375 Z M 1.359375 -3.109375 C 1.359375 -2.328125 1.519531 -1.710938 1.84375 -1.265625 C 2.175781 -0.816406 2.695312 -0.59375 3.40625 -0.59375 C 4.101562 -0.59375 4.613281 -0.816406 4.9375 -1.265625 C 5.269531 -1.710938 5.4375 -2.328125 5.4375 -3.109375 C 5.4375 -3.898438 5.273438 -4.515625 4.953125 -4.953125 C 4.628906 -5.398438 4.113281 -5.625 3.40625 -5.625 C 2.695312 -5.625 2.175781 -5.398438 1.84375 -4.953125 C 1.519531 -4.515625 1.359375 -3.898438 1.359375 -3.109375 Z M 1.359375 -3.109375 "/></g></g></g><g fill="#000000" fill-opacity="1"><g transform="translate(301.603059, 234.435573)"><g><path d="M 5.3125 0 L 4.53125 0 L 4.53125 -5.53125 L 2.5625 -5.53125 C 2.507812 -5.09375 2.453125 -4.640625 2.390625 -4.171875 C 2.328125 -3.703125 2.265625 -3.25 2.203125 -2.8125 C 2.140625 -2.382812 2.078125 -2.019531 2.015625 -1.71875 C 1.929688 -1.320312 1.832031 -0.988281 1.71875 -0.71875 C 1.613281 -0.457031 1.46875 -0.253906 1.28125 -0.109375 C 1.101562 0.0234375 0.867188 0.09375 0.578125 0.09375 C 0.472656 0.09375 0.367188 0.0820312 0.265625 0.0625 C 0.171875 0.0390625 0.0859375 0.015625 0.015625 -0.015625 L 0.015625 -0.65625 C 0.078125 -0.632812 0.144531 -0.613281 0.21875 -0.59375 C 0.300781 -0.570312 0.390625 -0.5625 0.484375 -0.5625 C 0.660156 -0.5625 0.796875 -0.628906 0.890625 -0.765625 C 0.992188 -0.910156 1.070312 -1.085938 1.125 -1.296875 C 1.1875 -1.515625 1.238281 -1.726562 1.28125 -1.9375 C 1.332031 -2.15625 1.390625 -2.476562 1.453125 -2.90625 C 1.523438 -3.332031 1.597656 -3.828125 1.671875 -4.390625 C 1.753906 -4.960938 1.835938 -5.570312 1.921875 -6.21875 L 5.3125 -6.21875 Z M 5.3125 0 "/></g></g></g><g fill="#000000" fill-opacity="1"><g transform="translate(309.587625, 234.435573)"><g><path d="M 6.265625 -3.109375 C 6.265625 -2.472656 6.15625 -1.914062 5.9375 -1.4375 C 5.71875 -0.957031 5.394531 -0.582031 4.96875 -0.3125 C 4.539062 -0.0390625 4.019531 0.09375 3.40625 0.09375 C 2.757812 0.09375 2.222656 -0.0390625 1.796875 -0.3125 C 1.367188 -0.582031 1.050781 -0.957031 0.84375 -1.4375 C 0.632812 -1.914062 0.53125 -2.476562 0.53125 -3.125 C 0.53125 -3.757812 0.632812 -4.316406 0.84375 -4.796875 C 1.050781 -5.273438 1.367188 -5.644531 1.796875 -5.90625 C 2.222656 -6.175781 2.757812 -6.3125 3.40625 -6.3125 C 4.03125 -6.3125 4.550781 -6.175781 4.96875 -5.90625 C 5.394531 -5.644531 5.71875 -5.273438 5.9375 -4.796875 C 6.15625 -4.316406 6.265625 -3.753906 6.265625 -3.109375 Z M 1.359375 -3.109375 C 1.359375 -2.328125 1.519531 -1.710938 1.84375 -1.265625 C 2.175781 -0.816406 2.695312 -0.59375 3.40625 -0.59375 C 4.101562 -0.59375 4.613281 -0.816406 4.9375 -1.265625 C 5.269531 -1.710938 5.4375 -2.328125 5.4375 -3.109375 C 5.4375 -3.898438 5.273438 -4.515625 4.953125 -4.953125 C 4.628906 -5.398438 4.113281 -5.625 3.40625 -5.625 C 2.695312 -5.625 2.175781 -5.398438 1.84375 -4.953125 C 1.519531 -4.515625 1.359375 -3.898438 1.359375 -3.109375 Z M 1.359375 -3.109375 "/></g></g></g><g fill="#000000" fill-opacity="1"><g transform="translate(318.207086, 234.435573)"><g><path d="M 3.5 -5.609375 C 2.832031 -5.609375 2.304688 -5.382812 1.921875 -4.9375 C 1.546875 -4.488281 1.359375 -3.878906 1.359375 -3.109375 C 1.359375 -2.335938 1.535156 -1.722656 1.890625 -1.265625 C 2.242188 -0.816406 2.78125 -0.59375 3.5 -0.59375 C 3.769531 -0.59375 4.023438 -0.613281 4.265625 -0.65625 C 4.503906 -0.707031 4.742188 -0.769531 4.984375 -0.84375 L 4.984375 -0.171875 C 4.753906 -0.078125 4.515625 -0.0078125 4.265625 0.03125 C 4.023438 0.0703125 3.734375 0.09375 3.390625 0.09375 C 2.753906 0.09375 2.222656 -0.0351562 1.796875 -0.296875 C 1.378906 -0.566406 1.0625 -0.941406 0.84375 -1.421875 C 0.632812 -1.898438 0.53125 -2.460938 0.53125 -3.109375 C 0.53125 -3.742188 0.644531 -4.296875 0.875 -4.765625 C 1.101562 -5.242188 1.441406 -5.617188 1.890625 -5.890625 C 2.335938 -6.160156 2.878906 -6.296875 3.515625 -6.296875 C 4.171875 -6.296875 4.742188 -6.175781 5.234375 -5.9375 L 4.921875 -5.28125 C 4.722656 -5.363281 4.503906 -5.4375 4.265625 -5.5 C 4.035156 -5.570312 3.78125 -5.609375 3.5 -5.609375 Z M 3.5 -5.609375 "/></g></g></g><g fill="#000000" fill-opacity="1"><g transform="translate(325.530662, 234.435573)"><g><path d="M 3.5 -5.609375 C 2.832031 -5.609375 2.304688 -5.382812 1.921875 -4.9375 C 1.546875 -4.488281 1.359375 -3.878906 1.359375 -3.109375 C 1.359375 -2.335938 1.535156 -1.722656 1.890625 -1.265625 C 2.242188 -0.816406 2.78125 -0.59375 3.5 -0.59375 C 3.769531 -0.59375 4.023438 -0.613281 4.265625 -0.65625 C 4.503906 -0.707031 4.742188 -0.769531 4.984375 -0.84375 L 4.984375 -0.171875 C 4.753906 -0.078125 4.515625 -0.0078125 4.265625 0.03125 C 4.023438 0.0703125 3.734375 0.09375 3.390625 0.09375 C 2.753906 0.09375 2.222656 -0.0351562 1.796875 -0.296875 C 1.378906 -0.566406 1.0625 -0.941406 0.84375 -1.421875 C 0.632812 -1.898438 0.53125 -2.460938 0.53125 -3.109375 C 0.53125 -3.742188 0.644531 -4.296875 0.875 -4.765625 C 1.101562 -5.242188 1.441406 -5.617188 1.890625 -5.890625 C 2.335938 -6.160156 2.878906 -6.296875 3.515625 -6.296875 C 4.171875 -6.296875 4.742188 -6.175781 5.234375 -5.9375 L 4.921875 -5.28125 C 4.722656 -5.363281 4.503906 -5.4375 4.265625 -5.5 C 4.035156 -5.570312 3.78125 -5.609375 3.5 -5.609375 Z M 3.5 -5.609375 "/></g></g></g><g fill="#000000" fill-opacity="1"><g transform="translate(332.854239, 234.435573)"><g><path d="M 2.71875 -2.578125 L 1.109375 0 L 0.1875 0 L 1.9375 -2.71875 C 1.707031 -2.78125 1.492188 -2.878906 1.296875 -3.015625 C 1.109375 -3.148438 0.953125 -3.332031 0.828125 -3.5625 C 0.710938 -3.800781 0.65625 -4.101562 0.65625 -4.46875 C 0.65625 -5.03125 0.847656 -5.460938 1.234375 -5.765625 C 1.617188 -6.066406 2.195312 -6.21875 2.96875 -6.21875 L 4.71875 -6.21875 L 4.71875 0 L 3.9375 0 L 3.9375 -2.578125 Z M 3.9375 -5.546875 L 3 -5.546875 C 2.5 -5.546875 2.117188 -5.457031 1.859375 -5.28125 C 1.597656 -5.113281 1.46875 -4.832031 1.46875 -4.4375 C 1.46875 -4.050781 1.59375 -3.753906 1.84375 -3.546875 C 2.101562 -3.335938 2.5 -3.234375 3.03125 -3.234375 L 3.9375 -3.234375 Z M 3.9375 -5.546875 "/></g></g></g><g fill="#000000" fill-opacity="1"><g transform="translate(340.238697, 234.435573)"><g><path d="M 3.578125 0 L 1.546875 -5.453125 L 1.5 -5.453125 C 1.519531 -5.265625 1.535156 -5.019531 1.546875 -4.71875 C 1.554688 -4.414062 1.5625 -4.097656 1.5625 -3.765625 L 1.5625 0 L 0.84375 0 L 0.84375 -6.21875 L 2 -6.21875 L 3.921875 -1.125 L 3.953125 -1.125 L 5.90625 -6.21875 L 7.046875 -6.21875 L 7.046875 0 L 6.28125 0 L 6.28125 -3.828125 C 6.28125 -4.117188 6.285156 -4.410156 6.296875 -4.703125 C 6.304688 -5.003906 6.320312 -5.25 6.34375 -5.4375 L 6.296875 -5.4375 L 4.234375 0 Z M 3.578125 0 "/></g></g></g><g fill="#000000" fill-opacity="1"><g transform="translate(126.713567, 177.857117)"><g><path d="M 2.484375 0 L 11.074219 0 C 21.878906 0 25.402344 -5.335938 25.3125 -10.171875 C 25.269531 -14.511719 22.601562 -18.398438 15.324219 -18.894531 C 19.890625 -19.800781 21.921875 -22.601562 21.921875 -25.675781 C 21.921875 -29.335938 18.894531 -31.640625 12.429688 -31.640625 L 2.484375 -31.640625 L 2.484375 -31.144531 C 3.75 -30.828125 4.292969 -30.058594 4.292969 -25.902344 L 4.292969 -5.742188 C 4.292969 -1.582031 3.75 -0.8125 2.484375 -0.496094 Z M 6.824219 -4.566406 L 6.824219 -18.308594 L 12.929688 -18.308594 C 19.753906 -18.308594 22.511719 -14.554688 22.511719 -9.582031 C 22.511719 -4.339844 19.800781 -0.632812 11.480469 -0.632812 L 9.175781 -0.632812 C 7.234375 -0.632812 6.824219 -1.3125 6.824219 -4.566406 Z M 6.824219 -18.894531 L 6.824219 -31.054688 L 11.980469 -31.054688 C 16.726562 -31.054688 19.121094 -28.660156 19.121094 -25.085938 C 19.121094 -21.652344 16.996094 -18.894531 11.253906 -18.894531 Z M 6.824219 -18.894531 "/></g></g></g><g fill="#000000" fill-opacity="1"><g transform="translate(153.969556, 177.857117)"><g><path d="M 12.613281 0.453125 C 16.996094 0.453125 20.476562 -2.304688 23.007812 -5.46875 L 22.648438 -5.832031 C 20.339844 -3.210938 17.945312 -1.535156 14.285156 -1.535156 C 8.316406 -1.535156 4.160156 -5.785156 4.160156 -12.339844 C 4.160156 -13.289062 4.25 -14.195312 4.429688 -15.050781 L 22.601562 -15.050781 C 22.375 -19.707031 18.984375 -22.917969 13.785156 -22.917969 C 6.960938 -22.917969 1.851562 -17.808594 1.851562 -10.804688 C 1.851562 -3.210938 7.640625 0.453125 12.613281 0.453125 Z M 4.519531 -15.59375 C 5.515625 -19.617188 8.316406 -22.148438 12.203125 -22.148438 C 17.402344 -22.148438 19.707031 -17.855469 20.070312 -15.59375 Z M 4.519531 -15.59375 "/></g></g></g><g fill="#000000" fill-opacity="1"><g transform="translate(178.965513, 177.857117)"><g><path d="M 19.390625 0 L 22.648438 0 L 22.648438 -0.496094 C 21.382812 -0.8125 20.839844 -1.582031 20.839844 -5.742188 L 20.839844 -15.144531 C 20.839844 -19.800781 18.398438 -22.917969 12.929688 -22.917969 C 9.175781 -22.917969 6.058594 -21.15625 3.433594 -17.808594 L 3.84375 -17.492188 C 6.011719 -20.296875 8.816406 -21.742188 11.707031 -21.742188 C 16.046875 -21.742188 18.171875 -19.4375 18.441406 -15.050781 L 11.753906 -13.289062 C 6.554688 -11.933594 1.808594 -10.214844 1.808594 -5.46875 C 1.808594 -1.492188 4.972656 0.453125 8.363281 0.453125 C 12.613281 0.453125 16.953125 -3.660156 18.488281 -9.539062 L 18.488281 -0.902344 C 18.488281 -0.316406 18.804688 0 19.390625 0 Z M 4.292969 -6.375 C 4.25 -10.035156 7.1875 -11.527344 11.933594 -12.792969 L 18.488281 -14.511719 L 18.488281 -12.929688 C 18.441406 -7.503906 14.691406 -1.535156 9.402344 -1.535156 C 6.285156 -1.535156 4.339844 -3.480469 4.292969 -6.375 Z M 4.292969 -6.375 "/></g></g></g><g fill="#000000" fill-opacity="1"><g transform="translate(203.419068, 177.857117)"><g><path d="M 10.261719 0.40625 C 14.148438 0.40625 17.3125 -2.214844 19.347656 -4.429688 L 19.347656 -1.808594 C 19.347656 -0.316406 19.664062 0 20.476562 0 L 23.503906 0 L 23.503906 -0.496094 C 22.238281 -0.8125 21.699219 -1.582031 21.699219 -5.742188 L 21.699219 -22.648438 L 21.382812 -22.917969 L 17.539062 -21.246094 L 17.539062 -20.839844 C 18.894531 -20.25 19.347656 -19.84375 19.347656 -16.136719 L 19.347656 -5.242188 C 17.539062 -3.117188 14.871094 -0.902344 11.480469 -0.902344 C 7.683594 -0.902344 5.515625 -3.074219 5.515625 -8.589844 L 5.515625 -22.648438 L 5.199219 -22.917969 L 1.355469 -21.246094 L 1.355469 -20.839844 C 2.710938 -20.25 3.164062 -19.84375 3.164062 -16.136719 L 3.164062 -7.550781 C 3.164062 -2.710938 5.558594 0.40625 10.261719 0.40625 Z M 10.261719 0.40625 "/></g></g></g><g fill="#000000" fill-opacity="1"><g transform="translate(229.273838, 177.857117)"><g><path d="M 8.632812 0.453125 C 11.164062 0.453125 13.5625 -1.628906 14.960938 -3.300781 L 14.601562 -3.660156 C 13.109375 -1.945312 11.480469 -1.175781 9.898438 -1.175781 C 8 -1.175781 6.507812 -2.304688 6.507812 -5.695312 L 6.507812 -22.058594 L 13.019531 -22.058594 L 13.289062 -22.601562 L 6.507812 -22.601562 L 6.507812 -27.710938 L 6.011719 -27.710938 L 1.265625 -22.601562 L 1.265625 -22.058594 L 4.160156 -22.058594 L 4.160156 -5.605469 C 4.160156 -1.085938 6.011719 0.453125 8.632812 0.453125 Z M 8.632812 0.453125 "/></g></g></g><g fill="#000000" fill-opacity="1"><g transform="translate(244.732479, 177.857117)"><g><path d="M 1.039062 8.722656 C 2.621094 8.722656 7.414062 8.996094 11.707031 -0.902344 L 18.851562 -17.3125 C 20.476562 -21.15625 21.605469 -21.789062 22.738281 -22.105469 L 22.738281 -22.601562 L 17.902344 -22.601562 L 17.902344 -22.105469 C 19.484375 -21.789062 19.4375 -20.160156 18.21875 -17.3125 L 12.070312 -3.117188 L 6.148438 -17.3125 C 4.519531 -21.15625 4.476562 -21.789062 5.742188 -22.105469 L 5.742188 -22.601562 L 0.136719 -22.601562 L 0.136719 -22.105469 C 1.039062 -21.789062 1.988281 -21.15625 3.617188 -17.3125 L 10.757812 -0.0898438 C 9.492188 2.578125 7.730469 5.335938 5.652344 6.824219 C 3.886719 6.507812 1.492188 5.605469 0.40625 5.605469 C -0.722656 5.605469 -1.761719 6.824219 -1.761719 7.640625 C -1.761719 8.183594 -0.585938 8.722656 1.039062 8.722656 Z M 1.039062 8.722656 "/></g></g></g><g fill="#000000" fill-opacity="1"><g transform="translate(126.713567, 218.571171)"><g><path d="M 18.851562 0.453125 C 23.414062 0.453125 28.613281 -0.996094 30.511719 -2.261719 L 31.234375 -7.503906 L 30.785156 -7.550781 C 28.886719 -2.484375 24.769531 -0.363281 20.070312 -0.363281 C 9.988281 -0.363281 4.882812 -8.632812 4.925781 -16.816406 C 5.015625 -26.308594 11.03125 -31.054688 18.171875 -31.054688 C 24.363281 -31.054688 28.207031 -28.433594 29.878906 -24.863281 L 30.242188 -24.953125 L 30.058594 -29.652344 C 28.929688 -30.285156 24.546875 -31.957031 20.117188 -31.957031 C 9.945312 -31.957031 2.261719 -25.269531 2.261719 -15.097656 C 2.261719 -5.558594 8.90625 0.453125 18.851562 0.453125 Z M 18.851562 0.453125 "/></g></g></g><g fill="#000000" fill-opacity="1"><g transform="translate(160.297645, 218.571171)"><g><path d="M 13.46875 0.453125 C 18.804688 0.453125 25.042969 -3.480469 25.042969 -11.210938 C 25.042969 -19.300781 19.074219 -22.917969 13.46875 -22.917969 C 7.277344 -22.917969 1.851562 -18.082031 1.851562 -11.253906 C 1.851562 -3.210938 7.867188 0.453125 13.46875 0.453125 Z M 4.203125 -12.972656 C 4.203125 -18.21875 7.140625 -22.148438 12.476562 -22.148438 C 18.535156 -22.148438 22.828125 -15.324219 22.828125 -9.402344 C 22.828125 -4.339844 19.84375 -0.40625 14.601562 -0.40625 C 8.542969 -0.40625 4.203125 -6.78125 4.203125 -12.972656 Z M 4.203125 -12.972656 "/></g></g></g><g fill="#000000" fill-opacity="1"><g transform="translate(187.915233, 218.571171)"><g><path d="M 10.441406 0.453125 C 14.691406 0.40625 18.261719 -2.078125 18.261719 -6.328125 C 18.261719 -10.714844 13.878906 -11.707031 10.621094 -12.746094 C 7.640625 -13.695312 4.066406 -14.960938 4.066406 -18.21875 C 4.066406 -20.882812 6.191406 -22.375 9.492188 -22.375 C 12.613281 -22.375 15.59375 -20.613281 16.953125 -17.269531 L 17.3125 -17.359375 L 17.132812 -21.605469 C 15.867188 -22.148438 13.378906 -22.917969 10.035156 -22.917969 C 5.785156 -22.917969 2.394531 -20.613281 2.394531 -16.90625 C 2.394531 -12.703125 5.652344 -11.707031 9.402344 -10.441406 C 12.429688 -9.402344 16.542969 -8.5 16.542969 -4.835938 C 16.542969 -1.761719 14.195312 -0.269531 11.347656 -0.269531 C 7.1875 -0.269531 3.976562 -2.441406 2.167969 -6.691406 L 1.808594 -6.601562 L 2.125 -1.535156 C 3.390625 -0.722656 6.464844 0.496094 10.441406 0.453125 Z M 10.441406 0.453125 "/></g></g></g><g fill="#000000" fill-opacity="1"><g transform="translate(208.391122, 218.571171)"><g><path d="M 1.671875 0 L 7.640625 0 L 7.640625 -0.496094 C 6.375 -0.8125 5.832031 -1.582031 5.832031 -5.742188 L 5.832031 -18.171875 C 8.273438 -20.023438 11.121094 -21.742188 14.058594 -21.742188 C 17.71875 -21.742188 19.753906 -19.484375 19.753906 -14.554688 L 19.753906 -5.742188 C 19.753906 -1.582031 19.210938 -0.8125 17.945312 -0.496094 L 17.945312 0 L 23.914062 0 L 23.914062 -0.496094 C 22.648438 -0.8125 22.105469 -1.582031 22.105469 -5.742188 L 22.105469 -15.367188 C 22.105469 -16.320312 22.015625 -17.175781 21.832031 -17.992188 C 24.363281 -19.933594 27.257812 -21.742188 30.332031 -21.742188 C 33.992188 -21.742188 36.027344 -19.484375 36.027344 -14.554688 L 36.027344 -5.742188 C 36.027344 -1.582031 35.484375 -0.8125 34.21875 -0.496094 L 34.21875 0 L 40.1875 0 L 40.1875 -0.496094 C 38.921875 -0.8125 38.378906 -1.582031 38.378906 -5.742188 L 38.378906 -15.367188 C 38.378906 -20.25 36.207031 -22.917969 31.550781 -22.917969 C 28.433594 -22.917969 24.726562 -20.882812 21.742188 -18.488281 C 20.929688 -21.382812 18.804688 -22.917969 15.277344 -22.917969 C 12.296875 -22.917969 8.769531 -21.019531 5.832031 -18.804688 L 5.832031 -22.648438 L 5.515625 -22.917969 L 1.671875 -21.246094 L 1.671875 -20.839844 C 3.027344 -20.25 3.480469 -19.84375 3.480469 -16.136719 L 3.480469 -5.742188 C 3.480469 -1.582031 2.9375 -0.8125 1.671875 -0.496094 Z M 1.671875 0 "/></g></g></g><g fill="#000000" fill-opacity="1"><g transform="translate(250.382509, 218.571171)"><g><path d="M 12.613281 0.453125 C 16.996094 0.453125 20.476562 -2.304688 23.007812 -5.46875 L 22.648438 -5.832031 C 20.339844 -3.210938 17.945312 -1.535156 14.285156 -1.535156 C 8.316406 -1.535156 4.160156 -5.785156 4.160156 -12.339844 C 4.160156 -13.289062 4.25 -14.195312 4.429688 -15.050781 L 22.601562 -15.050781 C 22.375 -19.707031 18.984375 -22.917969 13.785156 -22.917969 C 6.960938 -22.917969 1.851562 -17.808594 1.851562 -10.804688 C 1.851562 -3.210938 7.640625 0.453125 12.613281 0.453125 Z M 4.519531 -15.59375 C 5.515625 -19.617188 8.316406 -22.148438 12.203125 -22.148438 C 17.402344 -22.148438 19.707031 -17.855469 20.070312 -15.59375 Z M 4.519531 -15.59375 "/></g></g></g><g fill="#000000" fill-opacity="1"><g transform="translate(275.37847, 218.571171)"><g><path d="M 8.632812 0.453125 C 11.164062 0.453125 13.5625 -1.628906 14.960938 -3.300781 L 14.601562 -3.660156 C 13.109375 -1.945312 11.480469 -1.175781 9.898438 -1.175781 C 8 -1.175781 6.507812 -2.304688 6.507812 -5.695312 L 6.507812 -22.058594 L 13.019531 -22.058594 L 13.289062 -22.601562 L 6.507812 -22.601562 L 6.507812 -27.710938 L 6.011719 -27.710938 L 1.265625 -22.601562 L 1.265625 -22.058594 L 4.160156 -22.058594 L 4.160156 -5.605469 C 4.160156 -1.085938 6.011719 0.453125 8.632812 0.453125 Z M 8.632812 0.453125 "/></g></g></g><g fill="#000000" fill-opacity="1"><g transform="translate(290.837111, 218.571171)"><g><path d="M 1.671875 0 L 7.640625 0 L 7.640625 -0.496094 C 6.375 -0.8125 5.832031 -1.582031 5.832031 -5.742188 L 5.832031 -22.648438 L 5.515625 -22.917969 L 1.671875 -21.246094 L 1.671875 -20.839844 C 3.027344 -20.25 3.480469 -19.84375 3.480469 -16.136719 L 3.480469 -5.742188 C 3.480469 -1.582031 2.9375 -0.8125 1.671875 -0.496094 Z M 2.53125 -28.886719 C 2.53125 -27.84375 3.34375 -27.03125 4.382812 -27.03125 C 5.425781 -27.03125 6.238281 -27.84375 6.238281 -28.886719 C 6.238281 -29.925781 5.46875 -30.738281 4.382812 -30.738281 C 3.34375 -30.738281 2.53125 -29.925781 2.53125 -28.886719 Z M 2.53125 -28.886719 "/></g></g></g><g fill="#000000" fill-opacity="1"><g transform="translate(300.826487, 218.571171)"><g><path d="M 12.613281 0.453125 C 16.996094 0.453125 20.476562 -2.304688 23.007812 -5.46875 L 22.648438 -5.832031 C 20.339844 -3.210938 17.945312 -1.535156 14.285156 -1.535156 C 8.316406 -1.535156 4.160156 -5.785156 4.160156 -12.339844 C 4.160156 -17.808594 7.414062 -21.335938 11.84375 -22.238281 C 15.6875 -19.933594 17.855469 -18.714844 18.851562 -18.714844 C 20.386719 -18.714844 21.425781 -19.933594 21.425781 -20.613281 C 21.425781 -21.832031 18.035156 -22.917969 14.285156 -22.917969 C 7.414062 -22.917969 1.851562 -17.449219 1.851562 -10.804688 C 1.851562 -3.210938 7.640625 0.453125 12.613281 0.453125 Z M 12.613281 0.453125 "/></g></g></g><g fill="#000000" fill-opacity="1"><g transform="translate(325.370443, 218.571171)"><g><path d="M 10.441406 0.453125 C 14.691406 0.40625 18.261719 -2.078125 18.261719 -6.328125 C 18.261719 -10.714844 13.878906 -11.707031 10.621094 -12.746094 C 7.640625 -13.695312 4.066406 -14.960938 4.066406 -18.21875 C 4.066406 -20.882812 6.191406 -22.375 9.492188 -22.375 C 12.613281 -22.375 15.59375 -20.613281 16.953125 -17.269531 L 17.3125 -17.359375 L 17.132812 -21.605469 C 15.867188 -22.148438 13.378906 -22.917969 10.035156 -22.917969 C 5.785156 -22.917969 2.394531 -20.613281 2.394531 -16.90625 C 2.394531 -12.703125 5.652344 -11.707031 9.402344 -10.441406 C 12.429688 -9.402344 16.542969 -8.5 16.542969 -4.835938 C 16.542969 -1.761719 14.195312 -0.269531 11.347656 -0.269531 C 7.1875 -0.269531 3.976562 -2.441406 2.167969 -6.691406 L 1.808594 -6.601562 L 2.125 -1.535156 C 3.390625 -0.722656 6.464844 0.496094 10.441406 0.453125 Z M 10.441406 0.453125 "/></g></g></g></svg>